G04 #@! TF.GenerationSoftware,KiCad,Pcbnew,(6.0.0-rc1-dev-1122-gbe0935b)*
G04 #@! TF.CreationDate,2018-11-02T12:34:23-07:00*
G04 #@! TF.ProjectId,50_matter2_comp,35305f6d-6174-4746-9572-325f636f6d70,rev?*
G04 #@! TF.SameCoordinates,Original*
G04 #@! TF.FileFunction,Paste,Bot*
G04 #@! TF.FilePolarity,Positive*
%FSLAX46Y46*%
G04 Gerber Fmt 4.6, Leading zero omitted, Abs format (unit mm)*
G04 Created by KiCad (PCBNEW (6.0.0-rc1-dev-1122-gbe0935b)) date Fri Nov  2 12:34:23 2018*
%MOMM*%
%LPD*%
G01*
G04 APERTURE LIST*
%ADD10R,0.600000X1.550000*%
%ADD11R,0.450000X1.450000*%
%ADD12R,1.400000X0.800000*%
%ADD13R,0.900000X0.800000*%
%ADD14R,0.800000X0.900000*%
%ADD15R,0.800000X1.400000*%
%ADD16R,0.650000X1.060000*%
%ADD17R,1.600000X2.600000*%
%ADD18R,2.500000X1.800000*%
%ADD19R,1.450000X0.450000*%
%ADD20R,3.500000X1.400000*%
%ADD21R,1.200000X0.900000*%
%ADD22R,0.900000X1.200000*%
G04 APERTURE END LIST*
D10*
G04 #@! TO.C,U9*
X153105000Y-107355000D03*
X151835000Y-107355000D03*
X150565000Y-107355000D03*
X149295000Y-107355000D03*
X149295000Y-101955000D03*
X150565000Y-101955000D03*
X151835000Y-101955000D03*
X153105000Y-101955000D03*
G04 #@! TD*
G04 #@! TO.C,U8*
X157755000Y-128900000D03*
X156485000Y-128900000D03*
X155215000Y-128900000D03*
X153945000Y-128900000D03*
X153945000Y-123500000D03*
X155215000Y-123500000D03*
X156485000Y-123500000D03*
X157755000Y-123500000D03*
G04 #@! TD*
D11*
G04 #@! TO.C,U5*
X122975000Y-86950000D03*
X122325000Y-86950000D03*
X121675000Y-86950000D03*
X121025000Y-86950000D03*
X121025000Y-81050000D03*
X121675000Y-81050000D03*
X122325000Y-81050000D03*
X122975000Y-81050000D03*
G04 #@! TD*
D12*
G04 #@! TO.C,C3*
X136950000Y-76750000D03*
X136950000Y-78750000D03*
G04 #@! TD*
G04 #@! TO.C,C4*
X135050000Y-71100000D03*
X135050000Y-69100000D03*
G04 #@! TD*
G04 #@! TO.C,C5*
X137200000Y-71100000D03*
X137200000Y-69100000D03*
G04 #@! TD*
G04 #@! TO.C,C6*
X142750000Y-138500000D03*
X142750000Y-140500000D03*
G04 #@! TD*
G04 #@! TO.C,C7*
X140750000Y-132150000D03*
X140750000Y-130150000D03*
G04 #@! TD*
G04 #@! TO.C,C8*
X142600000Y-132150000D03*
X142600000Y-130150000D03*
G04 #@! TD*
G04 #@! TO.C,C9*
X110000000Y-131500000D03*
X110000000Y-133500000D03*
G04 #@! TD*
G04 #@! TO.C,C10*
X116500000Y-134000000D03*
X116500000Y-136000000D03*
G04 #@! TD*
G04 #@! TO.C,C11*
X112000000Y-135000000D03*
X112000000Y-137000000D03*
G04 #@! TD*
G04 #@! TO.C,C12*
X118500000Y-136000000D03*
X118500000Y-134000000D03*
G04 #@! TD*
G04 #@! TO.C,C13*
X110000000Y-127500000D03*
X110000000Y-125500000D03*
G04 #@! TD*
G04 #@! TO.C,C14*
X116500000Y-125000000D03*
X116500000Y-123000000D03*
G04 #@! TD*
G04 #@! TO.C,C15*
X118500000Y-121500000D03*
X118500000Y-119500000D03*
G04 #@! TD*
G04 #@! TO.C,C16*
X118500000Y-123000000D03*
X118500000Y-125000000D03*
G04 #@! TD*
G04 #@! TO.C,C17*
X129000000Y-128000000D03*
X129000000Y-126000000D03*
G04 #@! TD*
G04 #@! TO.C,C20*
X119000000Y-116000000D03*
X119000000Y-118000000D03*
G04 #@! TD*
G04 #@! TO.C,C21*
X120500000Y-123000000D03*
X120500000Y-125000000D03*
G04 #@! TD*
G04 #@! TO.C,C27*
X177000000Y-127000000D03*
X177000000Y-129000000D03*
G04 #@! TD*
G04 #@! TO.C,C28*
X177000000Y-130500000D03*
X177000000Y-132500000D03*
G04 #@! TD*
G04 #@! TO.C,C29*
X179000000Y-129000000D03*
X179000000Y-127000000D03*
G04 #@! TD*
G04 #@! TO.C,C30*
X172500000Y-119000000D03*
X172500000Y-121000000D03*
G04 #@! TD*
G04 #@! TO.C,C31*
X187500000Y-122000000D03*
X187500000Y-120000000D03*
G04 #@! TD*
G04 #@! TO.C,C32*
X192000000Y-122000000D03*
X192000000Y-120000000D03*
G04 #@! TD*
D13*
G04 #@! TO.C,Q1*
X170500000Y-116500000D03*
X172500000Y-115550000D03*
X172500000Y-117450000D03*
G04 #@! TD*
D12*
G04 #@! TO.C,R3*
X131500000Y-151500000D03*
X131500000Y-153500000D03*
G04 #@! TD*
G04 #@! TO.C,R4*
X168500000Y-151500000D03*
X168500000Y-153500000D03*
G04 #@! TD*
G04 #@! TO.C,R5*
X168000000Y-113500000D03*
X168000000Y-115500000D03*
G04 #@! TD*
G04 #@! TO.C,R6*
X112000000Y-131500000D03*
X112000000Y-133500000D03*
G04 #@! TD*
G04 #@! TO.C,R7*
X114000000Y-133500000D03*
X114000000Y-131500000D03*
G04 #@! TD*
G04 #@! TO.C,R8*
X114000000Y-137000000D03*
X114000000Y-135000000D03*
G04 #@! TD*
G04 #@! TO.C,R9*
X116500000Y-139500000D03*
X116500000Y-137500000D03*
G04 #@! TD*
G04 #@! TO.C,R10*
X110000000Y-137000000D03*
X110000000Y-135000000D03*
G04 #@! TD*
G04 #@! TO.C,R11*
X118500000Y-139500000D03*
X118500000Y-137500000D03*
G04 #@! TD*
G04 #@! TO.C,R12*
X112000000Y-125500000D03*
X112000000Y-127500000D03*
G04 #@! TD*
G04 #@! TO.C,R13*
X114000000Y-125500000D03*
X114000000Y-127500000D03*
G04 #@! TD*
G04 #@! TO.C,R14*
X112000000Y-124000000D03*
X112000000Y-122000000D03*
G04 #@! TD*
G04 #@! TO.C,R15*
X114000000Y-124000000D03*
X114000000Y-122000000D03*
G04 #@! TD*
G04 #@! TO.C,R16*
X116500000Y-119500000D03*
X116500000Y-121500000D03*
G04 #@! TD*
G04 #@! TO.C,R17*
X110000000Y-124000000D03*
X110000000Y-122000000D03*
G04 #@! TD*
G04 #@! TO.C,R18*
X127000000Y-126000000D03*
X127000000Y-128000000D03*
G04 #@! TD*
G04 #@! TO.C,R19*
X127000000Y-124500000D03*
X127000000Y-122500000D03*
G04 #@! TD*
G04 #@! TO.C,R20*
X125000000Y-126000000D03*
X125000000Y-128000000D03*
G04 #@! TD*
G04 #@! TO.C,R21*
X120500000Y-121500000D03*
X120500000Y-119500000D03*
G04 #@! TD*
G04 #@! TO.C,R22*
X122500000Y-121500000D03*
X122500000Y-119500000D03*
G04 #@! TD*
G04 #@! TO.C,R23*
X125000000Y-124500000D03*
X125000000Y-122500000D03*
G04 #@! TD*
G04 #@! TO.C,R24*
X121000000Y-118000000D03*
X121000000Y-116000000D03*
G04 #@! TD*
G04 #@! TO.C,R25*
X127000000Y-133000000D03*
X127000000Y-131000000D03*
G04 #@! TD*
G04 #@! TO.C,R26*
X125000000Y-133000000D03*
X125000000Y-131000000D03*
G04 #@! TD*
G04 #@! TO.C,R27*
X129000000Y-136500000D03*
X129000000Y-134500000D03*
G04 #@! TD*
G04 #@! TO.C,R28*
X127000000Y-136500000D03*
X127000000Y-134500000D03*
G04 #@! TD*
G04 #@! TO.C,R29*
X120500000Y-139500000D03*
X120500000Y-137500000D03*
G04 #@! TD*
G04 #@! TO.C,R30*
X125000000Y-136500000D03*
X125000000Y-134500000D03*
G04 #@! TD*
G04 #@! TO.C,R31*
X172500000Y-127000000D03*
X172500000Y-125000000D03*
G04 #@! TD*
G04 #@! TO.C,R32*
X174500000Y-127000000D03*
X174500000Y-125000000D03*
G04 #@! TD*
G04 #@! TO.C,R33*
X172500000Y-128500000D03*
X172500000Y-130500000D03*
G04 #@! TD*
G04 #@! TO.C,R34*
X170500000Y-128500000D03*
X170500000Y-130500000D03*
G04 #@! TD*
G04 #@! TO.C,R35*
X179000000Y-132500000D03*
X179000000Y-130500000D03*
G04 #@! TD*
G04 #@! TO.C,R36*
X174500000Y-130500000D03*
X174500000Y-128500000D03*
G04 #@! TD*
G04 #@! TO.C,R37*
X170500000Y-119000000D03*
X170500000Y-121000000D03*
G04 #@! TD*
G04 #@! TO.C,R43*
X181000000Y-117000000D03*
X181000000Y-119000000D03*
G04 #@! TD*
G04 #@! TO.C,R44*
X185500000Y-126000000D03*
X185500000Y-124000000D03*
G04 #@! TD*
G04 #@! TO.C,R45*
X129500000Y-151500000D03*
X129500000Y-153500000D03*
G04 #@! TD*
G04 #@! TO.C,R52*
X125000000Y-76500000D03*
X125000000Y-78500000D03*
G04 #@! TD*
D14*
G04 #@! TO.C,Q4*
X122000000Y-146500000D03*
X121050000Y-144500000D03*
X122950000Y-144500000D03*
G04 #@! TD*
G04 #@! TO.C,Q5*
X122000000Y-107500000D03*
X122950000Y-109500000D03*
X121050000Y-109500000D03*
G04 #@! TD*
D15*
G04 #@! TO.C,R64*
X116000000Y-149750000D03*
X114000000Y-149750000D03*
G04 #@! TD*
G04 #@! TO.C,R65*
X119250000Y-149750000D03*
X117250000Y-149750000D03*
G04 #@! TD*
G04 #@! TO.C,R66*
X122500000Y-149750000D03*
X120500000Y-149750000D03*
G04 #@! TD*
G04 #@! TO.C,R67*
X120500000Y-151500000D03*
X122500000Y-151500000D03*
G04 #@! TD*
G04 #@! TO.C,R68*
X117250000Y-151500000D03*
X119250000Y-151500000D03*
G04 #@! TD*
G04 #@! TO.C,R69*
X114000000Y-151500000D03*
X116000000Y-151500000D03*
G04 #@! TD*
D12*
G04 #@! TO.C,R71*
X119500000Y-141000000D03*
X119500000Y-143000000D03*
G04 #@! TD*
G04 #@! TO.C,R72*
X109500000Y-108000000D03*
X109500000Y-106000000D03*
G04 #@! TD*
G04 #@! TO.C,R73*
X111500000Y-106000000D03*
X111500000Y-108000000D03*
G04 #@! TD*
G04 #@! TO.C,R74*
X113500000Y-108000000D03*
X113500000Y-106000000D03*
G04 #@! TD*
G04 #@! TO.C,R75*
X113500000Y-111500000D03*
X113500000Y-109500000D03*
G04 #@! TD*
G04 #@! TO.C,R76*
X111500000Y-109500000D03*
X111500000Y-111500000D03*
G04 #@! TD*
D15*
G04 #@! TO.C,R78*
X121000000Y-105750000D03*
X123000000Y-105750000D03*
G04 #@! TD*
D12*
G04 #@! TO.C,R79*
X119750000Y-113000000D03*
X119750000Y-111000000D03*
G04 #@! TD*
D15*
G04 #@! TO.C,R80*
X119000000Y-88500000D03*
X117000000Y-88500000D03*
G04 #@! TD*
G04 #@! TO.C,R82*
X119000000Y-79500000D03*
X117000000Y-79500000D03*
G04 #@! TD*
D12*
G04 #@! TO.C,R83*
X121000000Y-78500000D03*
X121000000Y-76500000D03*
G04 #@! TD*
G04 #@! TO.C,R91*
X153000000Y-76500000D03*
X153000000Y-78500000D03*
G04 #@! TD*
G04 #@! TO.C,R103*
X157250000Y-140750000D03*
X157250000Y-138750000D03*
G04 #@! TD*
G04 #@! TO.C,R105*
X153750000Y-140750000D03*
X153750000Y-138750000D03*
G04 #@! TD*
G04 #@! TO.C,R106*
X153750000Y-144000000D03*
X153750000Y-142000000D03*
G04 #@! TD*
G04 #@! TO.C,R108*
X157250000Y-144000000D03*
X157250000Y-142000000D03*
G04 #@! TD*
G04 #@! TO.C,R109*
X142750000Y-144000000D03*
X142750000Y-142000000D03*
G04 #@! TD*
D15*
G04 #@! TO.C,R110*
X149500000Y-140250000D03*
X147500000Y-140250000D03*
G04 #@! TD*
D12*
G04 #@! TO.C,R111*
X141000000Y-118250000D03*
X141000000Y-120250000D03*
G04 #@! TD*
G04 #@! TO.C,R112*
X141000000Y-115000000D03*
X141000000Y-117000000D03*
G04 #@! TD*
G04 #@! TO.C,R38*
X174500000Y-121000000D03*
X174500000Y-119000000D03*
G04 #@! TD*
G04 #@! TO.C,R39*
X174500000Y-117500000D03*
X174500000Y-115500000D03*
G04 #@! TD*
G04 #@! TO.C,C33*
X183000000Y-129000000D03*
X183000000Y-127000000D03*
G04 #@! TD*
G04 #@! TO.C,C34*
X181000000Y-129000000D03*
X181000000Y-127000000D03*
G04 #@! TD*
G04 #@! TO.C,C35*
X126500000Y-151500000D03*
X126500000Y-153500000D03*
G04 #@! TD*
D15*
G04 #@! TO.C,C36*
X125000000Y-81500000D03*
X127000000Y-81500000D03*
G04 #@! TD*
G04 #@! TO.C,C37*
X119000000Y-86500000D03*
X117000000Y-86500000D03*
G04 #@! TD*
G04 #@! TO.C,C38*
X119000000Y-81500000D03*
X117000000Y-81500000D03*
G04 #@! TD*
G04 #@! TO.C,C39*
X153000000Y-81500000D03*
X155000000Y-81500000D03*
G04 #@! TD*
G04 #@! TO.C,C40*
X147000000Y-86500000D03*
X145000000Y-86500000D03*
G04 #@! TD*
G04 #@! TO.C,C41*
X147000000Y-81500000D03*
X145000000Y-81500000D03*
G04 #@! TD*
G04 #@! TO.C,C42*
X181000000Y-81500000D03*
X183000000Y-81500000D03*
G04 #@! TD*
G04 #@! TO.C,C43*
X175000000Y-86500000D03*
X173000000Y-86500000D03*
G04 #@! TD*
G04 #@! TO.C,C44*
X175000000Y-81500000D03*
X173000000Y-81500000D03*
G04 #@! TD*
D12*
G04 #@! TO.C,C45*
X148500000Y-130500000D03*
X148500000Y-132500000D03*
G04 #@! TD*
G04 #@! TO.C,C46*
X146500000Y-130500000D03*
X146500000Y-132500000D03*
G04 #@! TD*
G04 #@! TO.C,R114*
X142750000Y-113750000D03*
X142750000Y-111750000D03*
G04 #@! TD*
G04 #@! TO.C,R115*
X142750000Y-117000000D03*
X142750000Y-115000000D03*
G04 #@! TD*
G04 #@! TO.C,R117*
X143750000Y-105500000D03*
X143750000Y-103500000D03*
G04 #@! TD*
G04 #@! TO.C,R118*
X144750000Y-115500000D03*
X144750000Y-117500000D03*
G04 #@! TD*
D15*
G04 #@! TO.C,R119*
X147000000Y-88500000D03*
X145000000Y-88500000D03*
G04 #@! TD*
G04 #@! TO.C,R121*
X147000000Y-79500000D03*
X145000000Y-79500000D03*
G04 #@! TD*
D12*
G04 #@! TO.C,C22*
X129000000Y-133000000D03*
X129000000Y-131000000D03*
G04 #@! TD*
G04 #@! TO.C,C23*
X120500000Y-134000000D03*
X120500000Y-136000000D03*
G04 #@! TD*
G04 #@! TO.C,C24*
X122500000Y-139500000D03*
X122500000Y-137500000D03*
G04 #@! TD*
G04 #@! TO.C,C25*
X122500000Y-136000000D03*
X122500000Y-134000000D03*
G04 #@! TD*
G04 #@! TO.C,C26*
X170500000Y-125000000D03*
X170500000Y-127000000D03*
G04 #@! TD*
G04 #@! TO.C,R40*
X177000000Y-119000000D03*
X177000000Y-117000000D03*
G04 #@! TD*
G04 #@! TO.C,R41*
X185500000Y-122000000D03*
X185500000Y-120000000D03*
G04 #@! TD*
G04 #@! TO.C,R42*
X183000000Y-119000000D03*
X183000000Y-117000000D03*
G04 #@! TD*
G04 #@! TO.C,R77*
X109500000Y-111500000D03*
X109500000Y-109500000D03*
G04 #@! TD*
G04 #@! TO.C,R104*
X155500000Y-138750000D03*
X155500000Y-140750000D03*
G04 #@! TD*
G04 #@! TO.C,R113*
X141000000Y-111750000D03*
X141000000Y-113750000D03*
G04 #@! TD*
D16*
G04 #@! TO.C,U2*
X142950000Y-135850000D03*
X142000000Y-135850000D03*
X141050000Y-135850000D03*
X141050000Y-133650000D03*
X142950000Y-133650000D03*
G04 #@! TD*
D12*
G04 #@! TO.C,C47*
X144750000Y-128750000D03*
X144750000Y-126750000D03*
G04 #@! TD*
G04 #@! TO.C,C48*
X151500000Y-132750000D03*
X151500000Y-130750000D03*
G04 #@! TD*
D17*
G04 #@! TO.C,C49*
X157500000Y-120900000D03*
X157500000Y-117300000D03*
G04 #@! TD*
D12*
G04 #@! TO.C,C50*
X144750000Y-122750000D03*
X144750000Y-124750000D03*
G04 #@! TD*
D17*
G04 #@! TO.C,C51*
X154250000Y-114050000D03*
X154250000Y-110450000D03*
G04 #@! TD*
D12*
G04 #@! TO.C,C52*
X155000000Y-103750000D03*
X155000000Y-101750000D03*
G04 #@! TD*
G04 #@! TO.C,C53*
X147250000Y-105750000D03*
X147250000Y-107750000D03*
G04 #@! TD*
D17*
G04 #@! TO.C,C54*
X154250000Y-98800000D03*
X154250000Y-95200000D03*
G04 #@! TD*
D12*
G04 #@! TO.C,C55*
X126000000Y-148000000D03*
X126000000Y-150000000D03*
G04 #@! TD*
G04 #@! TO.C,C56*
X173300000Y-151500000D03*
X173300000Y-153500000D03*
G04 #@! TD*
D13*
G04 #@! TO.C,Q8*
X147000000Y-143000000D03*
X149000000Y-142050000D03*
X149000000Y-143950000D03*
G04 #@! TD*
D14*
G04 #@! TO.C,Q9*
X145500000Y-114000000D03*
X144550000Y-112000000D03*
X146450000Y-112000000D03*
G04 #@! TD*
G04 #@! TO.C,Q12*
X179250000Y-144250000D03*
X180200000Y-146250000D03*
X178300000Y-146250000D03*
G04 #@! TD*
G04 #@! TO.C,Q13*
X178000000Y-107500000D03*
X178950000Y-109500000D03*
X177050000Y-109500000D03*
G04 #@! TD*
D12*
G04 #@! TO.C,R122*
X149000000Y-78500000D03*
X149000000Y-76500000D03*
G04 #@! TD*
G04 #@! TO.C,R123*
X151000000Y-78500000D03*
X151000000Y-76500000D03*
G04 #@! TD*
G04 #@! TO.C,R130*
X181000000Y-76500000D03*
X181000000Y-78500000D03*
G04 #@! TD*
G04 #@! TO.C,R139*
X176750000Y-95500000D03*
X176750000Y-93500000D03*
G04 #@! TD*
G04 #@! TO.C,R142*
X184750000Y-133000000D03*
X184750000Y-131000000D03*
G04 #@! TD*
G04 #@! TO.C,R143*
X184750000Y-136250000D03*
X184750000Y-134250000D03*
G04 #@! TD*
G04 #@! TO.C,R144*
X184750000Y-139500000D03*
X184750000Y-137500000D03*
G04 #@! TD*
G04 #@! TO.C,R145*
X186500000Y-137500000D03*
X186500000Y-139500000D03*
G04 #@! TD*
G04 #@! TO.C,R146*
X186500000Y-134250000D03*
X186500000Y-136250000D03*
G04 #@! TD*
G04 #@! TO.C,R147*
X186500000Y-131000000D03*
X186500000Y-133000000D03*
G04 #@! TD*
G04 #@! TO.C,R148*
X182250000Y-139500000D03*
X182250000Y-137500000D03*
G04 #@! TD*
G04 #@! TO.C,R149*
X180000000Y-140750000D03*
X180000000Y-142750000D03*
G04 #@! TD*
G04 #@! TO.C,R150*
X170250000Y-103000000D03*
X170250000Y-101000000D03*
G04 #@! TD*
G04 #@! TO.C,R151*
X170250000Y-106250000D03*
X170250000Y-104250000D03*
G04 #@! TD*
G04 #@! TO.C,R152*
X170250000Y-109500000D03*
X170250000Y-107500000D03*
G04 #@! TD*
G04 #@! TO.C,R153*
X168500000Y-107500000D03*
X168500000Y-109500000D03*
G04 #@! TD*
G04 #@! TO.C,R154*
X168500000Y-104250000D03*
X168500000Y-106250000D03*
G04 #@! TD*
G04 #@! TO.C,R155*
X168500000Y-101000000D03*
X168500000Y-103000000D03*
G04 #@! TD*
G04 #@! TO.C,R156*
X175000000Y-107500000D03*
X175000000Y-105500000D03*
G04 #@! TD*
G04 #@! TO.C,R157*
X180250000Y-111000000D03*
X180250000Y-113000000D03*
G04 #@! TD*
D15*
G04 #@! TO.C,R158*
X175000000Y-88500000D03*
X173000000Y-88500000D03*
G04 #@! TD*
D12*
G04 #@! TO.C,R159*
X178750000Y-93500000D03*
X178750000Y-95500000D03*
G04 #@! TD*
D15*
G04 #@! TO.C,R160*
X175000000Y-79500000D03*
X173000000Y-79500000D03*
G04 #@! TD*
D12*
G04 #@! TO.C,R161*
X177000000Y-78500000D03*
X177000000Y-76500000D03*
G04 #@! TD*
G04 #@! TO.C,R162*
X179000000Y-76500000D03*
X179000000Y-78500000D03*
G04 #@! TD*
G04 #@! TO.C,R163*
X158750000Y-107750000D03*
X158750000Y-105750000D03*
G04 #@! TD*
G04 #@! TO.C,R164*
X108000000Y-122000000D03*
X108000000Y-124000000D03*
G04 #@! TD*
G04 #@! TO.C,R165*
X146000000Y-136000000D03*
X146000000Y-134000000D03*
G04 #@! TD*
G04 #@! TO.C,R166*
X148000000Y-136000000D03*
X148000000Y-134000000D03*
G04 #@! TD*
G04 #@! TO.C,R167*
X150000000Y-136000000D03*
X150000000Y-134000000D03*
G04 #@! TD*
G04 #@! TO.C,R168*
X152000000Y-136000000D03*
X152000000Y-134000000D03*
G04 #@! TD*
G04 #@! TO.C,R169*
X154000000Y-136000000D03*
X154000000Y-134000000D03*
G04 #@! TD*
G04 #@! TO.C,R170*
X153500000Y-132750000D03*
X153500000Y-130750000D03*
G04 #@! TD*
G04 #@! TO.C,R171*
X156050000Y-133600000D03*
X156050000Y-131600000D03*
G04 #@! TD*
D15*
G04 #@! TO.C,R172*
X154350000Y-116600000D03*
X152350000Y-116600000D03*
G04 #@! TD*
D12*
G04 #@! TO.C,R173*
X141250000Y-124750000D03*
X141250000Y-122750000D03*
G04 #@! TD*
G04 #@! TO.C,R174*
X143000000Y-122750000D03*
X143000000Y-124750000D03*
G04 #@! TD*
D15*
G04 #@! TO.C,R175*
X157350000Y-114650000D03*
X159350000Y-114650000D03*
G04 #@! TD*
D12*
G04 #@! TO.C,R176*
X150200000Y-120300000D03*
X150200000Y-118300000D03*
G04 #@! TD*
G04 #@! TO.C,R177*
X148500000Y-118300000D03*
X148500000Y-120300000D03*
G04 #@! TD*
G04 #@! TO.C,R178*
X150750000Y-115000000D03*
X150750000Y-113000000D03*
G04 #@! TD*
G04 #@! TO.C,R179*
X150750000Y-111500000D03*
X150750000Y-109500000D03*
G04 #@! TD*
G04 #@! TO.C,R180*
X157750000Y-111500000D03*
X157750000Y-109500000D03*
G04 #@! TD*
G04 #@! TO.C,R181*
X155000000Y-107750000D03*
X155000000Y-105750000D03*
G04 #@! TD*
G04 #@! TO.C,R182*
X156750000Y-105750000D03*
X156750000Y-107750000D03*
G04 #@! TD*
G04 #@! TO.C,R183*
X157000000Y-102250000D03*
X157000000Y-104250000D03*
G04 #@! TD*
G04 #@! TO.C,R184*
X159000000Y-104250000D03*
X159000000Y-102250000D03*
G04 #@! TD*
G04 #@! TO.C,R185*
X150750000Y-97750000D03*
X150750000Y-99750000D03*
G04 #@! TD*
G04 #@! TO.C,R186*
X157750000Y-99750000D03*
X157750000Y-97750000D03*
G04 #@! TD*
G04 #@! TO.C,R187*
X128000000Y-150000000D03*
X128000000Y-148000000D03*
G04 #@! TD*
G04 #@! TO.C,R188*
X170500000Y-151500000D03*
X170500000Y-153500000D03*
G04 #@! TD*
G04 #@! TO.C,R195*
X157000000Y-54750000D03*
X157000000Y-52750000D03*
G04 #@! TD*
G04 #@! TO.C,C18*
X129000000Y-122500000D03*
X129000000Y-124500000D03*
G04 #@! TD*
G04 #@! TO.C,C19*
X122500000Y-125000000D03*
X122500000Y-123000000D03*
G04 #@! TD*
D18*
G04 #@! TO.C,D1*
X134000000Y-152900000D03*
X138000000Y-152900000D03*
G04 #@! TD*
G04 #@! TO.C,D2*
X162000000Y-152500000D03*
X166000000Y-152500000D03*
G04 #@! TD*
D12*
G04 #@! TO.C,R70*
X114250000Y-148000000D03*
X114250000Y-146000000D03*
G04 #@! TD*
G04 #@! TO.C,R84*
X123000000Y-78500000D03*
X123000000Y-76500000D03*
G04 #@! TD*
G04 #@! TO.C,R107*
X155500000Y-142000000D03*
X155500000Y-144000000D03*
G04 #@! TD*
G04 #@! TO.C,R116*
X142750000Y-120250000D03*
X142750000Y-118250000D03*
G04 #@! TD*
D16*
G04 #@! TO.C,U1*
X136975000Y-75025000D03*
X136025000Y-75025000D03*
X135075000Y-75025000D03*
X135075000Y-72825000D03*
X136975000Y-72825000D03*
G04 #@! TD*
D11*
G04 #@! TO.C,U6*
X150975000Y-86950000D03*
X150325000Y-86950000D03*
X149675000Y-86950000D03*
X149025000Y-86950000D03*
X149025000Y-81050000D03*
X149675000Y-81050000D03*
X150325000Y-81050000D03*
X150975000Y-81050000D03*
G04 #@! TD*
G04 #@! TO.C,U7*
X178975000Y-86950000D03*
X178325000Y-86950000D03*
X177675000Y-86950000D03*
X177025000Y-86950000D03*
X177025000Y-81050000D03*
X177675000Y-81050000D03*
X178325000Y-81050000D03*
X178975000Y-81050000D03*
G04 #@! TD*
D19*
G04 #@! TO.C,U3*
X116550000Y-131450000D03*
X116550000Y-130800000D03*
X116550000Y-130150000D03*
X116550000Y-129500000D03*
X116550000Y-128850000D03*
X116550000Y-128200000D03*
X116550000Y-127550000D03*
X122450000Y-127550000D03*
X122450000Y-128200000D03*
X122450000Y-128850000D03*
X122450000Y-129500000D03*
X122450000Y-130150000D03*
X122450000Y-130800000D03*
X122450000Y-131450000D03*
G04 #@! TD*
G04 #@! TO.C,U4*
X177050000Y-124950000D03*
X177050000Y-124300000D03*
X177050000Y-123650000D03*
X177050000Y-123000000D03*
X177050000Y-122350000D03*
X177050000Y-121700000D03*
X177050000Y-121050000D03*
X182950000Y-121050000D03*
X182950000Y-121700000D03*
X182950000Y-122350000D03*
X182950000Y-123000000D03*
X182950000Y-123650000D03*
X182950000Y-124300000D03*
X182950000Y-124950000D03*
G04 #@! TD*
D15*
G04 #@! TO.C,C57*
X113250000Y-129500000D03*
X111250000Y-129500000D03*
G04 #@! TD*
G04 #@! TO.C,C58*
X174500000Y-123000000D03*
X172500000Y-123000000D03*
G04 #@! TD*
G04 #@! TO.C,C59*
X185000000Y-57500000D03*
X183000000Y-57500000D03*
G04 #@! TD*
D12*
G04 #@! TO.C,C60*
X191250000Y-49000000D03*
X191250000Y-51000000D03*
G04 #@! TD*
D20*
G04 #@! TO.C,F1*
X173750000Y-145125000D03*
X173750000Y-140375000D03*
G04 #@! TD*
G04 #@! TO.C,F2*
X176500000Y-153375000D03*
X176500000Y-148625000D03*
G04 #@! TD*
D15*
G04 #@! TO.C,R207*
X188750000Y-71250000D03*
X186750000Y-71250000D03*
G04 #@! TD*
D11*
G04 #@! TO.C,U10*
X185300000Y-49300000D03*
X185950000Y-49300000D03*
X186600000Y-49300000D03*
X187250000Y-49300000D03*
X187900000Y-49300000D03*
X188550000Y-49300000D03*
X189200000Y-49300000D03*
X189200000Y-55200000D03*
X188550000Y-55200000D03*
X187900000Y-55200000D03*
X187250000Y-55200000D03*
X186600000Y-55200000D03*
X185950000Y-55200000D03*
X185300000Y-55200000D03*
G04 #@! TD*
G04 #@! TO.C,U11*
X189475000Y-67950000D03*
X188825000Y-67950000D03*
X188175000Y-67950000D03*
X187525000Y-67950000D03*
X187525000Y-62050000D03*
X188175000Y-62050000D03*
X188825000Y-62050000D03*
X189475000Y-62050000D03*
G04 #@! TD*
D15*
G04 #@! TO.C,C64*
X179125000Y-102000000D03*
X177125000Y-102000000D03*
G04 #@! TD*
G04 #@! TO.C,C65*
X171275000Y-98100000D03*
X169275000Y-98100000D03*
G04 #@! TD*
D13*
G04 #@! TO.C,Q18*
X130750000Y-57300000D03*
X132750000Y-56350000D03*
X132750000Y-58250000D03*
G04 #@! TD*
D14*
G04 #@! TO.C,Q19*
X161425000Y-63750000D03*
X160475000Y-61750000D03*
X162375000Y-61750000D03*
G04 #@! TD*
D15*
G04 #@! TO.C,R208*
X127250000Y-50000000D03*
X125250000Y-50000000D03*
G04 #@! TD*
D12*
G04 #@! TO.C,R209*
X129000000Y-50000000D03*
X129000000Y-52000000D03*
G04 #@! TD*
D15*
G04 #@! TO.C,R210*
X132750000Y-49500000D03*
X130750000Y-49500000D03*
G04 #@! TD*
G04 #@! TO.C,R211*
X130750000Y-47500000D03*
X132750000Y-47500000D03*
G04 #@! TD*
D12*
G04 #@! TO.C,R212*
X129000000Y-46500000D03*
X129000000Y-48500000D03*
G04 #@! TD*
D15*
G04 #@! TO.C,R213*
X125250000Y-48000000D03*
X127250000Y-48000000D03*
G04 #@! TD*
D12*
G04 #@! TO.C,R214*
X140000000Y-50250000D03*
X140000000Y-48250000D03*
G04 #@! TD*
G04 #@! TO.C,R215*
X139750000Y-58250000D03*
X139750000Y-56250000D03*
G04 #@! TD*
D15*
G04 #@! TO.C,R223*
X180850000Y-98257456D03*
X182850000Y-98257456D03*
G04 #@! TD*
D12*
G04 #@! TO.C,R226*
X166050000Y-61450000D03*
X166050000Y-59450000D03*
G04 #@! TD*
D19*
G04 #@! TO.C,U13*
X173025000Y-100150000D03*
X173025000Y-99500000D03*
X173025000Y-98850000D03*
X173025000Y-98200000D03*
X178925000Y-98200000D03*
X178925000Y-98850000D03*
X178925000Y-99500000D03*
X178925000Y-100150000D03*
G04 #@! TD*
D12*
G04 #@! TO.C,C66*
X165150000Y-65800000D03*
X165150000Y-67800000D03*
G04 #@! TD*
G04 #@! TO.C,R224*
X163150000Y-65800000D03*
X163150000Y-67800000D03*
G04 #@! TD*
G04 #@! TO.C,R225*
X167125000Y-67800000D03*
X167125000Y-65800000D03*
G04 #@! TD*
G04 #@! TO.C,R227*
X161125000Y-65775000D03*
X161125000Y-67775000D03*
G04 #@! TD*
G04 #@! TO.C,R228*
X186800000Y-59600000D03*
X186800000Y-57600000D03*
G04 #@! TD*
G04 #@! TO.C,R229*
X188750000Y-57600000D03*
X188750000Y-59600000D03*
G04 #@! TD*
D15*
G04 #@! TO.C,C62*
X183200000Y-71200000D03*
X185200000Y-71200000D03*
G04 #@! TD*
D12*
G04 #@! TO.C,C63*
X186200000Y-82000000D03*
X186200000Y-80000000D03*
G04 #@! TD*
D15*
G04 #@! TO.C,R1*
X126400000Y-100000000D03*
X128400000Y-100000000D03*
G04 #@! TD*
G04 #@! TO.C,R2*
X128400000Y-101800000D03*
X126400000Y-101800000D03*
G04 #@! TD*
D12*
G04 #@! TO.C,R216*
X127600000Y-96200000D03*
X127600000Y-98200000D03*
G04 #@! TD*
D15*
G04 #@! TO.C,R217*
X122200000Y-96400000D03*
X120200000Y-96400000D03*
G04 #@! TD*
D12*
G04 #@! TO.C,R218*
X115600000Y-98600000D03*
X115600000Y-100600000D03*
G04 #@! TD*
G04 #@! TO.C,R219*
X140200000Y-99600000D03*
X140200000Y-97600000D03*
G04 #@! TD*
G04 #@! TO.C,R220*
X136200000Y-99600000D03*
X136200000Y-97600000D03*
G04 #@! TD*
G04 #@! TO.C,R221*
X138200000Y-97600000D03*
X138200000Y-99600000D03*
G04 #@! TD*
G04 #@! TO.C,R222*
X132400000Y-92800000D03*
X132400000Y-90800000D03*
G04 #@! TD*
D15*
G04 #@! TO.C,R231*
X137800000Y-86400000D03*
X135800000Y-86400000D03*
G04 #@! TD*
G04 #@! TO.C,R232*
X167600000Y-95600000D03*
X165600000Y-95600000D03*
G04 #@! TD*
D12*
G04 #@! TO.C,R233*
X162000000Y-97600000D03*
X162000000Y-99600000D03*
G04 #@! TD*
G04 #@! TO.C,R234*
X160000000Y-98000000D03*
X160000000Y-96000000D03*
G04 #@! TD*
G04 #@! TO.C,R235*
X159400000Y-91400000D03*
X159400000Y-93400000D03*
G04 #@! TD*
D15*
G04 #@! TO.C,R236*
X161600000Y-85000000D03*
X163600000Y-85000000D03*
G04 #@! TD*
D12*
G04 #@! TO.C,R237*
X189250000Y-86000000D03*
X189250000Y-84000000D03*
G04 #@! TD*
G04 #@! TO.C,R238*
X190500000Y-71000000D03*
X190500000Y-73000000D03*
G04 #@! TD*
D19*
G04 #@! TO.C,U12*
X124150000Y-98625000D03*
X124150000Y-99275000D03*
X124150000Y-99925000D03*
X124150000Y-100575000D03*
X118250000Y-100575000D03*
X118250000Y-99925000D03*
X118250000Y-99275000D03*
X118250000Y-98625000D03*
G04 #@! TD*
D11*
G04 #@! TO.C,U14*
X136775000Y-88850000D03*
X136125000Y-88850000D03*
X135475000Y-88850000D03*
X134825000Y-88850000D03*
X134825000Y-94750000D03*
X135475000Y-94750000D03*
X136125000Y-94750000D03*
X136775000Y-94750000D03*
G04 #@! TD*
G04 #@! TO.C,U15*
X163375000Y-88850000D03*
X162725000Y-88850000D03*
X162075000Y-88850000D03*
X161425000Y-88850000D03*
X161425000Y-94750000D03*
X162075000Y-94750000D03*
X162725000Y-94750000D03*
X163375000Y-94750000D03*
G04 #@! TD*
G04 #@! TO.C,U16*
X190225000Y-82200000D03*
X189575000Y-82200000D03*
X188925000Y-82200000D03*
X188275000Y-82200000D03*
X188275000Y-76300000D03*
X188925000Y-76300000D03*
X189575000Y-76300000D03*
X190225000Y-76300000D03*
G04 #@! TD*
D17*
G04 #@! TO.C,C61*
X184750000Y-74150000D03*
X184750000Y-77750000D03*
G04 #@! TD*
D15*
G04 #@! TO.C,R189*
X166900000Y-64100000D03*
X164900000Y-64100000D03*
G04 #@! TD*
D12*
G04 #@! TO.C,R190*
X151800000Y-141400000D03*
X151800000Y-143400000D03*
G04 #@! TD*
G04 #@! TO.C,R191*
X141400000Y-109800000D03*
X141400000Y-107800000D03*
G04 #@! TD*
G04 #@! TO.C,R192*
X119000000Y-145200000D03*
X119000000Y-147200000D03*
G04 #@! TD*
G04 #@! TO.C,R193*
X184800000Y-143800000D03*
X184800000Y-141800000D03*
G04 #@! TD*
G04 #@! TO.C,R194*
X116600000Y-108600000D03*
X116600000Y-106600000D03*
G04 #@! TD*
G04 #@! TO.C,R230*
X172600000Y-109600000D03*
X172600000Y-111600000D03*
G04 #@! TD*
G04 #@! TO.C,R239*
X108050000Y-137050000D03*
X108050000Y-135050000D03*
G04 #@! TD*
G04 #@! TO.C,R240*
X116100000Y-143350000D03*
X116100000Y-145350000D03*
G04 #@! TD*
G04 #@! TO.C,R245*
X125000000Y-142400000D03*
X125000000Y-144400000D03*
G04 #@! TD*
G04 #@! TO.C,R246*
X133950000Y-140750000D03*
X133950000Y-142750000D03*
G04 #@! TD*
D15*
G04 #@! TO.C,R247*
X170800000Y-141200000D03*
X168800000Y-141200000D03*
G04 #@! TD*
D12*
G04 #@! TO.C,R248*
X176850000Y-139400000D03*
X176850000Y-137400000D03*
G04 #@! TD*
D21*
G04 #@! TO.C,D3*
X131150000Y-127350000D03*
X131150000Y-130650000D03*
G04 #@! TD*
G04 #@! TO.C,D4*
X131200000Y-125650000D03*
X131200000Y-122350000D03*
G04 #@! TD*
G04 #@! TO.C,D5*
X132200000Y-119900000D03*
X132200000Y-116600000D03*
G04 #@! TD*
G04 #@! TO.C,D6*
X168000000Y-117350000D03*
X168000000Y-120650000D03*
G04 #@! TD*
G04 #@! TO.C,D7*
X189750000Y-122150000D03*
X189750000Y-118850000D03*
G04 #@! TD*
G04 #@! TO.C,D56*
X137500000Y-50850000D03*
X137500000Y-54150000D03*
G04 #@! TD*
G04 #@! TO.C,D57*
X134750000Y-54150000D03*
X134750000Y-50850000D03*
G04 #@! TD*
D22*
G04 #@! TO.C,D59*
X167200000Y-98275000D03*
X163900000Y-98275000D03*
G04 #@! TD*
D12*
G04 #@! TO.C,R249*
X191300000Y-86100000D03*
X191300000Y-84100000D03*
G04 #@! TD*
G04 #@! TO.C,R250*
X182200000Y-100050000D03*
X182200000Y-102050000D03*
G04 #@! TD*
G04 #@! TO.C,R241*
X116200000Y-116000000D03*
X116200000Y-114000000D03*
G04 #@! TD*
D15*
G04 #@! TO.C,R242*
X107600000Y-113050000D03*
X109600000Y-113050000D03*
G04 #@! TD*
G04 #@! TO.C,R243*
X127450000Y-105350000D03*
X129450000Y-105350000D03*
G04 #@! TD*
G04 #@! TO.C,R244*
X128100000Y-107350000D03*
X126100000Y-107350000D03*
G04 #@! TD*
M02*
