M48
;DRILL file {KiCad (6.0.0-rc1-dev-1122-gbe0935b)} date Fri Nov  2 12:34:23 2018
;FORMAT={-:-/ absolute / metric / decimal}
FMAT,2
METRIC
T1C0.254
T2C0.500
T3C0.762
T4C0.800
T5C0.850
T6C0.900
T7C1.000
T8C1.300
T9C2.800
%
G90
G05
M71
T1
X107.65Y-126.15
X108.0Y-124.9
X108.25Y-133.5
X108.5Y-111.5
X108.75Y-128.75
X108.95Y-136.15
X109.5Y-130.0
X109.6Y-105.2
X110.1Y-137.8
X110.5Y-129.5
X110.75Y-97.25
X112.0Y-134.306
X112.0Y-137.8
X112.925Y-124.762
X113.1Y-149.8
X113.25Y-138.25
X113.3Y-74.2
X114.0Y-137.75
X114.0Y-139.5
X114.0Y-152.5
X114.25Y-129.5
X114.4Y-85.0
X114.5Y-74.25
X114.8Y-107.3
X114.95Y-68.8
X115.0Y-69.75
X115.1Y-133.3
X115.1Y-143.3
X115.25Y-134.5
X115.45Y-144.55
X115.8Y-97.8
X116.2Y-88.5
X116.25Y-81.5
X116.25Y-86.5
X116.5Y-136.694
X117.0Y-78.3
X117.25Y-122.25
X117.25Y-113.0
X117.5Y-119.5
X117.5Y-126.15
X117.5Y-132.95
X117.5Y-141.5
X117.5Y-142.5
X117.694Y-96.589
X118.0Y-88.6
X118.0Y-113.25
X118.094Y-115.985
X118.2Y-101.4
X118.226Y-97.163
X118.25Y-128.75
X118.3Y-132.95
X118.4Y-97.8
X118.5Y-136.694
X118.7Y-111.0
X118.9Y-82.7
X119.114Y-85.011
X119.55Y-103.35
X120.0Y-118.75
X120.5Y-115.0
X120.6Y-143.0
X120.75Y-127.75
X120.75Y-141.0
X120.8Y-140.3
X120.9Y-110.4
X120.95Y-113.6
X121.0Y-75.75
X121.0Y-104.0
X121.25Y-82.75
X121.25Y-153.25
X121.45Y-136.8
X121.5Y-121.5
X121.5Y-124.25
X122.0Y-147.6
X122.05Y-126.3
X122.5Y-132.608
X122.75Y-143.5
X122.8Y-107.3
X123.0Y-104.0
X123.25Y-140.75
X123.25Y-147.0
X123.5Y-129.5
X123.5Y-134.25
X123.6Y-137.516
X123.833Y-97.65
X123.9Y-126.0
X124.3Y-147.65
X124.35Y-82.95
X124.4Y-49.9
X124.4Y-85.658
X124.5Y-88.5
X124.5Y-108.0
X124.6Y-102.2
X125.0Y-121.75
X125.0Y-150.0
X125.2Y-46.9
X125.25Y-151.5
X125.3Y-133.694
X125.4Y-100.0
X125.4Y-100.8
X125.5Y-96.5
X125.5Y-153.5
X126.0Y-111.25
X126.0Y-147.1
X126.068Y-69.683
X126.2Y-108.5
X126.708Y-112.192
X127.108Y-97.2
X127.25Y-113.25
X127.25Y-129.032
X127.75Y-81.5
X127.929Y-69.971
X128.0Y-147.1
X128.5Y-119.75
X128.5Y-129.032
X129.0Y-71.6
X129.0Y-121.75
X129.15Y-107.55
X129.5Y-74.4
X129.5Y-129.032
X129.8Y-56.9
X130.0Y-69.2
X130.15Y-107.35
X130.25Y-134.5
X130.75Y-112.75
X130.8Y-99.6
X130.8Y-106.8
X131.0Y-71.85
X131.0Y-135.5
X131.1Y-84.8
X131.2Y-102.4
X131.2Y-124.25
X131.2Y-137.1
X131.25Y-74.45
X131.4Y-109.6
X132.2Y-68.0
X132.75Y-63.75
X132.75Y-66.5
X132.8Y-88.4
X133.0Y-84.5
X133.0Y-121.1
X133.4Y-94.8
X133.5Y-114.5
X133.5Y-118.0
X133.8Y-85.658
X134.0Y-59.5
X134.8Y-86.744
X135.1Y-76.7
X135.6Y-96.6
X135.9Y-78.727
X136.1Y-75.9
X136.15Y-69.1
X136.2Y-72.8
X137.0Y-59.5
X137.7Y-72.8
X138.5Y-72.5
X138.5Y-95.0
X138.8Y-89.0
X139.0Y-63.75
X139.2Y-72.6
X139.3Y-129.692
X139.317Y-68.977
X140.0Y-96.4
X140.0Y-124.29
X140.283Y-68.6
X140.283Y-69.6
X140.8Y-74.5
X140.9Y-56.3
X141.1Y-71.6
X141.2Y-49.2
X141.5Y-105.5
X141.7Y-140.5
X141.9Y-84.8
X142.0Y-121.3
X142.0Y-136.75
X142.45Y-74.5
X142.5Y-146.4
X142.5Y-147.3
X142.5Y-148.3
X142.5Y-149.3
X142.5Y-150.3
X142.6Y-56.0
X142.85Y-144.85
X143.0Y-109.8
X143.1Y-145.8
X143.3Y-128.8
X143.5Y-147.5
X143.65Y-129.692
X143.7Y-126.7
X143.75Y-107.1
X143.75Y-120.25
X144.1Y-145.8
X144.2Y-70.8
X144.25Y-81.45
X144.25Y-86.65
X144.25Y-88.5
X144.78Y-132.715
X144.955Y-129.692
X145.0Y-99.0
X145.0Y-144.0
X145.1Y-78.3
X145.1Y-145.8
X145.25Y-92.75
X145.75Y-91.75
X145.75Y-110.5
X145.75Y-117.5
X145.9Y-125.953
X146.0Y-114.7
X146.0Y-136.95
X146.4Y-131.4
X146.75Y-121.25
X146.9Y-143.8
X147.0Y-85.2
X147.1Y-82.7
X147.15Y-124.9
X147.25Y-108.75
X147.425Y-132.979
X147.5Y-105.0
X147.5Y-116.75
X147.5Y-137.0
X147.5Y-139.2
X147.75Y-102.0
X148.75Y-125.0
X149.0Y-75.8
X149.25Y-117.25
X149.35Y-139.15
X149.4Y-113.9
X149.4Y-129.2
X149.5Y-103.75
X149.63Y-115.98
X150.0Y-132.55
X150.0Y-137.0
X150.05Y-144.3
X150.75Y-83.5
X150.75Y-116.0
X151.3Y-120.3
X152.0Y-136.75
X152.5Y-88.5
X152.65Y-71.6
X152.75Y-129.3
X152.85Y-80.15
X153.05Y-128.65
X153.5Y-73.75
X153.7Y-131.5
X153.75Y-86.75
X154.0Y-136.75
X154.1Y-76.4
X154.25Y-92.0
X154.75Y-130.75
X154.85Y-100.65
X155.0Y-104.75
X155.25Y-130.05
X155.75Y-77.25
X155.8Y-81.5
X156.1Y-134.5
X157.0Y-68.8
X157.0Y-69.75
X157.15Y-131.15
X157.4Y-144.8
X157.6Y-74.4
X158.0Y-84.8
X158.4Y-143.0
X158.522Y-131.601
X158.7Y-151.5
X158.75Y-123.25
X158.95Y-99.75
X159.0Y-74.4
X159.0Y-111.95
X160.25Y-69.25
X160.4Y-85.658
X160.5Y-56.7
X160.6Y-63.8
X160.6Y-94.8
X160.6Y-99.0
X160.7Y-82.5
X160.883Y-88.8
X161.0Y-75.25
X161.2Y-76.4
X161.25Y-69.25
X161.3Y-87.1
X161.4Y-72.6
X161.4Y-96.4
X161.5Y-59.25
X162.0Y-71.6
X162.35Y-60.85
X162.75Y-64.5
X163.208Y-86.6
X163.75Y-131.75
X164.0Y-88.4
X164.349Y-96.483
X164.9Y-59.4
X165.0Y-83.75
X165.2Y-62.5
X165.2Y-68.6
X165.25Y-101.75
X165.5Y-94.2
X165.5Y-131.75
X166.9Y-74.5
X167.1Y-68.6
X167.2Y-76.8
X167.2Y-94.4
X167.2Y-102.1
X167.6Y-140.8
X167.751Y-97.281
X168.0Y-72.6
X168.117Y-100.2
X168.2Y-68.6
X168.2Y-89.8
X168.255Y-69.258
X168.7Y-65.0
X168.7Y-74.5
X168.9Y-71.6
X169.191Y-128.191
X169.304Y-99.25
X169.304Y-111.75
X170.0Y-115.0
X170.1Y-84.7
X170.2Y-100.2
X170.3Y-74.5
X170.5Y-59.5
X170.5Y-132.25
X171.29Y-96.8
X171.5Y-99.308
X171.5Y-107.5
X171.75Y-123.0
X171.9Y-76.05
X172.2Y-81.5
X172.3Y-86.5
X172.5Y-114.75
X173.0Y-78.4
X173.0Y-89.5
X173.25Y-105.0
X173.25Y-154.25
X173.3Y-150.6
X173.5Y-96.25
X173.5Y-121.0
X173.5Y-127.75
X173.5Y-147.75
X173.75Y-92.0
X173.75Y-141.5
X174.0Y-69.75
X174.5Y-101.75
X174.5Y-127.694
X174.5Y-129.25
X174.75Y-103.75
X174.75Y-146.75
X175.05Y-85.2
X175.2Y-69.0
X175.3Y-82.8
X175.5Y-123.0
X175.6Y-95.5
X175.65Y-125.85
X175.7Y-115.848
X176.0Y-88.5
X176.0Y-122.4
X176.25Y-102.0
X176.6Y-140.25
X176.75Y-89.25
X176.75Y-114.0
X176.85Y-136.55
X177.0Y-75.7
X177.0Y-133.3
X177.0Y-145.0
X177.1Y-107.5
X177.5Y-136.0
X177.75Y-85.0
X178.0Y-50.4
X178.4Y-144.1
X178.6Y-151.5
X178.75Y-83.5
X178.75Y-139.5
X179.0Y-133.3
X179.25Y-117.0
X179.25Y-121.25
X180.141Y-102.059
X180.25Y-109.5
X180.25Y-121.25
X180.25Y-124.75
X180.25Y-143.5
X180.4Y-75.6
X180.4Y-131.4
X180.6Y-47.8
X180.95Y-80.2
X181.0Y-71.6
X181.25Y-115.5
X181.25Y-122.5
X181.5Y-113.0
X181.6Y-102.9
X182.0Y-69.5
X182.0Y-89.25
X182.1Y-70.85
X182.4Y-146.8
X182.6Y-96.8
X183.0Y-58.6
X183.0Y-91.25
X183.2Y-78.083
X183.25Y-75.0
X183.25Y-126.0
X183.25Y-130.75
X183.4Y-73.2
X183.5Y-95.5
X183.6Y-70.0
X183.6Y-98.3
X183.8Y-81.5
X183.991Y-122.949
X184.1Y-123.6
X184.3Y-68.9
X184.5Y-102.5
X184.8Y-130.1
X184.9Y-151.5
X185.05Y-58.95
X185.05Y-60.45
X185.05Y-69.95
X185.3Y-98.7
X185.5Y-119.25
X185.9Y-48.2
X186.0Y-54.1
X186.35Y-104.8
X186.35Y-152.85
X186.391Y-74.658
X186.4Y-56.8
X186.4Y-84.7
X186.5Y-130.25
X186.6Y-47.7
X187.2Y-79.4
X187.3Y-48.2
X187.3Y-50.431
X187.3Y-56.3
X187.3Y-69.3
X187.5Y-60.929
X187.5Y-74.467
X187.5Y-82.75
X187.5Y-86.15
X187.9Y-47.7
X188.5Y-54.0
X188.6Y-48.2
X188.8Y-56.3
X189.0Y-78.083
X189.2Y-86.95
X189.45Y-60.65
X189.8Y-57.6
X190.25Y-75.0
X190.6Y-70.2
X190.71Y-58.526
X190.75Y-54.25
X191.0Y-77.4
X191.3Y-51.8
X191.911Y-75.655
X192.7Y-69.3
X192.7Y-86.15
X192.7Y-104.8
X192.9Y-49.2
T3
X124.96Y-117.54
X127.5Y-115.0
X130.04Y-117.54
X127.0Y-141.5
X129.54Y-144.04
X132.08Y-141.5
X108.92Y-141.5
X111.46Y-144.04
X114.0Y-141.5
X183.81Y-110.24
X186.35Y-107.7
X188.89Y-110.24
X108.96Y-117.54
X111.5Y-115.0
X114.04Y-117.54
X169.42Y-135.0
X171.96Y-137.54
X174.5Y-135.0
T4
X130.5Y-89.55
X130.5Y-95.95
X158.25Y-89.55
X158.25Y-95.95
X169.75Y-89.55
X169.75Y-95.95
X168.5Y-147.0
X168.5Y-149.0
X186.25Y-89.55
X186.25Y-95.95
X164.0Y-76.05
X164.0Y-82.45
X141.5Y-89.55
X141.5Y-95.95
X132.0Y-147.0
X132.0Y-149.0
X113.5Y-89.55
X113.5Y-95.95
T5
X110.0Y-151.0
X150.0Y-127.0
X190.0Y-151.0
X110.0Y-103.0
X190.0Y-103.0
T6
X147.5Y-91.5
X150.0Y-91.5
X152.5Y-91.5
X175.5Y-91.5
X178.0Y-91.5
X180.5Y-91.5
X119.5Y-91.5
X122.0Y-91.5
X124.5Y-91.5
T7
X136.0Y-122.16
X138.54Y-122.16
X136.0Y-131.84
X138.54Y-131.84
X135.87Y-134.38
X135.87Y-139.46
X135.87Y-144.54
X135.87Y-149.62
X136.13Y-136.92
X136.13Y-142.0
X136.13Y-147.08
X133.333Y-104.38
X133.333Y-109.46
X133.587Y-106.92
X133.587Y-112.0
X138.41Y-106.92
X138.41Y-112.0
X138.41Y-117.08
X138.67Y-104.38
X138.67Y-109.46
X138.67Y-114.54
X138.67Y-119.62
X135.87Y-104.38
X135.87Y-109.46
X135.87Y-114.54
X135.87Y-119.62
X136.13Y-106.92
X136.13Y-112.0
X136.13Y-117.08
X161.33Y-136.92
X161.33Y-142.0
X161.33Y-147.08
X161.59Y-134.38
X161.59Y-139.46
X161.59Y-144.54
X161.59Y-149.62
X163.87Y-104.38
X163.87Y-109.46
X163.87Y-114.54
X163.87Y-119.62
X164.13Y-106.92
X164.13Y-112.0
X164.13Y-117.08
X161.59Y-122.16
X164.13Y-122.16
X161.33Y-106.92
X161.33Y-112.0
X161.33Y-117.08
X161.59Y-104.38
X161.59Y-109.46
X161.59Y-114.54
X161.59Y-119.62
X138.41Y-136.92
X138.41Y-142.0
X138.41Y-147.08
X138.67Y-134.38
X138.67Y-139.46
X138.67Y-144.54
X138.67Y-149.62
X163.87Y-134.38
X163.87Y-139.46
X163.87Y-144.54
X163.87Y-149.62
X164.13Y-136.92
X164.13Y-142.0
X164.13Y-147.08
X144.92Y-148.46
X144.92Y-151.0
X147.46Y-148.46
X147.46Y-151.0
X150.0Y-148.46
X150.0Y-151.0
X152.54Y-148.46
X152.54Y-151.0
X155.08Y-148.46
X155.08Y-151.0
X166.413Y-134.38
X166.413Y-139.46
X166.667Y-136.92
X166.667Y-142.0
T9
X164.0Y-127.0
X164.0Y-127.0
X136.0Y-127.0
X136.0Y-127.0
T2
G00X149.15Y-48.1
M15
G01X150.85Y-48.1
M16
G05
G00X149.15Y-56.3
M15
G01X150.85Y-56.3
M16
G05
G00X177.15Y-48.1
M15
G01X178.85Y-48.1
M16
G05
G00X177.15Y-56.3
M15
G01X178.85Y-56.3
M16
G05
G00X121.15Y-62.1
M15
G01X122.85Y-62.1
M16
G05
G00X121.15Y-70.3
M15
G01X122.85Y-70.3
M16
G05
G00X149.15Y-62.1
M15
G01X150.85Y-62.1
M16
G05
G00X149.15Y-70.3
M15
G01X150.85Y-70.3
M16
G05
G00X135.15Y-48.1
M15
G01X136.85Y-48.1
M16
G05
G00X135.15Y-56.3
M15
G01X136.85Y-56.3
M16
G05
G00X121.15Y-48.1
M15
G01X122.85Y-48.1
M16
G05
G00X121.15Y-56.3
M15
G01X122.85Y-56.3
M16
G05
G00X163.15Y-48.1
M15
G01X164.85Y-48.1
M16
G05
G00X163.15Y-56.3
M15
G01X164.85Y-56.3
M16
G05
G00X177.15Y-62.1
M15
G01X178.85Y-62.1
M16
G05
G00X177.15Y-70.3
M15
G01X178.85Y-70.3
M16
G05
T4
G00X131.3Y-52.3
M15
G01X131.3Y-53.7
M16
G05
G00X140.7Y-52.9
M15
G01X140.7Y-53.5
M16
G05
G00X117.3Y-52.3
M15
G01X117.3Y-53.7
M16
G05
G00X126.7Y-52.9
M15
G01X126.7Y-53.5
M16
G05
G00X159.3Y-52.3
M15
G01X159.3Y-53.7
M16
G05
G00X168.7Y-52.9
M15
G01X168.7Y-53.5
M16
G05
G00X173.3Y-66.3
M15
G01X173.3Y-67.7
M16
G05
G00X182.7Y-66.9
M15
G01X182.7Y-67.5
M16
G05
G00X145.3Y-52.3
M15
G01X145.3Y-53.7
M16
G05
G00X154.7Y-52.9
M15
G01X154.7Y-53.5
M16
G05
G00X173.3Y-52.3
M15
G01X173.3Y-53.7
M16
G05
G00X182.7Y-52.9
M15
G01X182.7Y-53.5
M16
G05
G00X117.3Y-66.3
M15
G01X117.3Y-67.7
M16
G05
G00X126.7Y-66.9
M15
G01X126.7Y-67.5
M16
G05
G00X145.3Y-66.3
M15
G01X145.3Y-67.7
M16
G05
G00X154.7Y-66.9
M15
G01X154.7Y-67.5
M16
G05
T8
G00X145.1Y-84.0
M15
G01X145.8Y-84.0
M16
G05
G00X154.2Y-84.0
M15
G01X154.9Y-84.0
M16
G05
G00X173.1Y-84.0
M15
G01X173.8Y-84.0
M16
G05
G00X182.2Y-84.0
M15
G01X182.9Y-84.0
M16
G05
G00X117.1Y-84.0
M15
G01X117.8Y-84.0
M16
G05
G00X126.2Y-84.0
M15
G01X126.9Y-84.0
M16
G05
T0
M30
