G04 #@! TF.GenerationSoftware,KiCad,Pcbnew,(6.0.0-rc1-dev-1122-gbe0935b)*
G04 #@! TF.CreationDate,2018-11-02T12:34:24-07:00*
G04 #@! TF.ProjectId,50_matter2_comp,35305f6d-6174-4746-9572-325f636f6d70,rev?*
G04 #@! TF.SameCoordinates,Original*
G04 #@! TF.FileFunction,Other,Comment*
%FSLAX46Y46*%
G04 Gerber Fmt 4.6, Leading zero omitted, Abs format (unit mm)*
G04 Created by KiCad (PCBNEW (6.0.0-rc1-dev-1122-gbe0935b)) date Fri Nov  2 12:34:24 2018*
%MOMM*%
%LPD*%
G01*
G04 APERTURE LIST*
%ADD10C,2.000000*%
%ADD11C,1.250000*%
%ADD12C,0.750000*%
G04 APERTURE END LIST*
D10*
G04 #@! TO.C,LABEL1*
X328450000Y-83500000D02*
X328450000Y20500000D01*
X328450000Y-83500000D02*
X206924283Y-83500000D01*
X206924283Y20501081D02*
X206924283Y-83500000D01*
X206924283Y20501081D02*
X328450000Y20501081D01*
G04 #@! TD*
G04 #@! TO.C,LABEL1*
D11*
X222902380Y5238095D02*
X222902380Y10238095D01*
X224569047Y6666666D01*
X226235714Y10238095D01*
X226235714Y5238095D01*
X228378571Y6666666D02*
X230759523Y6666666D01*
X227902380Y5238095D02*
X229569047Y10238095D01*
X231235714Y5238095D01*
X232902380Y5238095D02*
X232902380Y10238095D01*
X235759523Y5238095D01*
X235759523Y10238095D01*
X238140476Y10238095D02*
X238140476Y6190476D01*
X238378571Y5714285D01*
X238616666Y5476190D01*
X239092857Y5238095D01*
X240045238Y5238095D01*
X240521428Y5476190D01*
X240759523Y5714285D01*
X240997619Y6190476D01*
X240997619Y10238095D01*
X245045238Y7857142D02*
X243378571Y7857142D01*
X243378571Y5238095D02*
X243378571Y10238095D01*
X245759523Y10238095D01*
X247426190Y6666666D02*
X249807142Y6666666D01*
X246950000Y5238095D02*
X248616666Y10238095D01*
X250283333Y5238095D01*
X254807142Y5714285D02*
X254569047Y5476190D01*
X253854761Y5238095D01*
X253378571Y5238095D01*
X252664285Y5476190D01*
X252188095Y5952380D01*
X251950000Y6428571D01*
X251711904Y7380952D01*
X251711904Y8095238D01*
X251950000Y9047619D01*
X252188095Y9523809D01*
X252664285Y10000000D01*
X253378571Y10238095D01*
X253854761Y10238095D01*
X254569047Y10000000D01*
X254807142Y9761904D01*
X256235714Y10238095D02*
X259092857Y10238095D01*
X257664285Y5238095D02*
X257664285Y10238095D01*
X260759523Y10238095D02*
X260759523Y6190476D01*
X260997619Y5714285D01*
X261235714Y5476190D01*
X261711904Y5238095D01*
X262664285Y5238095D01*
X263140476Y5476190D01*
X263378571Y5714285D01*
X263616666Y6190476D01*
X263616666Y10238095D01*
X268854761Y5238095D02*
X267188095Y7619047D01*
X265997619Y5238095D02*
X265997619Y10238095D01*
X267902380Y10238095D01*
X268378571Y10000000D01*
X268616666Y9761904D01*
X268854761Y9285714D01*
X268854761Y8571428D01*
X268616666Y8095238D01*
X268378571Y7857142D01*
X267902380Y7619047D01*
X265997619Y7619047D01*
X270997619Y5238095D02*
X270997619Y10238095D01*
X273378571Y5238095D02*
X273378571Y10238095D01*
X276235714Y5238095D01*
X276235714Y10238095D01*
X281235714Y10000000D02*
X280759523Y10238095D01*
X280045238Y10238095D01*
X279330952Y10000000D01*
X278854761Y9523809D01*
X278616666Y9047619D01*
X278378571Y8095238D01*
X278378571Y7380952D01*
X278616666Y6428571D01*
X278854761Y5952380D01*
X279330952Y5476190D01*
X280045238Y5238095D01*
X280521428Y5238095D01*
X281235714Y5476190D01*
X281473809Y5714285D01*
X281473809Y7380952D01*
X280521428Y7380952D01*
X287426190Y5238095D02*
X287426190Y10238095D01*
X290283333Y5238095D01*
X290283333Y10238095D01*
X293616666Y10238095D02*
X294569047Y10238095D01*
X295045238Y10000000D01*
X295521428Y9523809D01*
X295759523Y8571428D01*
X295759523Y6904761D01*
X295521428Y5952380D01*
X295045238Y5476190D01*
X294569047Y5238095D01*
X293616666Y5238095D01*
X293140476Y5476190D01*
X292664285Y5952380D01*
X292426190Y6904761D01*
X292426190Y8571428D01*
X292664285Y9523809D01*
X293140476Y10000000D01*
X293616666Y10238095D01*
X297188095Y10238095D02*
X300045238Y10238095D01*
X298616666Y5238095D02*
X298616666Y10238095D01*
X301711904Y7857142D02*
X303378571Y7857142D01*
X304092857Y5238095D02*
X301711904Y5238095D01*
X301711904Y10238095D01*
X304092857Y10238095D01*
X305997619Y5476190D02*
X306711904Y5238095D01*
X307902380Y5238095D01*
X308378571Y5476190D01*
X308616666Y5714285D01*
X308854761Y6190476D01*
X308854761Y6666666D01*
X308616666Y7142857D01*
X308378571Y7380952D01*
X307902380Y7619047D01*
X306950000Y7857142D01*
X306473809Y8095238D01*
X306235714Y8333333D01*
X305997619Y8809523D01*
X305997619Y9285714D01*
X306235714Y9761904D01*
X306473809Y10000000D01*
X306950000Y10238095D01*
X308140476Y10238095D01*
X308854761Y10000000D01*
X310997619Y5714285D02*
X311235714Y5476190D01*
X310997619Y5238095D01*
X310759523Y5476190D01*
X310997619Y5714285D01*
X310997619Y5238095D01*
X310997619Y8333333D02*
X311235714Y8095238D01*
X310997619Y7857142D01*
X310759523Y8095238D01*
X310997619Y8333333D01*
X310997619Y7857142D01*
X237188095Y-39523809D02*
X237902380Y-39761904D01*
X239092857Y-39761904D01*
X239569047Y-39523809D01*
X239807142Y-39285714D01*
X240045238Y-38809523D01*
X240045238Y-38333333D01*
X239807142Y-37857142D01*
X239569047Y-37619047D01*
X239092857Y-37380952D01*
X238140476Y-37142857D01*
X237664285Y-36904761D01*
X237426190Y-36666666D01*
X237188095Y-36190476D01*
X237188095Y-35714285D01*
X237426190Y-35238095D01*
X237664285Y-35000000D01*
X238140476Y-34761904D01*
X239330952Y-34761904D01*
X240045238Y-35000000D01*
X242188095Y-39761904D02*
X242188095Y-34761904D01*
X244092857Y-34761904D01*
X244569047Y-35000000D01*
X244807142Y-35238095D01*
X245045238Y-35714285D01*
X245045238Y-36428571D01*
X244807142Y-36904761D01*
X244569047Y-37142857D01*
X244092857Y-37380952D01*
X242188095Y-37380952D01*
X247188095Y-37142857D02*
X248854761Y-37142857D01*
X249569047Y-39761904D02*
X247188095Y-39761904D01*
X247188095Y-34761904D01*
X249569047Y-34761904D01*
X254569047Y-39285714D02*
X254330952Y-39523809D01*
X253616666Y-39761904D01*
X253140476Y-39761904D01*
X252426190Y-39523809D01*
X251950000Y-39047619D01*
X251711904Y-38571428D01*
X251473809Y-37619047D01*
X251473809Y-36904761D01*
X251711904Y-35952380D01*
X251950000Y-35476190D01*
X252426190Y-35000000D01*
X253140476Y-34761904D01*
X253616666Y-34761904D01*
X254330952Y-35000000D01*
X254569047Y-35238095D01*
X256711904Y-39761904D02*
X256711904Y-34761904D01*
X260759523Y-37142857D02*
X259092857Y-37142857D01*
X259092857Y-39761904D02*
X259092857Y-34761904D01*
X261473809Y-34761904D01*
X263378571Y-39761904D02*
X263378571Y-34761904D01*
X268616666Y-39285714D02*
X268378571Y-39523809D01*
X267664285Y-39761904D01*
X267188095Y-39761904D01*
X266473809Y-39523809D01*
X265997619Y-39047619D01*
X265759523Y-38571428D01*
X265521428Y-37619047D01*
X265521428Y-36904761D01*
X265759523Y-35952380D01*
X265997619Y-35476190D01*
X266473809Y-35000000D01*
X267188095Y-34761904D01*
X267664285Y-34761904D01*
X268378571Y-35000000D01*
X268616666Y-35238095D01*
X270521428Y-38333333D02*
X272902380Y-38333333D01*
X270045238Y-39761904D02*
X271711904Y-34761904D01*
X273378571Y-39761904D01*
X274330952Y-34761904D02*
X277188095Y-34761904D01*
X275759523Y-39761904D02*
X275759523Y-34761904D01*
X278854761Y-39761904D02*
X278854761Y-34761904D01*
X282188095Y-34761904D02*
X283140476Y-34761904D01*
X283616666Y-35000000D01*
X284092857Y-35476190D01*
X284330952Y-36428571D01*
X284330952Y-38095238D01*
X284092857Y-39047619D01*
X283616666Y-39523809D01*
X283140476Y-39761904D01*
X282188095Y-39761904D01*
X281711904Y-39523809D01*
X281235714Y-39047619D01*
X280997619Y-38095238D01*
X280997619Y-36428571D01*
X281235714Y-35476190D01*
X281711904Y-35000000D01*
X282188095Y-34761904D01*
X286473809Y-39761904D02*
X286473809Y-34761904D01*
X289330952Y-39761904D01*
X289330952Y-34761904D01*
X291473809Y-39523809D02*
X292188095Y-39761904D01*
X293378571Y-39761904D01*
X293854761Y-39523809D01*
X294092857Y-39285714D01*
X294330952Y-38809523D01*
X294330952Y-38333333D01*
X294092857Y-37857142D01*
X293854761Y-37619047D01*
X293378571Y-37380952D01*
X292426190Y-37142857D01*
X291950000Y-36904761D01*
X291711904Y-36666666D01*
X291473809Y-36190476D01*
X291473809Y-35714285D01*
X291711904Y-35238095D01*
X291950000Y-35000000D01*
X292426190Y-34761904D01*
X293616666Y-34761904D01*
X294330952Y-35000000D01*
X296473809Y-39285714D02*
X296711904Y-39523809D01*
X296473809Y-39761904D01*
X296235714Y-39523809D01*
X296473809Y-39285714D01*
X296473809Y-39761904D01*
X296473809Y-36666666D02*
X296711904Y-36904761D01*
X296473809Y-37142857D01*
X296235714Y-36904761D01*
X296473809Y-36666666D01*
X296473809Y-37142857D01*
D12*
X240592857Y-44214285D02*
X242878571Y-44214285D01*
X248307142Y-45071428D02*
X248164285Y-45214285D01*
X247735714Y-45357142D01*
X247450000Y-45357142D01*
X247021428Y-45214285D01*
X246735714Y-44928571D01*
X246592857Y-44642857D01*
X246450000Y-44071428D01*
X246450000Y-43642857D01*
X246592857Y-43071428D01*
X246735714Y-42785714D01*
X247021428Y-42500000D01*
X247450000Y-42357142D01*
X247735714Y-42357142D01*
X248164285Y-42500000D01*
X248307142Y-42642857D01*
X250021428Y-45357142D02*
X249735714Y-45214285D01*
X249592857Y-45071428D01*
X249450000Y-44785714D01*
X249450000Y-43928571D01*
X249592857Y-43642857D01*
X249735714Y-43500000D01*
X250021428Y-43357142D01*
X250450000Y-43357142D01*
X250735714Y-43500000D01*
X250878571Y-43642857D01*
X251021428Y-43928571D01*
X251021428Y-44785714D01*
X250878571Y-45071428D01*
X250735714Y-45214285D01*
X250450000Y-45357142D01*
X250021428Y-45357142D01*
X252307142Y-43357142D02*
X252307142Y-46357142D01*
X252307142Y-43500000D02*
X252592857Y-43357142D01*
X253164285Y-43357142D01*
X253450000Y-43500000D01*
X253592857Y-43642857D01*
X253735714Y-43928571D01*
X253735714Y-44785714D01*
X253592857Y-45071428D01*
X253450000Y-45214285D01*
X253164285Y-45357142D01*
X252592857Y-45357142D01*
X252307142Y-45214285D01*
X255021428Y-43357142D02*
X255021428Y-46357142D01*
X255021428Y-43500000D02*
X255307142Y-43357142D01*
X255878571Y-43357142D01*
X256164285Y-43500000D01*
X256307142Y-43642857D01*
X256450000Y-43928571D01*
X256450000Y-44785714D01*
X256307142Y-45071428D01*
X256164285Y-45214285D01*
X255878571Y-45357142D01*
X255307142Y-45357142D01*
X255021428Y-45214285D01*
X258878571Y-45214285D02*
X258592857Y-45357142D01*
X258021428Y-45357142D01*
X257735714Y-45214285D01*
X257592857Y-44928571D01*
X257592857Y-43785714D01*
X257735714Y-43500000D01*
X258021428Y-43357142D01*
X258592857Y-43357142D01*
X258878571Y-43500000D01*
X259021428Y-43785714D01*
X259021428Y-44071428D01*
X257592857Y-44357142D01*
X260307142Y-45357142D02*
X260307142Y-43357142D01*
X260307142Y-43928571D02*
X260450000Y-43642857D01*
X260592857Y-43500000D01*
X260878571Y-43357142D01*
X261164285Y-43357142D01*
X264450000Y-45357142D02*
X264450000Y-42357142D01*
X265592857Y-42357142D01*
X265878571Y-42500000D01*
X266021428Y-42642857D01*
X266164285Y-42928571D01*
X266164285Y-43357142D01*
X266021428Y-43642857D01*
X265878571Y-43785714D01*
X265592857Y-43928571D01*
X264450000Y-43928571D01*
X267878571Y-45357142D02*
X267592857Y-45214285D01*
X267450000Y-45071428D01*
X267307142Y-44785714D01*
X267307142Y-43928571D01*
X267450000Y-43642857D01*
X267592857Y-43500000D01*
X267878571Y-43357142D01*
X268307142Y-43357142D01*
X268592857Y-43500000D01*
X268735714Y-43642857D01*
X268878571Y-43928571D01*
X268878571Y-44785714D01*
X268735714Y-45071428D01*
X268592857Y-45214285D01*
X268307142Y-45357142D01*
X267878571Y-45357142D01*
X271450000Y-43357142D02*
X271450000Y-45357142D01*
X270164285Y-43357142D02*
X270164285Y-44928571D01*
X270307142Y-45214285D01*
X270592857Y-45357142D01*
X271021428Y-45357142D01*
X271307142Y-45214285D01*
X271450000Y-45071428D01*
X272878571Y-45357142D02*
X272878571Y-43357142D01*
X272878571Y-43928571D02*
X273021428Y-43642857D01*
X273164285Y-43500000D01*
X273450000Y-43357142D01*
X273735714Y-43357142D01*
X274735714Y-45071428D02*
X274878571Y-45214285D01*
X274735714Y-45357142D01*
X274592857Y-45214285D01*
X274735714Y-45071428D01*
X274735714Y-45357142D01*
X274735714Y-43500000D02*
X274878571Y-43642857D01*
X274735714Y-43785714D01*
X274592857Y-43642857D01*
X274735714Y-43500000D01*
X274735714Y-43785714D01*
X280021428Y-45357142D02*
X278307142Y-45357142D01*
X279164285Y-45357142D02*
X279164285Y-42357142D01*
X278878571Y-42785714D01*
X278592857Y-43071428D01*
X278307142Y-43214285D01*
X283450000Y-42214285D02*
X280878571Y-46071428D01*
X284307142Y-42642857D02*
X284450000Y-42500000D01*
X284735714Y-42357142D01*
X285450000Y-42357142D01*
X285735714Y-42500000D01*
X285878571Y-42642857D01*
X286021428Y-42928571D01*
X286021428Y-43214285D01*
X285878571Y-43642857D01*
X284164285Y-45357142D01*
X286021428Y-45357142D01*
X290021428Y-45357142D02*
X289735714Y-45214285D01*
X289592857Y-45071428D01*
X289450000Y-44785714D01*
X289450000Y-43928571D01*
X289592857Y-43642857D01*
X289735714Y-43500000D01*
X290021428Y-43357142D01*
X290450000Y-43357142D01*
X290735714Y-43500000D01*
X290878571Y-43642857D01*
X291021428Y-43928571D01*
X291021428Y-44785714D01*
X290878571Y-45071428D01*
X290735714Y-45214285D01*
X290450000Y-45357142D01*
X290021428Y-45357142D01*
X292021428Y-43357142D02*
X293592857Y-43357142D01*
X292021428Y-45357142D01*
X293592857Y-45357142D01*
X243735714Y-49214285D02*
X246021428Y-49214285D01*
X249592857Y-50214285D02*
X250021428Y-50357142D01*
X250735714Y-50357142D01*
X251021428Y-50214285D01*
X251164285Y-50071428D01*
X251307142Y-49785714D01*
X251307142Y-49500000D01*
X251164285Y-49214285D01*
X251021428Y-49071428D01*
X250735714Y-48928571D01*
X250164285Y-48785714D01*
X249878571Y-48642857D01*
X249735714Y-48500000D01*
X249592857Y-48214285D01*
X249592857Y-47928571D01*
X249735714Y-47642857D01*
X249878571Y-47500000D01*
X250164285Y-47357142D01*
X250878571Y-47357142D01*
X251307142Y-47500000D01*
X253021428Y-50357142D02*
X252735714Y-50214285D01*
X252592857Y-50071428D01*
X252450000Y-49785714D01*
X252450000Y-48928571D01*
X252592857Y-48642857D01*
X252735714Y-48500000D01*
X253021428Y-48357142D01*
X253450000Y-48357142D01*
X253735714Y-48500000D01*
X253878571Y-48642857D01*
X254021428Y-48928571D01*
X254021428Y-49785714D01*
X253878571Y-50071428D01*
X253735714Y-50214285D01*
X253450000Y-50357142D01*
X253021428Y-50357142D01*
X255735714Y-50357142D02*
X255450000Y-50214285D01*
X255307142Y-49928571D01*
X255307142Y-47357142D01*
X258164285Y-50357142D02*
X258164285Y-47357142D01*
X258164285Y-50214285D02*
X257878571Y-50357142D01*
X257307142Y-50357142D01*
X257021428Y-50214285D01*
X256878571Y-50071428D01*
X256735714Y-49785714D01*
X256735714Y-48928571D01*
X256878571Y-48642857D01*
X257021428Y-48500000D01*
X257307142Y-48357142D01*
X257878571Y-48357142D01*
X258164285Y-48500000D01*
X260735714Y-50214285D02*
X260450000Y-50357142D01*
X259878571Y-50357142D01*
X259592857Y-50214285D01*
X259450000Y-49928571D01*
X259450000Y-48785714D01*
X259592857Y-48500000D01*
X259878571Y-48357142D01*
X260450000Y-48357142D01*
X260735714Y-48500000D01*
X260878571Y-48785714D01*
X260878571Y-49071428D01*
X259450000Y-49357142D01*
X262164285Y-50357142D02*
X262164285Y-48357142D01*
X262164285Y-48928571D02*
X262307142Y-48642857D01*
X262450000Y-48500000D01*
X262735714Y-48357142D01*
X263021428Y-48357142D01*
X264021428Y-50357142D02*
X264021428Y-48357142D01*
X264021428Y-48642857D02*
X264164285Y-48500000D01*
X264450000Y-48357142D01*
X264878571Y-48357142D01*
X265164285Y-48500000D01*
X265307142Y-48785714D01*
X265307142Y-50357142D01*
X265307142Y-48785714D02*
X265450000Y-48500000D01*
X265735714Y-48357142D01*
X266164285Y-48357142D01*
X266450000Y-48500000D01*
X266592857Y-48785714D01*
X266592857Y-50357142D01*
X269307142Y-50357142D02*
X269307142Y-48785714D01*
X269164285Y-48500000D01*
X268878571Y-48357142D01*
X268307142Y-48357142D01*
X268021428Y-48500000D01*
X269307142Y-50214285D02*
X269021428Y-50357142D01*
X268307142Y-50357142D01*
X268021428Y-50214285D01*
X267878571Y-49928571D01*
X267878571Y-49642857D01*
X268021428Y-49357142D01*
X268307142Y-49214285D01*
X269021428Y-49214285D01*
X269307142Y-49071428D01*
X270592857Y-50214285D02*
X270878571Y-50357142D01*
X271450000Y-50357142D01*
X271735714Y-50214285D01*
X271878571Y-49928571D01*
X271878571Y-49785714D01*
X271735714Y-49500000D01*
X271450000Y-49357142D01*
X271021428Y-49357142D01*
X270735714Y-49214285D01*
X270592857Y-48928571D01*
X270592857Y-48785714D01*
X270735714Y-48500000D01*
X271021428Y-48357142D01*
X271450000Y-48357142D01*
X271735714Y-48500000D01*
X273164285Y-50357142D02*
X273164285Y-47357142D01*
X273450000Y-49214285D02*
X274307142Y-50357142D01*
X274307142Y-48357142D02*
X273164285Y-49500000D01*
X275592857Y-50071428D02*
X275735714Y-50214285D01*
X275592857Y-50357142D01*
X275450000Y-50214285D01*
X275592857Y-50071428D01*
X275592857Y-50357142D01*
X275592857Y-48500000D02*
X275735714Y-48642857D01*
X275592857Y-48785714D01*
X275450000Y-48642857D01*
X275592857Y-48500000D01*
X275592857Y-48785714D01*
X280307142Y-48785714D02*
X280735714Y-48928571D01*
X280878571Y-49071428D01*
X281021428Y-49357142D01*
X281021428Y-49785714D01*
X280878571Y-50071428D01*
X280735714Y-50214285D01*
X280450000Y-50357142D01*
X279307142Y-50357142D01*
X279307142Y-47357142D01*
X280307142Y-47357142D01*
X280592857Y-47500000D01*
X280735714Y-47642857D01*
X280878571Y-47928571D01*
X280878571Y-48214285D01*
X280735714Y-48500000D01*
X280592857Y-48642857D01*
X280307142Y-48785714D01*
X279307142Y-48785714D01*
X282735714Y-50357142D02*
X282450000Y-50214285D01*
X282307142Y-49928571D01*
X282307142Y-47357142D01*
X285164285Y-50357142D02*
X285164285Y-48785714D01*
X285021428Y-48500000D01*
X284735714Y-48357142D01*
X284164285Y-48357142D01*
X283878571Y-48500000D01*
X285164285Y-50214285D02*
X284878571Y-50357142D01*
X284164285Y-50357142D01*
X283878571Y-50214285D01*
X283735714Y-49928571D01*
X283735714Y-49642857D01*
X283878571Y-49357142D01*
X284164285Y-49214285D01*
X284878571Y-49214285D01*
X285164285Y-49071428D01*
X287878571Y-50214285D02*
X287592857Y-50357142D01*
X287021428Y-50357142D01*
X286735714Y-50214285D01*
X286592857Y-50071428D01*
X286450000Y-49785714D01*
X286450000Y-48928571D01*
X286592857Y-48642857D01*
X286735714Y-48500000D01*
X287021428Y-48357142D01*
X287592857Y-48357142D01*
X287878571Y-48500000D01*
X289164285Y-50357142D02*
X289164285Y-47357142D01*
X289450000Y-49214285D02*
X290307142Y-50357142D01*
X290307142Y-48357142D02*
X289164285Y-49500000D01*
X245378571Y-54214285D02*
X247664285Y-54214285D01*
X251235714Y-55214285D02*
X251664285Y-55357142D01*
X252378571Y-55357142D01*
X252664285Y-55214285D01*
X252807142Y-55071428D01*
X252950000Y-54785714D01*
X252950000Y-54500000D01*
X252807142Y-54214285D01*
X252664285Y-54071428D01*
X252378571Y-53928571D01*
X251807142Y-53785714D01*
X251521428Y-53642857D01*
X251378571Y-53500000D01*
X251235714Y-53214285D01*
X251235714Y-52928571D01*
X251378571Y-52642857D01*
X251521428Y-52500000D01*
X251807142Y-52357142D01*
X252521428Y-52357142D01*
X252950000Y-52500000D01*
X254235714Y-55357142D02*
X254235714Y-53357142D01*
X254235714Y-52357142D02*
X254092857Y-52500000D01*
X254235714Y-52642857D01*
X254378571Y-52500000D01*
X254235714Y-52357142D01*
X254235714Y-52642857D01*
X256092857Y-55357142D02*
X255807142Y-55214285D01*
X255664285Y-54928571D01*
X255664285Y-52357142D01*
X257235714Y-55357142D02*
X257235714Y-52357142D01*
X257521428Y-54214285D02*
X258378571Y-55357142D01*
X258378571Y-53357142D02*
X257235714Y-54500000D01*
X259521428Y-55214285D02*
X259807142Y-55357142D01*
X260378571Y-55357142D01*
X260664285Y-55214285D01*
X260807142Y-54928571D01*
X260807142Y-54785714D01*
X260664285Y-54500000D01*
X260378571Y-54357142D01*
X259950000Y-54357142D01*
X259664285Y-54214285D01*
X259521428Y-53928571D01*
X259521428Y-53785714D01*
X259664285Y-53500000D01*
X259950000Y-53357142D01*
X260378571Y-53357142D01*
X260664285Y-53500000D01*
X263378571Y-55214285D02*
X263092857Y-55357142D01*
X262521428Y-55357142D01*
X262235714Y-55214285D01*
X262092857Y-55071428D01*
X261950000Y-54785714D01*
X261950000Y-53928571D01*
X262092857Y-53642857D01*
X262235714Y-53500000D01*
X262521428Y-53357142D01*
X263092857Y-53357142D01*
X263378571Y-53500000D01*
X264664285Y-55357142D02*
X264664285Y-53357142D01*
X264664285Y-53928571D02*
X264807142Y-53642857D01*
X264950000Y-53500000D01*
X265235714Y-53357142D01*
X265521428Y-53357142D01*
X267664285Y-55214285D02*
X267378571Y-55357142D01*
X266807142Y-55357142D01*
X266521428Y-55214285D01*
X266378571Y-54928571D01*
X266378571Y-53785714D01*
X266521428Y-53500000D01*
X266807142Y-53357142D01*
X267378571Y-53357142D01*
X267664285Y-53500000D01*
X267807142Y-53785714D01*
X267807142Y-54071428D01*
X266378571Y-54357142D01*
X270235714Y-55214285D02*
X269950000Y-55357142D01*
X269378571Y-55357142D01*
X269092857Y-55214285D01*
X268950000Y-54928571D01*
X268950000Y-53785714D01*
X269092857Y-53500000D01*
X269378571Y-53357142D01*
X269950000Y-53357142D01*
X270235714Y-53500000D01*
X270378571Y-53785714D01*
X270378571Y-54071428D01*
X268950000Y-54357142D01*
X271664285Y-53357142D02*
X271664285Y-55357142D01*
X271664285Y-53642857D02*
X271807142Y-53500000D01*
X272092857Y-53357142D01*
X272521428Y-53357142D01*
X272807142Y-53500000D01*
X272950000Y-53785714D01*
X272950000Y-55357142D01*
X274378571Y-55071428D02*
X274521428Y-55214285D01*
X274378571Y-55357142D01*
X274235714Y-55214285D01*
X274378571Y-55071428D01*
X274378571Y-55357142D01*
X274378571Y-53500000D02*
X274521428Y-53642857D01*
X274378571Y-53785714D01*
X274235714Y-53642857D01*
X274378571Y-53500000D01*
X274378571Y-53785714D01*
X277807142Y-52357142D02*
X278521428Y-55357142D01*
X279092857Y-53214285D01*
X279664285Y-55357142D01*
X280378571Y-52357142D01*
X281521428Y-55357142D02*
X281521428Y-52357142D01*
X282807142Y-55357142D02*
X282807142Y-53785714D01*
X282664285Y-53500000D01*
X282378571Y-53357142D01*
X281950000Y-53357142D01*
X281664285Y-53500000D01*
X281521428Y-53642857D01*
X284235714Y-55357142D02*
X284235714Y-53357142D01*
X284235714Y-52357142D02*
X284092857Y-52500000D01*
X284235714Y-52642857D01*
X284378571Y-52500000D01*
X284235714Y-52357142D01*
X284235714Y-52642857D01*
X285235714Y-53357142D02*
X286378571Y-53357142D01*
X285664285Y-52357142D02*
X285664285Y-54928571D01*
X285807142Y-55214285D01*
X286092857Y-55357142D01*
X286378571Y-55357142D01*
X288521428Y-55214285D02*
X288235714Y-55357142D01*
X287664285Y-55357142D01*
X287378571Y-55214285D01*
X287235714Y-54928571D01*
X287235714Y-53785714D01*
X287378571Y-53500000D01*
X287664285Y-53357142D01*
X288235714Y-53357142D01*
X288521428Y-53500000D01*
X288664285Y-53785714D01*
X288664285Y-54071428D01*
X287235714Y-54357142D01*
X214235714Y-64214285D02*
X216521428Y-64214285D01*
X221235714Y-63785714D02*
X220235714Y-63785714D01*
X220235714Y-65357142D02*
X220235714Y-62357142D01*
X221664285Y-62357142D01*
X222807142Y-65357142D02*
X222807142Y-63357142D01*
X222807142Y-62357142D02*
X222664285Y-62500000D01*
X222807142Y-62642857D01*
X222950000Y-62500000D01*
X222807142Y-62357142D01*
X222807142Y-62642857D01*
X224235714Y-63357142D02*
X224235714Y-65357142D01*
X224235714Y-63642857D02*
X224378571Y-63500000D01*
X224664285Y-63357142D01*
X225092857Y-63357142D01*
X225378571Y-63500000D01*
X225521428Y-63785714D01*
X225521428Y-65357142D01*
X226950000Y-65357142D02*
X226950000Y-63357142D01*
X226950000Y-62357142D02*
X226807142Y-62500000D01*
X226950000Y-62642857D01*
X227092857Y-62500000D01*
X226950000Y-62357142D01*
X226950000Y-62642857D01*
X228235714Y-65214285D02*
X228521428Y-65357142D01*
X229092857Y-65357142D01*
X229378571Y-65214285D01*
X229521428Y-64928571D01*
X229521428Y-64785714D01*
X229378571Y-64500000D01*
X229092857Y-64357142D01*
X228664285Y-64357142D01*
X228378571Y-64214285D01*
X228235714Y-63928571D01*
X228235714Y-63785714D01*
X228378571Y-63500000D01*
X228664285Y-63357142D01*
X229092857Y-63357142D01*
X229378571Y-63500000D01*
X230807142Y-65357142D02*
X230807142Y-62357142D01*
X232092857Y-65357142D02*
X232092857Y-63785714D01*
X231950000Y-63500000D01*
X231664285Y-63357142D01*
X231235714Y-63357142D01*
X230950000Y-63500000D01*
X230807142Y-63642857D01*
X234664285Y-65214285D02*
X234378571Y-65357142D01*
X233807142Y-65357142D01*
X233521428Y-65214285D01*
X233378571Y-64928571D01*
X233378571Y-63785714D01*
X233521428Y-63500000D01*
X233807142Y-63357142D01*
X234378571Y-63357142D01*
X234664285Y-63500000D01*
X234807142Y-63785714D01*
X234807142Y-64071428D01*
X233378571Y-64357142D01*
X237378571Y-65357142D02*
X237378571Y-62357142D01*
X237378571Y-65214285D02*
X237092857Y-65357142D01*
X236521428Y-65357142D01*
X236235714Y-65214285D01*
X236092857Y-65071428D01*
X235950000Y-64785714D01*
X235950000Y-63928571D01*
X236092857Y-63642857D01*
X236235714Y-63500000D01*
X236521428Y-63357142D01*
X237092857Y-63357142D01*
X237378571Y-63500000D01*
X242092857Y-63785714D02*
X242521428Y-63928571D01*
X242664285Y-64071428D01*
X242807142Y-64357142D01*
X242807142Y-64785714D01*
X242664285Y-65071428D01*
X242521428Y-65214285D01*
X242235714Y-65357142D01*
X241092857Y-65357142D01*
X241092857Y-62357142D01*
X242092857Y-62357142D01*
X242378571Y-62500000D01*
X242521428Y-62642857D01*
X242664285Y-62928571D01*
X242664285Y-63214285D01*
X242521428Y-63500000D01*
X242378571Y-63642857D01*
X242092857Y-63785714D01*
X241092857Y-63785714D01*
X244521428Y-65357142D02*
X244235714Y-65214285D01*
X244092857Y-65071428D01*
X243950000Y-64785714D01*
X243950000Y-63928571D01*
X244092857Y-63642857D01*
X244235714Y-63500000D01*
X244521428Y-63357142D01*
X244950000Y-63357142D01*
X245235714Y-63500000D01*
X245378571Y-63642857D01*
X245521428Y-63928571D01*
X245521428Y-64785714D01*
X245378571Y-65071428D01*
X245235714Y-65214285D01*
X244950000Y-65357142D01*
X244521428Y-65357142D01*
X248092857Y-65357142D02*
X248092857Y-63785714D01*
X247950000Y-63500000D01*
X247664285Y-63357142D01*
X247092857Y-63357142D01*
X246807142Y-63500000D01*
X248092857Y-65214285D02*
X247807142Y-65357142D01*
X247092857Y-65357142D01*
X246807142Y-65214285D01*
X246664285Y-64928571D01*
X246664285Y-64642857D01*
X246807142Y-64357142D01*
X247092857Y-64214285D01*
X247807142Y-64214285D01*
X248092857Y-64071428D01*
X249521428Y-65357142D02*
X249521428Y-63357142D01*
X249521428Y-63928571D02*
X249664285Y-63642857D01*
X249807142Y-63500000D01*
X250092857Y-63357142D01*
X250378571Y-63357142D01*
X252664285Y-65357142D02*
X252664285Y-62357142D01*
X252664285Y-65214285D02*
X252378571Y-65357142D01*
X251807142Y-65357142D01*
X251521428Y-65214285D01*
X251378571Y-65071428D01*
X251235714Y-64785714D01*
X251235714Y-63928571D01*
X251378571Y-63642857D01*
X251521428Y-63500000D01*
X251807142Y-63357142D01*
X252378571Y-63357142D01*
X252664285Y-63500000D01*
X255950000Y-62357142D02*
X257664285Y-62357142D01*
X256807142Y-65357142D02*
X256807142Y-62357142D01*
X258664285Y-65357142D02*
X258664285Y-62357142D01*
X259950000Y-65357142D02*
X259950000Y-63785714D01*
X259807142Y-63500000D01*
X259521428Y-63357142D01*
X259092857Y-63357142D01*
X258807142Y-63500000D01*
X258664285Y-63642857D01*
X261378571Y-65357142D02*
X261378571Y-63357142D01*
X261378571Y-62357142D02*
X261235714Y-62500000D01*
X261378571Y-62642857D01*
X261521428Y-62500000D01*
X261378571Y-62357142D01*
X261378571Y-62642857D01*
X264092857Y-65214285D02*
X263807142Y-65357142D01*
X263235714Y-65357142D01*
X262950000Y-65214285D01*
X262807142Y-65071428D01*
X262664285Y-64785714D01*
X262664285Y-63928571D01*
X262807142Y-63642857D01*
X262950000Y-63500000D01*
X263235714Y-63357142D01*
X263807142Y-63357142D01*
X264092857Y-63500000D01*
X265378571Y-65357142D02*
X265378571Y-62357142D01*
X265664285Y-64214285D02*
X266521428Y-65357142D01*
X266521428Y-63357142D02*
X265378571Y-64500000D01*
X267807142Y-63357142D02*
X267807142Y-65357142D01*
X267807142Y-63642857D02*
X267950000Y-63500000D01*
X268235714Y-63357142D01*
X268664285Y-63357142D01*
X268950000Y-63500000D01*
X269092857Y-63785714D01*
X269092857Y-65357142D01*
X271664285Y-65214285D02*
X271378571Y-65357142D01*
X270807142Y-65357142D01*
X270521428Y-65214285D01*
X270378571Y-64928571D01*
X270378571Y-63785714D01*
X270521428Y-63500000D01*
X270807142Y-63357142D01*
X271378571Y-63357142D01*
X271664285Y-63500000D01*
X271807142Y-63785714D01*
X271807142Y-64071428D01*
X270378571Y-64357142D01*
X272950000Y-65214285D02*
X273235714Y-65357142D01*
X273807142Y-65357142D01*
X274092857Y-65214285D01*
X274235714Y-64928571D01*
X274235714Y-64785714D01*
X274092857Y-64500000D01*
X273807142Y-64357142D01*
X273378571Y-64357142D01*
X273092857Y-64214285D01*
X272950000Y-63928571D01*
X272950000Y-63785714D01*
X273092857Y-63500000D01*
X273378571Y-63357142D01*
X273807142Y-63357142D01*
X274092857Y-63500000D01*
X275378571Y-65214285D02*
X275664285Y-65357142D01*
X276235714Y-65357142D01*
X276521428Y-65214285D01*
X276664285Y-64928571D01*
X276664285Y-64785714D01*
X276521428Y-64500000D01*
X276235714Y-64357142D01*
X275807142Y-64357142D01*
X275521428Y-64214285D01*
X275378571Y-63928571D01*
X275378571Y-63785714D01*
X275521428Y-63500000D01*
X275807142Y-63357142D01*
X276235714Y-63357142D01*
X276521428Y-63500000D01*
X277950000Y-65071428D02*
X278092857Y-65214285D01*
X277950000Y-65357142D01*
X277807142Y-65214285D01*
X277950000Y-65071428D01*
X277950000Y-65357142D01*
X277950000Y-63500000D02*
X278092857Y-63642857D01*
X277950000Y-63785714D01*
X277807142Y-63642857D01*
X277950000Y-63500000D01*
X277950000Y-63785714D01*
X283235714Y-65357142D02*
X281521428Y-65357142D01*
X282378571Y-65357142D02*
X282378571Y-62357142D01*
X282092857Y-62785714D01*
X281807142Y-63071428D01*
X281521428Y-63214285D01*
X284521428Y-65071428D02*
X284664285Y-65214285D01*
X284521428Y-65357142D01*
X284378571Y-65214285D01*
X284521428Y-65071428D01*
X284521428Y-65357142D01*
X287378571Y-62357142D02*
X285950000Y-62357142D01*
X285807142Y-63785714D01*
X285950000Y-63642857D01*
X286235714Y-63500000D01*
X286950000Y-63500000D01*
X287235714Y-63642857D01*
X287378571Y-63785714D01*
X287521428Y-64071428D01*
X287521428Y-64785714D01*
X287378571Y-65071428D01*
X287235714Y-65214285D01*
X286950000Y-65357142D01*
X286235714Y-65357142D01*
X285950000Y-65214285D01*
X285807142Y-65071428D01*
X288521428Y-62357142D02*
X290521428Y-62357142D01*
X289235714Y-65357142D01*
X291664285Y-65357142D02*
X291664285Y-63357142D01*
X291664285Y-63642857D02*
X291807142Y-63500000D01*
X292092857Y-63357142D01*
X292521428Y-63357142D01*
X292807142Y-63500000D01*
X292950000Y-63785714D01*
X292950000Y-65357142D01*
X292950000Y-63785714D02*
X293092857Y-63500000D01*
X293378571Y-63357142D01*
X293807142Y-63357142D01*
X294092857Y-63500000D01*
X294235714Y-63785714D01*
X294235714Y-65357142D01*
X295664285Y-65357142D02*
X295664285Y-63357142D01*
X295664285Y-63642857D02*
X295807142Y-63500000D01*
X296092857Y-63357142D01*
X296521428Y-63357142D01*
X296807142Y-63500000D01*
X296950000Y-63785714D01*
X296950000Y-65357142D01*
X296950000Y-63785714D02*
X297092857Y-63500000D01*
X297378571Y-63357142D01*
X297807142Y-63357142D01*
X298092857Y-63500000D01*
X298235714Y-63785714D01*
X298235714Y-65357142D01*
X302807142Y-66500000D02*
X302664285Y-66357142D01*
X302378571Y-65928571D01*
X302235714Y-65642857D01*
X302092857Y-65214285D01*
X301950000Y-64500000D01*
X301950000Y-63928571D01*
X302092857Y-63214285D01*
X302235714Y-62785714D01*
X302378571Y-62500000D01*
X302664285Y-62071428D01*
X302807142Y-61928571D01*
X304521428Y-62357142D02*
X304807142Y-62357142D01*
X305092857Y-62500000D01*
X305235714Y-62642857D01*
X305378571Y-62928571D01*
X305521428Y-63500000D01*
X305521428Y-64214285D01*
X305378571Y-64785714D01*
X305235714Y-65071428D01*
X305092857Y-65214285D01*
X304807142Y-65357142D01*
X304521428Y-65357142D01*
X304235714Y-65214285D01*
X304092857Y-65071428D01*
X303950000Y-64785714D01*
X303807142Y-64214285D01*
X303807142Y-63500000D01*
X303950000Y-62928571D01*
X304092857Y-62642857D01*
X304235714Y-62500000D01*
X304521428Y-62357142D01*
X306807142Y-65071428D02*
X306950000Y-65214285D01*
X306807142Y-65357142D01*
X306664285Y-65214285D01*
X306807142Y-65071428D01*
X306807142Y-65357142D01*
X308807142Y-62357142D02*
X309092857Y-62357142D01*
X309378571Y-62500000D01*
X309521428Y-62642857D01*
X309664285Y-62928571D01*
X309807142Y-63500000D01*
X309807142Y-64214285D01*
X309664285Y-64785714D01*
X309521428Y-65071428D01*
X309378571Y-65214285D01*
X309092857Y-65357142D01*
X308807142Y-65357142D01*
X308521428Y-65214285D01*
X308378571Y-65071428D01*
X308235714Y-64785714D01*
X308092857Y-64214285D01*
X308092857Y-63500000D01*
X308235714Y-62928571D01*
X308378571Y-62642857D01*
X308521428Y-62500000D01*
X308807142Y-62357142D01*
X312378571Y-62357142D02*
X311807142Y-62357142D01*
X311521428Y-62500000D01*
X311378571Y-62642857D01*
X311092857Y-63071428D01*
X310950000Y-63642857D01*
X310950000Y-64785714D01*
X311092857Y-65071428D01*
X311235714Y-65214285D01*
X311521428Y-65357142D01*
X312092857Y-65357142D01*
X312378571Y-65214285D01*
X312521428Y-65071428D01*
X312664285Y-64785714D01*
X312664285Y-64071428D01*
X312521428Y-63785714D01*
X312378571Y-63642857D01*
X312092857Y-63500000D01*
X311521428Y-63500000D01*
X311235714Y-63642857D01*
X311092857Y-63785714D01*
X310950000Y-64071428D01*
X313807142Y-62642857D02*
X313950000Y-62500000D01*
X314235714Y-62357142D01*
X314950000Y-62357142D01*
X315235714Y-62500000D01*
X315378571Y-62642857D01*
X315521428Y-62928571D01*
X315521428Y-63214285D01*
X315378571Y-63642857D01*
X313664285Y-65357142D01*
X315521428Y-65357142D01*
X316664285Y-62357142D02*
X316664285Y-62928571D01*
X317807142Y-62357142D02*
X317807142Y-62928571D01*
X318807142Y-66500000D02*
X318950000Y-66357142D01*
X319235714Y-65928571D01*
X319378571Y-65642857D01*
X319521428Y-65214285D01*
X319664285Y-64500000D01*
X319664285Y-63928571D01*
X319521428Y-63214285D01*
X319378571Y-62785714D01*
X319235714Y-62500000D01*
X318950000Y-62071428D01*
X318807142Y-61928571D01*
X241021428Y-69214285D02*
X243307142Y-69214285D01*
X246878571Y-70214285D02*
X247307142Y-70357142D01*
X248021428Y-70357142D01*
X248307142Y-70214285D01*
X248450000Y-70071428D01*
X248592857Y-69785714D01*
X248592857Y-69500000D01*
X248450000Y-69214285D01*
X248307142Y-69071428D01*
X248021428Y-68928571D01*
X247450000Y-68785714D01*
X247164285Y-68642857D01*
X247021428Y-68500000D01*
X246878571Y-68214285D01*
X246878571Y-67928571D01*
X247021428Y-67642857D01*
X247164285Y-67500000D01*
X247450000Y-67357142D01*
X248164285Y-67357142D01*
X248592857Y-67500000D01*
X251164285Y-68357142D02*
X251164285Y-70357142D01*
X249878571Y-68357142D02*
X249878571Y-69928571D01*
X250021428Y-70214285D01*
X250307142Y-70357142D01*
X250735714Y-70357142D01*
X251021428Y-70214285D01*
X251164285Y-70071428D01*
X252592857Y-70357142D02*
X252592857Y-68357142D01*
X252592857Y-68928571D02*
X252735714Y-68642857D01*
X252878571Y-68500000D01*
X253164285Y-68357142D01*
X253450000Y-68357142D01*
X254021428Y-68357142D02*
X255164285Y-68357142D01*
X254450000Y-70357142D02*
X254450000Y-67785714D01*
X254592857Y-67500000D01*
X254878571Y-67357142D01*
X255164285Y-67357142D01*
X257450000Y-70357142D02*
X257450000Y-68785714D01*
X257307142Y-68500000D01*
X257021428Y-68357142D01*
X256450000Y-68357142D01*
X256164285Y-68500000D01*
X257450000Y-70214285D02*
X257164285Y-70357142D01*
X256450000Y-70357142D01*
X256164285Y-70214285D01*
X256021428Y-69928571D01*
X256021428Y-69642857D01*
X256164285Y-69357142D01*
X256450000Y-69214285D01*
X257164285Y-69214285D01*
X257450000Y-69071428D01*
X260164285Y-70214285D02*
X259878571Y-70357142D01*
X259307142Y-70357142D01*
X259021428Y-70214285D01*
X258878571Y-70071428D01*
X258735714Y-69785714D01*
X258735714Y-68928571D01*
X258878571Y-68642857D01*
X259021428Y-68500000D01*
X259307142Y-68357142D01*
X259878571Y-68357142D01*
X260164285Y-68500000D01*
X262592857Y-70214285D02*
X262307142Y-70357142D01*
X261735714Y-70357142D01*
X261450000Y-70214285D01*
X261307142Y-69928571D01*
X261307142Y-68785714D01*
X261450000Y-68500000D01*
X261735714Y-68357142D01*
X262307142Y-68357142D01*
X262592857Y-68500000D01*
X262735714Y-68785714D01*
X262735714Y-69071428D01*
X261307142Y-69357142D01*
X267307142Y-68785714D02*
X266307142Y-68785714D01*
X266307142Y-70357142D02*
X266307142Y-67357142D01*
X267735714Y-67357142D01*
X268878571Y-70357142D02*
X268878571Y-68357142D01*
X268878571Y-67357142D02*
X268735714Y-67500000D01*
X268878571Y-67642857D01*
X269021428Y-67500000D01*
X268878571Y-67357142D01*
X268878571Y-67642857D01*
X270307142Y-68357142D02*
X270307142Y-70357142D01*
X270307142Y-68642857D02*
X270450000Y-68500000D01*
X270735714Y-68357142D01*
X271164285Y-68357142D01*
X271450000Y-68500000D01*
X271592857Y-68785714D01*
X271592857Y-70357142D01*
X273021428Y-70357142D02*
X273021428Y-68357142D01*
X273021428Y-67357142D02*
X272878571Y-67500000D01*
X273021428Y-67642857D01*
X273164285Y-67500000D01*
X273021428Y-67357142D01*
X273021428Y-67642857D01*
X274307142Y-70214285D02*
X274592857Y-70357142D01*
X275164285Y-70357142D01*
X275450000Y-70214285D01*
X275592857Y-69928571D01*
X275592857Y-69785714D01*
X275450000Y-69500000D01*
X275164285Y-69357142D01*
X274735714Y-69357142D01*
X274450000Y-69214285D01*
X274307142Y-68928571D01*
X274307142Y-68785714D01*
X274450000Y-68500000D01*
X274735714Y-68357142D01*
X275164285Y-68357142D01*
X275450000Y-68500000D01*
X276878571Y-70357142D02*
X276878571Y-67357142D01*
X278164285Y-70357142D02*
X278164285Y-68785714D01*
X278021428Y-68500000D01*
X277735714Y-68357142D01*
X277307142Y-68357142D01*
X277021428Y-68500000D01*
X276878571Y-68642857D01*
X279592857Y-70071428D02*
X279735714Y-70214285D01*
X279592857Y-70357142D01*
X279450000Y-70214285D01*
X279592857Y-70071428D01*
X279592857Y-70357142D01*
X279592857Y-68500000D02*
X279735714Y-68642857D01*
X279592857Y-68785714D01*
X279450000Y-68642857D01*
X279592857Y-68500000D01*
X279592857Y-68785714D01*
X283307142Y-70357142D02*
X283307142Y-67357142D01*
X283307142Y-68785714D02*
X285021428Y-68785714D01*
X285021428Y-70357142D02*
X285021428Y-67357142D01*
X286307142Y-69500000D02*
X287735714Y-69500000D01*
X286021428Y-70357142D02*
X287021428Y-67357142D01*
X288021428Y-70357142D01*
X288878571Y-70214285D02*
X289307142Y-70357142D01*
X290021428Y-70357142D01*
X290307142Y-70214285D01*
X290450000Y-70071428D01*
X290592857Y-69785714D01*
X290592857Y-69500000D01*
X290450000Y-69214285D01*
X290307142Y-69071428D01*
X290021428Y-68928571D01*
X289450000Y-68785714D01*
X289164285Y-68642857D01*
X289021428Y-68500000D01*
X288878571Y-68214285D01*
X288878571Y-67928571D01*
X289021428Y-67642857D01*
X289164285Y-67500000D01*
X289450000Y-67357142D01*
X290164285Y-67357142D01*
X290592857Y-67500000D01*
X293307142Y-70357142D02*
X291878571Y-70357142D01*
X291878571Y-67357142D01*
X230949999Y-8785714D02*
X229949999Y-8785714D01*
X229949999Y-10357142D02*
X229949999Y-7357142D01*
X231378571Y-7357142D01*
X232949999Y-10357142D02*
X232664285Y-10214285D01*
X232521428Y-10071428D01*
X232378571Y-9785714D01*
X232378571Y-8928571D01*
X232521428Y-8642857D01*
X232664285Y-8500000D01*
X232949999Y-8357142D01*
X233378571Y-8357142D01*
X233664285Y-8500000D01*
X233807142Y-8642857D01*
X233949999Y-8928571D01*
X233949999Y-9785714D01*
X233807142Y-10071428D01*
X233664285Y-10214285D01*
X233378571Y-10357142D01*
X232949999Y-10357142D01*
X235235714Y-10357142D02*
X235235714Y-8357142D01*
X235235714Y-8928571D02*
X235378571Y-8642857D01*
X235521428Y-8500000D01*
X235807142Y-8357142D01*
X236092857Y-8357142D01*
X240521428Y-10214285D02*
X240235714Y-10357142D01*
X239664285Y-10357142D01*
X239378571Y-10214285D01*
X239235714Y-9928571D01*
X239235714Y-8785714D01*
X239378571Y-8500000D01*
X239664285Y-8357142D01*
X240235714Y-8357142D01*
X240521428Y-8500000D01*
X240664285Y-8785714D01*
X240664285Y-9071428D01*
X239235714Y-9357142D01*
X241664285Y-10357142D02*
X243235714Y-8357142D01*
X241664285Y-8357142D02*
X243235714Y-10357142D01*
X245664285Y-10357142D02*
X245664285Y-8785714D01*
X245521428Y-8500000D01*
X245235714Y-8357142D01*
X244664285Y-8357142D01*
X244378571Y-8500000D01*
X245664285Y-10214285D02*
X245378571Y-10357142D01*
X244664285Y-10357142D01*
X244378571Y-10214285D01*
X244235714Y-9928571D01*
X244235714Y-9642857D01*
X244378571Y-9357142D01*
X244664285Y-9214285D01*
X245378571Y-9214285D01*
X245664285Y-9071428D01*
X247092857Y-10357142D02*
X247092857Y-8357142D01*
X247092857Y-8642857D02*
X247235714Y-8500000D01*
X247521428Y-8357142D01*
X247949999Y-8357142D01*
X248235714Y-8500000D01*
X248378571Y-8785714D01*
X248378571Y-10357142D01*
X248378571Y-8785714D02*
X248521428Y-8500000D01*
X248807142Y-8357142D01*
X249235714Y-8357142D01*
X249521428Y-8500000D01*
X249664285Y-8785714D01*
X249664285Y-10357142D01*
X251092857Y-8357142D02*
X251092857Y-11357142D01*
X251092857Y-8500000D02*
X251378571Y-8357142D01*
X251949999Y-8357142D01*
X252235714Y-8500000D01*
X252378571Y-8642857D01*
X252521428Y-8928571D01*
X252521428Y-9785714D01*
X252378571Y-10071428D01*
X252235714Y-10214285D01*
X251949999Y-10357142D01*
X251378571Y-10357142D01*
X251092857Y-10214285D01*
X254235714Y-10357142D02*
X253949999Y-10214285D01*
X253807142Y-9928571D01*
X253807142Y-7357142D01*
X256521428Y-10214285D02*
X256235714Y-10357142D01*
X255664285Y-10357142D01*
X255378571Y-10214285D01*
X255235714Y-9928571D01*
X255235714Y-8785714D01*
X255378571Y-8500000D01*
X255664285Y-8357142D01*
X256235714Y-8357142D01*
X256521428Y-8500000D01*
X256664285Y-8785714D01*
X256664285Y-9071428D01*
X255235714Y-9357142D01*
X257949999Y-10071428D02*
X258092857Y-10214285D01*
X257949999Y-10357142D01*
X257807142Y-10214285D01*
X257949999Y-10071428D01*
X257949999Y-10357142D01*
X257949999Y-8500000D02*
X258092857Y-8642857D01*
X257949999Y-8785714D01*
X257807142Y-8642857D01*
X257949999Y-8500000D01*
X257949999Y-8785714D01*
X262235714Y-7357142D02*
X262521428Y-7357142D01*
X262807142Y-7500000D01*
X262949999Y-7642857D01*
X263092857Y-7928571D01*
X263235714Y-8500000D01*
X263235714Y-9214285D01*
X263092857Y-9785714D01*
X262949999Y-10071428D01*
X262807142Y-10214285D01*
X262521428Y-10357142D01*
X262235714Y-10357142D01*
X261949999Y-10214285D01*
X261807142Y-10071428D01*
X261664285Y-9785714D01*
X261521428Y-9214285D01*
X261521428Y-8500000D01*
X261664285Y-7928571D01*
X261807142Y-7642857D01*
X261949999Y-7500000D01*
X262235714Y-7357142D01*
X265092857Y-7357142D02*
X265378571Y-7357142D01*
X265664285Y-7500000D01*
X265807142Y-7642857D01*
X265949999Y-7928571D01*
X266092857Y-8500000D01*
X266092857Y-9214285D01*
X265949999Y-9785714D01*
X265807142Y-10071428D01*
X265664285Y-10214285D01*
X265378571Y-10357142D01*
X265092857Y-10357142D01*
X264807142Y-10214285D01*
X264664285Y-10071428D01*
X264521428Y-9785714D01*
X264378571Y-9214285D01*
X264378571Y-8500000D01*
X264521428Y-7928571D01*
X264664285Y-7642857D01*
X264807142Y-7500000D01*
X265092857Y-7357142D01*
X268950000Y-10357142D02*
X267235714Y-10357142D01*
X268092857Y-10357142D02*
X268092857Y-7357142D01*
X267807142Y-7785714D01*
X267521428Y-8071428D01*
X267235714Y-8214285D01*
X270378571Y-10214285D02*
X270378571Y-10357142D01*
X270235714Y-10642857D01*
X270092857Y-10785714D01*
X274521428Y-7357142D02*
X274807142Y-7357142D01*
X275092857Y-7500000D01*
X275235714Y-7642857D01*
X275378571Y-7928571D01*
X275521428Y-8500000D01*
X275521428Y-9214285D01*
X275378571Y-9785714D01*
X275235714Y-10071428D01*
X275092857Y-10214285D01*
X274807142Y-10357142D01*
X274521428Y-10357142D01*
X274235714Y-10214285D01*
X274092857Y-10071428D01*
X273950000Y-9785714D01*
X273807142Y-9214285D01*
X273807142Y-8500000D01*
X273950000Y-7928571D01*
X274092857Y-7642857D01*
X274235714Y-7500000D01*
X274521428Y-7357142D01*
X277378571Y-7357142D02*
X277664285Y-7357142D01*
X277950000Y-7500000D01*
X278092857Y-7642857D01*
X278235714Y-7928571D01*
X278378571Y-8500000D01*
X278378571Y-9214285D01*
X278235714Y-9785714D01*
X278092857Y-10071428D01*
X277950000Y-10214285D01*
X277664285Y-10357142D01*
X277378571Y-10357142D01*
X277092857Y-10214285D01*
X276950000Y-10071428D01*
X276807142Y-9785714D01*
X276664285Y-9214285D01*
X276664285Y-8500000D01*
X276807142Y-7928571D01*
X276950000Y-7642857D01*
X277092857Y-7500000D01*
X277378571Y-7357142D01*
X279521428Y-7642857D02*
X279664285Y-7500000D01*
X279950000Y-7357142D01*
X280664285Y-7357142D01*
X280950000Y-7500000D01*
X281092857Y-7642857D01*
X281235714Y-7928571D01*
X281235714Y-8214285D01*
X281092857Y-8642857D01*
X279378571Y-10357142D01*
X281235714Y-10357142D01*
X282664285Y-10214285D02*
X282664285Y-10357142D01*
X282521428Y-10642857D01*
X282378571Y-10785714D01*
X286807142Y-7357142D02*
X287092857Y-7357142D01*
X287378571Y-7500000D01*
X287521428Y-7642857D01*
X287664285Y-7928571D01*
X287807142Y-8500000D01*
X287807142Y-9214285D01*
X287664285Y-9785714D01*
X287521428Y-10071428D01*
X287378571Y-10214285D01*
X287092857Y-10357142D01*
X286807142Y-10357142D01*
X286521428Y-10214285D01*
X286378571Y-10071428D01*
X286235714Y-9785714D01*
X286092857Y-9214285D01*
X286092857Y-8500000D01*
X286235714Y-7928571D01*
X286378571Y-7642857D01*
X286521428Y-7500000D01*
X286807142Y-7357142D01*
X289664285Y-7357142D02*
X289950000Y-7357142D01*
X290235714Y-7500000D01*
X290378571Y-7642857D01*
X290521428Y-7928571D01*
X290664285Y-8500000D01*
X290664285Y-9214285D01*
X290521428Y-9785714D01*
X290378571Y-10071428D01*
X290235714Y-10214285D01*
X289950000Y-10357142D01*
X289664285Y-10357142D01*
X289378571Y-10214285D01*
X289235714Y-10071428D01*
X289092857Y-9785714D01*
X288950000Y-9214285D01*
X288950000Y-8500000D01*
X289092857Y-7928571D01*
X289235714Y-7642857D01*
X289378571Y-7500000D01*
X289664285Y-7357142D01*
X291664285Y-7357142D02*
X293521428Y-7357142D01*
X292521428Y-8500000D01*
X292950000Y-8500000D01*
X293235714Y-8642857D01*
X293378571Y-8785714D01*
X293521428Y-9071428D01*
X293521428Y-9785714D01*
X293378571Y-10071428D01*
X293235714Y-10214285D01*
X292950000Y-10357142D01*
X292092857Y-10357142D01*
X291807142Y-10214285D01*
X291664285Y-10071428D01*
X294950000Y-10214285D02*
X294950000Y-10357142D01*
X294807142Y-10642857D01*
X294664285Y-10785714D01*
X299664285Y-10214285D02*
X299378571Y-10357142D01*
X298807142Y-10357142D01*
X298521428Y-10214285D01*
X298378571Y-9928571D01*
X298378571Y-8785714D01*
X298521428Y-8500000D01*
X298807142Y-8357142D01*
X299378571Y-8357142D01*
X299664285Y-8500000D01*
X299807142Y-8785714D01*
X299807142Y-9071428D01*
X298378571Y-9357142D01*
X300664285Y-8357142D02*
X301807142Y-8357142D01*
X301092857Y-7357142D02*
X301092857Y-9928571D01*
X301235714Y-10214285D01*
X301521428Y-10357142D01*
X301807142Y-10357142D01*
X304092857Y-10214285D02*
X303807142Y-10357142D01*
X303235714Y-10357142D01*
X302950000Y-10214285D01*
X302807142Y-10071428D01*
X302664285Y-9785714D01*
X302664285Y-8928571D01*
X302807142Y-8642857D01*
X302950000Y-8500000D01*
X303235714Y-8357142D01*
X303807142Y-8357142D01*
X304092857Y-8500000D01*
X208735714Y-19214285D02*
X211021428Y-19214285D01*
X215307142Y-17357142D02*
X215878571Y-17357142D01*
X216164285Y-17500000D01*
X216450000Y-17785714D01*
X216592857Y-18357142D01*
X216592857Y-19357142D01*
X216450000Y-19928571D01*
X216164285Y-20214285D01*
X215878571Y-20357142D01*
X215307142Y-20357142D01*
X215021428Y-20214285D01*
X214735714Y-19928571D01*
X214592857Y-19357142D01*
X214592857Y-18357142D01*
X214735714Y-17785714D01*
X215021428Y-17500000D01*
X215307142Y-17357142D01*
X217878571Y-18357142D02*
X217878571Y-20357142D01*
X217878571Y-18642857D02*
X218021428Y-18500000D01*
X218307142Y-18357142D01*
X218735714Y-18357142D01*
X219021428Y-18500000D01*
X219164285Y-18785714D01*
X219164285Y-20357142D01*
X224164285Y-20214285D02*
X223878571Y-20357142D01*
X223307142Y-20357142D01*
X223021428Y-20214285D01*
X222878571Y-20071428D01*
X222735714Y-19785714D01*
X222735714Y-18928571D01*
X222878571Y-18642857D01*
X223021428Y-18500000D01*
X223307142Y-18357142D01*
X223878571Y-18357142D01*
X224164285Y-18500000D01*
X225878571Y-20357142D02*
X225592857Y-20214285D01*
X225450000Y-20071428D01*
X225307142Y-19785714D01*
X225307142Y-18928571D01*
X225450000Y-18642857D01*
X225592857Y-18500000D01*
X225878571Y-18357142D01*
X226307142Y-18357142D01*
X226592857Y-18500000D01*
X226735714Y-18642857D01*
X226878571Y-18928571D01*
X226878571Y-19785714D01*
X226735714Y-20071428D01*
X226592857Y-20214285D01*
X226307142Y-20357142D01*
X225878571Y-20357142D01*
X228164285Y-20357142D02*
X228164285Y-18357142D01*
X228164285Y-18642857D02*
X228307142Y-18500000D01*
X228592857Y-18357142D01*
X229021428Y-18357142D01*
X229307142Y-18500000D01*
X229450000Y-18785714D01*
X229450000Y-20357142D01*
X229450000Y-18785714D02*
X229592857Y-18500000D01*
X229878571Y-18357142D01*
X230307142Y-18357142D01*
X230592857Y-18500000D01*
X230735714Y-18785714D01*
X230735714Y-20357142D01*
X232164285Y-18357142D02*
X232164285Y-21357142D01*
X232164285Y-18500000D02*
X232450000Y-18357142D01*
X233021428Y-18357142D01*
X233307142Y-18500000D01*
X233450000Y-18642857D01*
X233592857Y-18928571D01*
X233592857Y-19785714D01*
X233450000Y-20071428D01*
X233307142Y-20214285D01*
X233021428Y-20357142D01*
X232450000Y-20357142D01*
X232164285Y-20214285D01*
X235307142Y-20357142D02*
X235021428Y-20214285D01*
X234878571Y-20071428D01*
X234735714Y-19785714D01*
X234735714Y-18928571D01*
X234878571Y-18642857D01*
X235021428Y-18500000D01*
X235307142Y-18357142D01*
X235735714Y-18357142D01*
X236021428Y-18500000D01*
X236164285Y-18642857D01*
X236307142Y-18928571D01*
X236307142Y-19785714D01*
X236164285Y-20071428D01*
X236021428Y-20214285D01*
X235735714Y-20357142D01*
X235307142Y-20357142D01*
X237592857Y-18357142D02*
X237592857Y-20357142D01*
X237592857Y-18642857D02*
X237735714Y-18500000D01*
X238021428Y-18357142D01*
X238450000Y-18357142D01*
X238735714Y-18500000D01*
X238878571Y-18785714D01*
X238878571Y-20357142D01*
X241450000Y-20214285D02*
X241164285Y-20357142D01*
X240592857Y-20357142D01*
X240307142Y-20214285D01*
X240164285Y-19928571D01*
X240164285Y-18785714D01*
X240307142Y-18500000D01*
X240592857Y-18357142D01*
X241164285Y-18357142D01*
X241450000Y-18500000D01*
X241592857Y-18785714D01*
X241592857Y-19071428D01*
X240164285Y-19357142D01*
X242878571Y-18357142D02*
X242878571Y-20357142D01*
X242878571Y-18642857D02*
X243021428Y-18500000D01*
X243307142Y-18357142D01*
X243735714Y-18357142D01*
X244021428Y-18500000D01*
X244164285Y-18785714D01*
X244164285Y-20357142D01*
X245164285Y-18357142D02*
X246307142Y-18357142D01*
X245592857Y-17357142D02*
X245592857Y-19928571D01*
X245735714Y-20214285D01*
X246021428Y-20357142D01*
X246307142Y-20357142D01*
X249592857Y-20357142D02*
X249592857Y-17357142D01*
X249592857Y-18500000D02*
X249878571Y-18357142D01*
X250450000Y-18357142D01*
X250735714Y-18500000D01*
X250878571Y-18642857D01*
X251021428Y-18928571D01*
X251021428Y-19785714D01*
X250878571Y-20071428D01*
X250735714Y-20214285D01*
X250450000Y-20357142D01*
X249878571Y-20357142D01*
X249592857Y-20214285D01*
X252735714Y-20357142D02*
X252450000Y-20214285D01*
X252307142Y-20071428D01*
X252164285Y-19785714D01*
X252164285Y-18928571D01*
X252307142Y-18642857D01*
X252450000Y-18500000D01*
X252735714Y-18357142D01*
X253164285Y-18357142D01*
X253450000Y-18500000D01*
X253592857Y-18642857D01*
X253735714Y-18928571D01*
X253735714Y-19785714D01*
X253592857Y-20071428D01*
X253450000Y-20214285D01*
X253164285Y-20357142D01*
X252735714Y-20357142D01*
X256307142Y-20357142D02*
X256307142Y-18785714D01*
X256164285Y-18500000D01*
X255878571Y-18357142D01*
X255307142Y-18357142D01*
X255021428Y-18500000D01*
X256307142Y-20214285D02*
X256021428Y-20357142D01*
X255307142Y-20357142D01*
X255021428Y-20214285D01*
X254878571Y-19928571D01*
X254878571Y-19642857D01*
X255021428Y-19357142D01*
X255307142Y-19214285D01*
X256021428Y-19214285D01*
X256307142Y-19071428D01*
X257735714Y-20357142D02*
X257735714Y-18357142D01*
X257735714Y-18928571D02*
X257878571Y-18642857D01*
X258021428Y-18500000D01*
X258307142Y-18357142D01*
X258592857Y-18357142D01*
X260878571Y-20357142D02*
X260878571Y-17357142D01*
X260878571Y-20214285D02*
X260592857Y-20357142D01*
X260021428Y-20357142D01*
X259735714Y-20214285D01*
X259592857Y-20071428D01*
X259450000Y-19785714D01*
X259450000Y-18928571D01*
X259592857Y-18642857D01*
X259735714Y-18500000D01*
X260021428Y-18357142D01*
X260592857Y-18357142D01*
X260878571Y-18500000D01*
X262164285Y-20214285D02*
X262450000Y-20357142D01*
X263021428Y-20357142D01*
X263307142Y-20214285D01*
X263450000Y-19928571D01*
X263450000Y-19785714D01*
X263307142Y-19500000D01*
X263021428Y-19357142D01*
X262592857Y-19357142D01*
X262307142Y-19214285D01*
X262164285Y-18928571D01*
X262164285Y-18785714D01*
X262307142Y-18500000D01*
X262592857Y-18357142D01*
X263021428Y-18357142D01*
X263307142Y-18500000D01*
X264878571Y-20214285D02*
X264878571Y-20357142D01*
X264735714Y-20642857D01*
X264592857Y-20785714D01*
X268450000Y-20357142D02*
X268450000Y-18357142D01*
X268450000Y-18928571D02*
X268592857Y-18642857D01*
X268735714Y-18500000D01*
X269021428Y-18357142D01*
X269307142Y-18357142D01*
X270735714Y-20357142D02*
X270450000Y-20214285D01*
X270307142Y-20071428D01*
X270164285Y-19785714D01*
X270164285Y-18928571D01*
X270307142Y-18642857D01*
X270450000Y-18500000D01*
X270735714Y-18357142D01*
X271164285Y-18357142D01*
X271450000Y-18500000D01*
X271592857Y-18642857D01*
X271735714Y-18928571D01*
X271735714Y-19785714D01*
X271592857Y-20071428D01*
X271450000Y-20214285D01*
X271164285Y-20357142D01*
X270735714Y-20357142D01*
X274307142Y-18357142D02*
X274307142Y-20357142D01*
X273021428Y-18357142D02*
X273021428Y-19928571D01*
X273164285Y-20214285D01*
X273450000Y-20357142D01*
X273878571Y-20357142D01*
X274164285Y-20214285D01*
X274307142Y-20071428D01*
X277021428Y-18357142D02*
X277021428Y-20785714D01*
X276878571Y-21071428D01*
X276735714Y-21214285D01*
X276450000Y-21357142D01*
X276021428Y-21357142D01*
X275735714Y-21214285D01*
X277021428Y-20214285D02*
X276735714Y-20357142D01*
X276164285Y-20357142D01*
X275878571Y-20214285D01*
X275735714Y-20071428D01*
X275592857Y-19785714D01*
X275592857Y-18928571D01*
X275735714Y-18642857D01*
X275878571Y-18500000D01*
X276164285Y-18357142D01*
X276735714Y-18357142D01*
X277021428Y-18500000D01*
X278450000Y-20357142D02*
X278450000Y-17357142D01*
X279735714Y-20357142D02*
X279735714Y-18785714D01*
X279592857Y-18500000D01*
X279307142Y-18357142D01*
X278878571Y-18357142D01*
X278592857Y-18500000D01*
X278450000Y-18642857D01*
X284592857Y-20214285D02*
X284307142Y-20357142D01*
X283735714Y-20357142D01*
X283450000Y-20214285D01*
X283307142Y-19928571D01*
X283307142Y-18785714D01*
X283450000Y-18500000D01*
X283735714Y-18357142D01*
X284307142Y-18357142D01*
X284592857Y-18500000D01*
X284735714Y-18785714D01*
X284735714Y-19071428D01*
X283307142Y-19357142D01*
X287307142Y-20357142D02*
X287307142Y-17357142D01*
X287307142Y-20214285D02*
X287021428Y-20357142D01*
X286450000Y-20357142D01*
X286164285Y-20214285D01*
X286021428Y-20071428D01*
X285878571Y-19785714D01*
X285878571Y-18928571D01*
X286021428Y-18642857D01*
X286164285Y-18500000D01*
X286450000Y-18357142D01*
X287021428Y-18357142D01*
X287307142Y-18500000D01*
X290021428Y-18357142D02*
X290021428Y-20785714D01*
X289878571Y-21071428D01*
X289735714Y-21214285D01*
X289450000Y-21357142D01*
X289021428Y-21357142D01*
X288735714Y-21214285D01*
X290021428Y-20214285D02*
X289735714Y-20357142D01*
X289164285Y-20357142D01*
X288878571Y-20214285D01*
X288735714Y-20071428D01*
X288592857Y-19785714D01*
X288592857Y-18928571D01*
X288735714Y-18642857D01*
X288878571Y-18500000D01*
X289164285Y-18357142D01*
X289735714Y-18357142D01*
X290021428Y-18500000D01*
X292592857Y-20214285D02*
X292307142Y-20357142D01*
X291735714Y-20357142D01*
X291450000Y-20214285D01*
X291307142Y-19928571D01*
X291307142Y-18785714D01*
X291450000Y-18500000D01*
X291735714Y-18357142D01*
X292307142Y-18357142D01*
X292592857Y-18500000D01*
X292735714Y-18785714D01*
X292735714Y-19071428D01*
X291307142Y-19357142D01*
X293878571Y-20214285D02*
X294164285Y-20357142D01*
X294735714Y-20357142D01*
X295021428Y-20214285D01*
X295164285Y-19928571D01*
X295164285Y-19785714D01*
X295021428Y-19500000D01*
X294735714Y-19357142D01*
X294307142Y-19357142D01*
X294021428Y-19214285D01*
X293878571Y-18928571D01*
X293878571Y-18785714D01*
X294021428Y-18500000D01*
X294307142Y-18357142D01*
X294735714Y-18357142D01*
X295021428Y-18500000D01*
X300021428Y-20357142D02*
X300021428Y-18785714D01*
X299878571Y-18500000D01*
X299592857Y-18357142D01*
X299021428Y-18357142D01*
X298735714Y-18500000D01*
X300021428Y-20214285D02*
X299735714Y-20357142D01*
X299021428Y-20357142D01*
X298735714Y-20214285D01*
X298592857Y-19928571D01*
X298592857Y-19642857D01*
X298735714Y-19357142D01*
X299021428Y-19214285D01*
X299735714Y-19214285D01*
X300021428Y-19071428D01*
X301450000Y-20357142D02*
X301450000Y-18357142D01*
X301450000Y-18928571D02*
X301592857Y-18642857D01*
X301735714Y-18500000D01*
X302021428Y-18357142D01*
X302307142Y-18357142D01*
X304450000Y-20214285D02*
X304164285Y-20357142D01*
X303592857Y-20357142D01*
X303307142Y-20214285D01*
X303164285Y-19928571D01*
X303164285Y-18785714D01*
X303307142Y-18500000D01*
X303592857Y-18357142D01*
X304164285Y-18357142D01*
X304450000Y-18500000D01*
X304592857Y-18785714D01*
X304592857Y-19071428D01*
X303164285Y-19357142D01*
X309450000Y-20357142D02*
X309450000Y-18785714D01*
X309307142Y-18500000D01*
X309021428Y-18357142D01*
X308450000Y-18357142D01*
X308164285Y-18500000D01*
X309450000Y-20214285D02*
X309164285Y-20357142D01*
X308450000Y-20357142D01*
X308164285Y-20214285D01*
X308021428Y-19928571D01*
X308021428Y-19642857D01*
X308164285Y-19357142D01*
X308450000Y-19214285D01*
X309164285Y-19214285D01*
X309450000Y-19071428D01*
X311307142Y-20357142D02*
X311021428Y-20214285D01*
X310878571Y-19928571D01*
X310878571Y-17357142D01*
X312878571Y-20357142D02*
X312592857Y-20214285D01*
X312450000Y-19928571D01*
X312450000Y-17357142D01*
X314450000Y-20357142D02*
X314164285Y-20214285D01*
X314021428Y-20071428D01*
X313878571Y-19785714D01*
X313878571Y-18928571D01*
X314021428Y-18642857D01*
X314164285Y-18500000D01*
X314450000Y-18357142D01*
X314878571Y-18357142D01*
X315164285Y-18500000D01*
X315307142Y-18642857D01*
X315450000Y-18928571D01*
X315450000Y-19785714D01*
X315307142Y-20071428D01*
X315164285Y-20214285D01*
X314878571Y-20357142D01*
X314450000Y-20357142D01*
X316450000Y-18357142D02*
X317021428Y-20357142D01*
X317592857Y-18928571D01*
X318164285Y-20357142D01*
X318735714Y-18357142D01*
X321021428Y-20214285D02*
X320735714Y-20357142D01*
X320164285Y-20357142D01*
X319878571Y-20214285D01*
X319735714Y-19928571D01*
X319735714Y-18785714D01*
X319878571Y-18500000D01*
X320164285Y-18357142D01*
X320735714Y-18357142D01*
X321021428Y-18500000D01*
X321164285Y-18785714D01*
X321164285Y-19071428D01*
X319735714Y-19357142D01*
X323735714Y-20357142D02*
X323735714Y-17357142D01*
X323735714Y-20214285D02*
X323450000Y-20357142D01*
X322878571Y-20357142D01*
X322592857Y-20214285D01*
X322450000Y-20071428D01*
X322307142Y-19785714D01*
X322307142Y-18928571D01*
X322450000Y-18642857D01*
X322592857Y-18500000D01*
X322878571Y-18357142D01*
X323450000Y-18357142D01*
X323735714Y-18500000D01*
X325164285Y-20071428D02*
X325307142Y-20214285D01*
X325164285Y-20357142D01*
X325021428Y-20214285D01*
X325164285Y-20071428D01*
X325164285Y-20357142D01*
X211949999Y-24214285D02*
X214235714Y-24214285D01*
X217521428Y-22357142D02*
X218521428Y-25357142D01*
X219521428Y-22357142D01*
X220521428Y-24214285D02*
X222807142Y-24214285D01*
X224092857Y-25214285D02*
X224378571Y-25357142D01*
X224949999Y-25357142D01*
X225235714Y-25214285D01*
X225378571Y-24928571D01*
X225378571Y-24785714D01*
X225235714Y-24500000D01*
X224949999Y-24357142D01*
X224521428Y-24357142D01*
X224235714Y-24214285D01*
X224092857Y-23928571D01*
X224092857Y-23785714D01*
X224235714Y-23500000D01*
X224521428Y-23357142D01*
X224949999Y-23357142D01*
X225235714Y-23500000D01*
X227949999Y-25214285D02*
X227664285Y-25357142D01*
X227092857Y-25357142D01*
X226807142Y-25214285D01*
X226664285Y-25071428D01*
X226521428Y-24785714D01*
X226521428Y-23928571D01*
X226664285Y-23642857D01*
X226807142Y-23500000D01*
X227092857Y-23357142D01*
X227664285Y-23357142D01*
X227949999Y-23500000D01*
X229664285Y-25357142D02*
X229378571Y-25214285D01*
X229235714Y-25071428D01*
X229092857Y-24785714D01*
X229092857Y-23928571D01*
X229235714Y-23642857D01*
X229378571Y-23500000D01*
X229664285Y-23357142D01*
X230092857Y-23357142D01*
X230378571Y-23500000D01*
X230521428Y-23642857D01*
X230664285Y-23928571D01*
X230664285Y-24785714D01*
X230521428Y-25071428D01*
X230378571Y-25214285D01*
X230092857Y-25357142D01*
X229664285Y-25357142D01*
X231949999Y-25357142D02*
X231949999Y-23357142D01*
X231949999Y-23928571D02*
X232092857Y-23642857D01*
X232235714Y-23500000D01*
X232521428Y-23357142D01*
X232807142Y-23357142D01*
X234950000Y-25214285D02*
X234664285Y-25357142D01*
X234092857Y-25357142D01*
X233807142Y-25214285D01*
X233664285Y-24928571D01*
X233664285Y-23785714D01*
X233807142Y-23500000D01*
X234092857Y-23357142D01*
X234664285Y-23357142D01*
X234950000Y-23500000D01*
X235092857Y-23785714D01*
X235092857Y-24071428D01*
X233664285Y-24357142D01*
X239950000Y-25357142D02*
X239950000Y-23785714D01*
X239807142Y-23500000D01*
X239521428Y-23357142D01*
X238950000Y-23357142D01*
X238664285Y-23500000D01*
X239950000Y-25214285D02*
X239664285Y-25357142D01*
X238950000Y-25357142D01*
X238664285Y-25214285D01*
X238521428Y-24928571D01*
X238521428Y-24642857D01*
X238664285Y-24357142D01*
X238950000Y-24214285D01*
X239664285Y-24214285D01*
X239950000Y-24071428D01*
X241378571Y-23357142D02*
X241378571Y-25357142D01*
X241378571Y-23642857D02*
X241521428Y-23500000D01*
X241807142Y-23357142D01*
X242235714Y-23357142D01*
X242521428Y-23500000D01*
X242664285Y-23785714D01*
X242664285Y-25357142D01*
X245378571Y-25357142D02*
X245378571Y-22357142D01*
X245378571Y-25214285D02*
X245092857Y-25357142D01*
X244521428Y-25357142D01*
X244235714Y-25214285D01*
X244092857Y-25071428D01*
X243949999Y-24785714D01*
X243949999Y-23928571D01*
X244092857Y-23642857D01*
X244235714Y-23500000D01*
X244521428Y-23357142D01*
X245092857Y-23357142D01*
X245378571Y-23500000D01*
X248950000Y-22214285D02*
X246378571Y-26071428D01*
X250378571Y-25357142D02*
X250092857Y-25214285D01*
X249950000Y-25071428D01*
X249807142Y-24785714D01*
X249807142Y-23928571D01*
X249950000Y-23642857D01*
X250092857Y-23500000D01*
X250378571Y-23357142D01*
X250807142Y-23357142D01*
X251092857Y-23500000D01*
X251235714Y-23642857D01*
X251378571Y-23928571D01*
X251378571Y-24785714D01*
X251235714Y-25071428D01*
X251092857Y-25214285D01*
X250807142Y-25357142D01*
X250378571Y-25357142D01*
X252664285Y-25357142D02*
X252664285Y-23357142D01*
X252664285Y-23928571D02*
X252807142Y-23642857D01*
X252950000Y-23500000D01*
X253235714Y-23357142D01*
X253521428Y-23357142D01*
X256807142Y-25357142D02*
X256807142Y-23357142D01*
X256807142Y-23642857D02*
X256950000Y-23500000D01*
X257235714Y-23357142D01*
X257664285Y-23357142D01*
X257950000Y-23500000D01*
X258092857Y-23785714D01*
X258092857Y-25357142D01*
X258092857Y-23785714D02*
X258235714Y-23500000D01*
X258521428Y-23357142D01*
X258950000Y-23357142D01*
X259235714Y-23500000D01*
X259378571Y-23785714D01*
X259378571Y-25357142D01*
X261235714Y-25357142D02*
X260950000Y-25214285D01*
X260807142Y-25071428D01*
X260664285Y-24785714D01*
X260664285Y-23928571D01*
X260807142Y-23642857D01*
X260950000Y-23500000D01*
X261235714Y-23357142D01*
X261664285Y-23357142D01*
X261950000Y-23500000D01*
X262092857Y-23642857D01*
X262235714Y-23928571D01*
X262235714Y-24785714D01*
X262092857Y-25071428D01*
X261950000Y-25214285D01*
X261664285Y-25357142D01*
X261235714Y-25357142D01*
X264807142Y-23357142D02*
X264807142Y-25357142D01*
X263521428Y-23357142D02*
X263521428Y-24928571D01*
X263664285Y-25214285D01*
X263950000Y-25357142D01*
X264378571Y-25357142D01*
X264664285Y-25214285D01*
X264807142Y-25071428D01*
X266092857Y-25214285D02*
X266378571Y-25357142D01*
X266950000Y-25357142D01*
X267235714Y-25214285D01*
X267378571Y-24928571D01*
X267378571Y-24785714D01*
X267235714Y-24500000D01*
X266950000Y-24357142D01*
X266521428Y-24357142D01*
X266235714Y-24214285D01*
X266092857Y-23928571D01*
X266092857Y-23785714D01*
X266235714Y-23500000D01*
X266521428Y-23357142D01*
X266950000Y-23357142D01*
X267235714Y-23500000D01*
X269807142Y-25214285D02*
X269521428Y-25357142D01*
X268950000Y-25357142D01*
X268664285Y-25214285D01*
X268521428Y-24928571D01*
X268521428Y-23785714D01*
X268664285Y-23500000D01*
X268950000Y-23357142D01*
X269521428Y-23357142D01*
X269807142Y-23500000D01*
X269950000Y-23785714D01*
X269950000Y-24071428D01*
X268521428Y-24357142D01*
X271235714Y-24214285D02*
X273521428Y-24214285D01*
X274950000Y-25357142D02*
X274950000Y-22357142D01*
X274950000Y-23500000D02*
X275235714Y-23357142D01*
X275807142Y-23357142D01*
X276092857Y-23500000D01*
X276235714Y-23642857D01*
X276378571Y-23928571D01*
X276378571Y-24785714D01*
X276235714Y-25071428D01*
X276092857Y-25214285D01*
X275807142Y-25357142D01*
X275235714Y-25357142D01*
X274950000Y-25214285D01*
X277664285Y-25357142D02*
X277664285Y-23357142D01*
X277664285Y-22357142D02*
X277521428Y-22500000D01*
X277664285Y-22642857D01*
X277807142Y-22500000D01*
X277664285Y-22357142D01*
X277664285Y-22642857D01*
X278664285Y-23357142D02*
X279807142Y-23357142D01*
X279092857Y-22357142D02*
X279092857Y-24928571D01*
X279235714Y-25214285D01*
X279521428Y-25357142D01*
X279807142Y-25357142D01*
X281950000Y-25214285D02*
X281664285Y-25357142D01*
X281092857Y-25357142D01*
X280807142Y-25214285D01*
X280664285Y-24928571D01*
X280664285Y-23785714D01*
X280807142Y-23500000D01*
X281092857Y-23357142D01*
X281664285Y-23357142D01*
X281950000Y-23500000D01*
X282092857Y-23785714D01*
X282092857Y-24071428D01*
X280664285Y-24357142D01*
X283235714Y-25214285D02*
X283521428Y-25357142D01*
X284092857Y-25357142D01*
X284378571Y-25214285D01*
X284521428Y-24928571D01*
X284521428Y-24785714D01*
X284378571Y-24500000D01*
X284092857Y-24357142D01*
X283664285Y-24357142D01*
X283378571Y-24214285D01*
X283235714Y-23928571D01*
X283235714Y-23785714D01*
X283378571Y-23500000D01*
X283664285Y-23357142D01*
X284092857Y-23357142D01*
X284378571Y-23500000D01*
X289378571Y-25357142D02*
X289378571Y-23785714D01*
X289235714Y-23500000D01*
X288950000Y-23357142D01*
X288378571Y-23357142D01*
X288092857Y-23500000D01*
X289378571Y-25214285D02*
X289092857Y-25357142D01*
X288378571Y-25357142D01*
X288092857Y-25214285D01*
X287950000Y-24928571D01*
X287950000Y-24642857D01*
X288092857Y-24357142D01*
X288378571Y-24214285D01*
X289092857Y-24214285D01*
X289378571Y-24071428D01*
X290807142Y-25357142D02*
X290807142Y-23357142D01*
X290807142Y-23928571D02*
X290950000Y-23642857D01*
X291092857Y-23500000D01*
X291378571Y-23357142D01*
X291664285Y-23357142D01*
X293807142Y-25214285D02*
X293521428Y-25357142D01*
X292950000Y-25357142D01*
X292664285Y-25214285D01*
X292521428Y-24928571D01*
X292521428Y-23785714D01*
X292664285Y-23500000D01*
X292950000Y-23357142D01*
X293521428Y-23357142D01*
X293807142Y-23500000D01*
X293950000Y-23785714D01*
X293950000Y-24071428D01*
X292521428Y-24357142D01*
X298807142Y-25357142D02*
X298807142Y-23785714D01*
X298664285Y-23500000D01*
X298378571Y-23357142D01*
X297807142Y-23357142D01*
X297521428Y-23500000D01*
X298807142Y-25214285D02*
X298521428Y-25357142D01*
X297807142Y-25357142D01*
X297521428Y-25214285D01*
X297378571Y-24928571D01*
X297378571Y-24642857D01*
X297521428Y-24357142D01*
X297807142Y-24214285D01*
X298521428Y-24214285D01*
X298807142Y-24071428D01*
X301521428Y-25214285D02*
X301235714Y-25357142D01*
X300664285Y-25357142D01*
X300378571Y-25214285D01*
X300235714Y-25071428D01*
X300092857Y-24785714D01*
X300092857Y-23928571D01*
X300235714Y-23642857D01*
X300378571Y-23500000D01*
X300664285Y-23357142D01*
X301235714Y-23357142D01*
X301521428Y-23500000D01*
X304092857Y-25214285D02*
X303807142Y-25357142D01*
X303235714Y-25357142D01*
X302950000Y-25214285D01*
X302807142Y-25071428D01*
X302664285Y-24785714D01*
X302664285Y-23928571D01*
X302807142Y-23642857D01*
X302950000Y-23500000D01*
X303235714Y-23357142D01*
X303807142Y-23357142D01*
X304092857Y-23500000D01*
X306521428Y-25214285D02*
X306235714Y-25357142D01*
X305664285Y-25357142D01*
X305378571Y-25214285D01*
X305235714Y-24928571D01*
X305235714Y-23785714D01*
X305378571Y-23500000D01*
X305664285Y-23357142D01*
X306235714Y-23357142D01*
X306521428Y-23500000D01*
X306664285Y-23785714D01*
X306664285Y-24071428D01*
X305235714Y-24357142D01*
X307950000Y-23357142D02*
X307950000Y-26357142D01*
X307950000Y-23500000D02*
X308235714Y-23357142D01*
X308807142Y-23357142D01*
X309092857Y-23500000D01*
X309235714Y-23642857D01*
X309378571Y-23928571D01*
X309378571Y-24785714D01*
X309235714Y-25071428D01*
X309092857Y-25214285D01*
X308807142Y-25357142D01*
X308235714Y-25357142D01*
X307950000Y-25214285D01*
X310235714Y-23357142D02*
X311378571Y-23357142D01*
X310664285Y-22357142D02*
X310664285Y-24928571D01*
X310807142Y-25214285D01*
X311092857Y-25357142D01*
X311378571Y-25357142D01*
X313664285Y-25357142D02*
X313664285Y-23785714D01*
X313521428Y-23500000D01*
X313235714Y-23357142D01*
X312664285Y-23357142D01*
X312378571Y-23500000D01*
X313664285Y-25214285D02*
X313378571Y-25357142D01*
X312664285Y-25357142D01*
X312378571Y-25214285D01*
X312235714Y-24928571D01*
X312235714Y-24642857D01*
X312378571Y-24357142D01*
X312664285Y-24214285D01*
X313378571Y-24214285D01*
X313664285Y-24071428D01*
X315092857Y-25357142D02*
X315092857Y-22357142D01*
X315092857Y-23500000D02*
X315378571Y-23357142D01*
X315950000Y-23357142D01*
X316235714Y-23500000D01*
X316378571Y-23642857D01*
X316521428Y-23928571D01*
X316521428Y-24785714D01*
X316378571Y-25071428D01*
X316235714Y-25214285D01*
X315950000Y-25357142D01*
X315378571Y-25357142D01*
X315092857Y-25214285D01*
X318235714Y-25357142D02*
X317950000Y-25214285D01*
X317807142Y-24928571D01*
X317807142Y-22357142D01*
X320521428Y-25214285D02*
X320235714Y-25357142D01*
X319664285Y-25357142D01*
X319378571Y-25214285D01*
X319235714Y-24928571D01*
X319235714Y-23785714D01*
X319378571Y-23500000D01*
X319664285Y-23357142D01*
X320235714Y-23357142D01*
X320521428Y-23500000D01*
X320664285Y-23785714D01*
X320664285Y-24071428D01*
X319235714Y-24357142D01*
X321950000Y-25071428D02*
X322092857Y-25214285D01*
X321950000Y-25357142D01*
X321807142Y-25214285D01*
X321950000Y-25071428D01*
X321950000Y-25357142D01*
X321950000Y-24214285D02*
X321807142Y-22500000D01*
X321950000Y-22357142D01*
X322092857Y-22500000D01*
X321950000Y-24214285D01*
X321950000Y-22357142D01*
X231592857Y785714D02*
X233878571Y785714D01*
X237164285Y2642857D02*
X238878571Y2642857D01*
X238021428Y-357142D02*
X238021428Y2642857D01*
X239878571Y-357142D02*
X239878571Y2642857D01*
X241164285Y-357142D02*
X241164285Y1214285D01*
X241021428Y1500000D01*
X240735714Y1642857D01*
X240307142Y1642857D01*
X240021428Y1500000D01*
X239878571Y1357142D01*
X242592857Y-357142D02*
X242592857Y1642857D01*
X242592857Y2642857D02*
X242450000Y2500000D01*
X242592857Y2357142D01*
X242735714Y2500000D01*
X242592857Y2642857D01*
X242592857Y2357142D01*
X243878571Y-214285D02*
X244164285Y-357142D01*
X244735714Y-357142D01*
X245021428Y-214285D01*
X245164285Y71428D01*
X245164285Y214285D01*
X245021428Y500000D01*
X244735714Y642857D01*
X244307142Y642857D01*
X244021428Y785714D01*
X243878571Y1071428D01*
X243878571Y1214285D01*
X244021428Y1500000D01*
X244307142Y1642857D01*
X244735714Y1642857D01*
X245021428Y1500000D01*
X248735714Y-357142D02*
X248735714Y1642857D01*
X248735714Y2642857D02*
X248592857Y2500000D01*
X248735714Y2357142D01*
X248878571Y2500000D01*
X248735714Y2642857D01*
X248735714Y2357142D01*
X250021428Y-214285D02*
X250307142Y-357142D01*
X250878571Y-357142D01*
X251164285Y-214285D01*
X251307142Y71428D01*
X251307142Y214285D01*
X251164285Y500000D01*
X250878571Y642857D01*
X250450000Y642857D01*
X250164285Y785714D01*
X250021428Y1071428D01*
X250021428Y1214285D01*
X250164285Y1500000D01*
X250450000Y1642857D01*
X250878571Y1642857D01*
X251164285Y1500000D01*
X256164285Y-357142D02*
X256164285Y1214285D01*
X256021428Y1500000D01*
X255735714Y1642857D01*
X255164285Y1642857D01*
X254878571Y1500000D01*
X256164285Y-214285D02*
X255878571Y-357142D01*
X255164285Y-357142D01*
X254878571Y-214285D01*
X254735714Y71428D01*
X254735714Y357142D01*
X254878571Y642857D01*
X255164285Y785714D01*
X255878571Y785714D01*
X256164285Y928571D01*
X261164285Y-214285D02*
X260878571Y-357142D01*
X260307142Y-357142D01*
X260021428Y-214285D01*
X259878571Y-71428D01*
X259735714Y214285D01*
X259735714Y1071428D01*
X259878571Y1357142D01*
X260021428Y1500000D01*
X260307142Y1642857D01*
X260878571Y1642857D01*
X261164285Y1500000D01*
X262878571Y-357142D02*
X262592857Y-214285D01*
X262450000Y-71428D01*
X262307142Y214285D01*
X262307142Y1071428D01*
X262450000Y1357142D01*
X262592857Y1500000D01*
X262878571Y1642857D01*
X263307142Y1642857D01*
X263592857Y1500000D01*
X263735714Y1357142D01*
X263878571Y1071428D01*
X263878571Y214285D01*
X263735714Y-71428D01*
X263592857Y-214285D01*
X263307142Y-357142D01*
X262878571Y-357142D01*
X265164285Y-357142D02*
X265164285Y1642857D01*
X265164285Y1357142D02*
X265307142Y1500000D01*
X265592857Y1642857D01*
X266021428Y1642857D01*
X266307142Y1500000D01*
X266450000Y1214285D01*
X266450000Y-357142D01*
X266450000Y1214285D02*
X266592857Y1500000D01*
X266878571Y1642857D01*
X267307142Y1642857D01*
X267592857Y1500000D01*
X267735714Y1214285D01*
X267735714Y-357142D01*
X269164285Y1642857D02*
X269164285Y-1357142D01*
X269164285Y1500000D02*
X269450000Y1642857D01*
X270021428Y1642857D01*
X270307142Y1500000D01*
X270450000Y1357142D01*
X270592857Y1071428D01*
X270592857Y214285D01*
X270450000Y-71428D01*
X270307142Y-214285D01*
X270021428Y-357142D01*
X269450000Y-357142D01*
X269164285Y-214285D01*
X272307142Y-357142D02*
X272021428Y-214285D01*
X271878571Y-71428D01*
X271735714Y214285D01*
X271735714Y1071428D01*
X271878571Y1357142D01*
X272021428Y1500000D01*
X272307142Y1642857D01*
X272735714Y1642857D01*
X273021428Y1500000D01*
X273164285Y1357142D01*
X273307142Y1071428D01*
X273307142Y214285D01*
X273164285Y-71428D01*
X273021428Y-214285D01*
X272735714Y-357142D01*
X272307142Y-357142D01*
X274592857Y1642857D02*
X274592857Y-357142D01*
X274592857Y1357142D02*
X274735714Y1500000D01*
X275021428Y1642857D01*
X275450000Y1642857D01*
X275735714Y1500000D01*
X275878571Y1214285D01*
X275878571Y-357142D01*
X278450000Y-214285D02*
X278164285Y-357142D01*
X277592857Y-357142D01*
X277307142Y-214285D01*
X277164285Y71428D01*
X277164285Y1214285D01*
X277307142Y1500000D01*
X277592857Y1642857D01*
X278164285Y1642857D01*
X278450000Y1500000D01*
X278592857Y1214285D01*
X278592857Y928571D01*
X277164285Y642857D01*
X279878571Y1642857D02*
X279878571Y-357142D01*
X279878571Y1357142D02*
X280021428Y1500000D01*
X280307142Y1642857D01*
X280735714Y1642857D01*
X281021428Y1500000D01*
X281164285Y1214285D01*
X281164285Y-357142D01*
X282164285Y1642857D02*
X283307142Y1642857D01*
X282592857Y2642857D02*
X282592857Y71428D01*
X282735714Y-214285D01*
X283021428Y-357142D01*
X283307142Y-357142D01*
X286592857Y-357142D02*
X286592857Y2642857D01*
X286592857Y1500000D02*
X286878571Y1642857D01*
X287450000Y1642857D01*
X287735714Y1500000D01*
X287878571Y1357142D01*
X288021428Y1071428D01*
X288021428Y214285D01*
X287878571Y-71428D01*
X287735714Y-214285D01*
X287450000Y-357142D01*
X286878571Y-357142D01*
X286592857Y-214285D01*
X289735714Y-357142D02*
X289450000Y-214285D01*
X289307142Y-71428D01*
X289164285Y214285D01*
X289164285Y1071428D01*
X289307142Y1357142D01*
X289450000Y1500000D01*
X289735714Y1642857D01*
X290164285Y1642857D01*
X290450000Y1500000D01*
X290592857Y1357142D01*
X290735714Y1071428D01*
X290735714Y214285D01*
X290592857Y-71428D01*
X290450000Y-214285D01*
X290164285Y-357142D01*
X289735714Y-357142D01*
X293307142Y-357142D02*
X293307142Y1214285D01*
X293164285Y1500000D01*
X292878571Y1642857D01*
X292307142Y1642857D01*
X292021428Y1500000D01*
X293307142Y-214285D02*
X293021428Y-357142D01*
X292307142Y-357142D01*
X292021428Y-214285D01*
X291878571Y71428D01*
X291878571Y357142D01*
X292021428Y642857D01*
X292307142Y785714D01*
X293021428Y785714D01*
X293307142Y928571D01*
X294735714Y-357142D02*
X294735714Y1642857D01*
X294735714Y1071428D02*
X294878571Y1357142D01*
X295021428Y1500000D01*
X295307142Y1642857D01*
X295592857Y1642857D01*
X297878571Y-357142D02*
X297878571Y2642857D01*
X297878571Y-214285D02*
X297592857Y-357142D01*
X297021428Y-357142D01*
X296735714Y-214285D01*
X296592857Y-71428D01*
X296450000Y214285D01*
X296450000Y1071428D01*
X296592857Y1357142D01*
X296735714Y1500000D01*
X297021428Y1642857D01*
X297592857Y1642857D01*
X297878571Y1500000D01*
X299307142Y-71428D02*
X299450000Y-214285D01*
X299307142Y-357142D01*
X299164285Y-214285D01*
X299307142Y-71428D01*
X299307142Y-357142D01*
X209450000Y-74214285D02*
X211735714Y-74214285D01*
X215450000Y-75357142D02*
X215450000Y-72357142D01*
X216450000Y-74500000D01*
X217450000Y-72357142D01*
X217450000Y-75357142D01*
X218878571Y-75357142D02*
X218878571Y-73357142D01*
X218878571Y-72357142D02*
X218735714Y-72500000D01*
X218878571Y-72642857D01*
X219021428Y-72500000D01*
X218878571Y-72357142D01*
X218878571Y-72642857D01*
X220307142Y-73357142D02*
X220307142Y-75357142D01*
X220307142Y-73642857D02*
X220450000Y-73500000D01*
X220735714Y-73357142D01*
X221164285Y-73357142D01*
X221450000Y-73500000D01*
X221592857Y-73785714D01*
X221592857Y-75357142D01*
X224878571Y-73357142D02*
X226021428Y-73357142D01*
X225307142Y-72357142D02*
X225307142Y-74928571D01*
X225450000Y-75214285D01*
X225735714Y-75357142D01*
X226021428Y-75357142D01*
X227021428Y-75357142D02*
X227021428Y-73357142D01*
X227021428Y-73928571D02*
X227164285Y-73642857D01*
X227307142Y-73500000D01*
X227592857Y-73357142D01*
X227878571Y-73357142D01*
X230164285Y-75357142D02*
X230164285Y-73785714D01*
X230021428Y-73500000D01*
X229735714Y-73357142D01*
X229164285Y-73357142D01*
X228878571Y-73500000D01*
X230164285Y-75214285D02*
X229878571Y-75357142D01*
X229164285Y-75357142D01*
X228878571Y-75214285D01*
X228735714Y-74928571D01*
X228735714Y-74642857D01*
X228878571Y-74357142D01*
X229164285Y-74214285D01*
X229878571Y-74214285D01*
X230164285Y-74071428D01*
X232878571Y-75214285D02*
X232592857Y-75357142D01*
X232021428Y-75357142D01*
X231735714Y-75214285D01*
X231592857Y-75071428D01*
X231450000Y-74785714D01*
X231450000Y-73928571D01*
X231592857Y-73642857D01*
X231735714Y-73500000D01*
X232021428Y-73357142D01*
X232592857Y-73357142D01*
X232878571Y-73500000D01*
X235307142Y-75214285D02*
X235021428Y-75357142D01*
X234450000Y-75357142D01*
X234164285Y-75214285D01*
X234021428Y-74928571D01*
X234021428Y-73785714D01*
X234164285Y-73500000D01*
X234450000Y-73357142D01*
X235021428Y-73357142D01*
X235307142Y-73500000D01*
X235450000Y-73785714D01*
X235450000Y-74071428D01*
X234021428Y-74357142D01*
X238878571Y-72214285D02*
X236307142Y-76071428D01*
X239735714Y-75214285D02*
X240021428Y-75357142D01*
X240592857Y-75357142D01*
X240878571Y-75214285D01*
X241021428Y-74928571D01*
X241021428Y-74785714D01*
X240878571Y-74500000D01*
X240592857Y-74357142D01*
X240164285Y-74357142D01*
X239878571Y-74214285D01*
X239735714Y-73928571D01*
X239735714Y-73785714D01*
X239878571Y-73500000D01*
X240164285Y-73357142D01*
X240592857Y-73357142D01*
X240878571Y-73500000D01*
X242307142Y-73357142D02*
X242307142Y-76357142D01*
X242307142Y-73500000D02*
X242592857Y-73357142D01*
X243164285Y-73357142D01*
X243450000Y-73500000D01*
X243592857Y-73642857D01*
X243735714Y-73928571D01*
X243735714Y-74785714D01*
X243592857Y-75071428D01*
X243450000Y-75214285D01*
X243164285Y-75357142D01*
X242592857Y-75357142D01*
X242307142Y-75214285D01*
X246307142Y-75357142D02*
X246307142Y-73785714D01*
X246164285Y-73500000D01*
X245878571Y-73357142D01*
X245307142Y-73357142D01*
X245021428Y-73500000D01*
X246307142Y-75214285D02*
X246021428Y-75357142D01*
X245307142Y-75357142D01*
X245021428Y-75214285D01*
X244878571Y-74928571D01*
X244878571Y-74642857D01*
X245021428Y-74357142D01*
X245307142Y-74214285D01*
X246021428Y-74214285D01*
X246307142Y-74071428D01*
X249021428Y-75214285D02*
X248735714Y-75357142D01*
X248164285Y-75357142D01*
X247878571Y-75214285D01*
X247735714Y-75071428D01*
X247592857Y-74785714D01*
X247592857Y-73928571D01*
X247735714Y-73642857D01*
X247878571Y-73500000D01*
X248164285Y-73357142D01*
X248735714Y-73357142D01*
X249021428Y-73500000D01*
X251450000Y-75214285D02*
X251164285Y-75357142D01*
X250592857Y-75357142D01*
X250307142Y-75214285D01*
X250164285Y-74928571D01*
X250164285Y-73785714D01*
X250307142Y-73500000D01*
X250592857Y-73357142D01*
X251164285Y-73357142D01*
X251450000Y-73500000D01*
X251592857Y-73785714D01*
X251592857Y-74071428D01*
X250164285Y-74357142D01*
X255164285Y-73785714D02*
X257450000Y-73785714D01*
X257450000Y-74642857D02*
X255164285Y-74642857D01*
X261735714Y-72357142D02*
X262021428Y-72357142D01*
X262307142Y-72500000D01*
X262450000Y-72642857D01*
X262592857Y-72928571D01*
X262735714Y-73500000D01*
X262735714Y-74214285D01*
X262592857Y-74785714D01*
X262450000Y-75071428D01*
X262307142Y-75214285D01*
X262021428Y-75357142D01*
X261735714Y-75357142D01*
X261450000Y-75214285D01*
X261307142Y-75071428D01*
X261164285Y-74785714D01*
X261021428Y-74214285D01*
X261021428Y-73500000D01*
X261164285Y-72928571D01*
X261307142Y-72642857D01*
X261450000Y-72500000D01*
X261735714Y-72357142D01*
X264021428Y-75071428D02*
X264164285Y-75214285D01*
X264021428Y-75357142D01*
X263878571Y-75214285D01*
X264021428Y-75071428D01*
X264021428Y-75357142D01*
X267021428Y-75357142D02*
X265307142Y-75357142D01*
X266164285Y-75357142D02*
X266164285Y-72357142D01*
X265878571Y-72785714D01*
X265592857Y-73071428D01*
X265307142Y-73214285D01*
X269735714Y-72357142D02*
X268307142Y-72357142D01*
X268164285Y-73785714D01*
X268307142Y-73642857D01*
X268592857Y-73500000D01*
X269307142Y-73500000D01*
X269592857Y-73642857D01*
X269735714Y-73785714D01*
X269878571Y-74071428D01*
X269878571Y-74785714D01*
X269735714Y-75071428D01*
X269592857Y-75214285D01*
X269307142Y-75357142D01*
X268592857Y-75357142D01*
X268307142Y-75214285D01*
X268164285Y-75071428D01*
X271021428Y-72642857D02*
X271164285Y-72500000D01*
X271450000Y-72357142D01*
X272164285Y-72357142D01*
X272450000Y-72500000D01*
X272592857Y-72642857D01*
X272735714Y-72928571D01*
X272735714Y-73214285D01*
X272592857Y-73642857D01*
X270878571Y-75357142D01*
X272735714Y-75357142D01*
X275307142Y-73357142D02*
X275307142Y-75357142D01*
X274592857Y-72214285D02*
X273878571Y-74357142D01*
X275735714Y-74357142D01*
X279021428Y-72214285D02*
X276450000Y-76071428D01*
X280592857Y-72357142D02*
X280878571Y-72357142D01*
X281164285Y-72500000D01*
X281307142Y-72642857D01*
X281450000Y-72928571D01*
X281592857Y-73500000D01*
X281592857Y-74214285D01*
X281450000Y-74785714D01*
X281307142Y-75071428D01*
X281164285Y-75214285D01*
X280878571Y-75357142D01*
X280592857Y-75357142D01*
X280307142Y-75214285D01*
X280164285Y-75071428D01*
X280021428Y-74785714D01*
X279878571Y-74214285D01*
X279878571Y-73500000D01*
X280021428Y-72928571D01*
X280164285Y-72642857D01*
X280307142Y-72500000D01*
X280592857Y-72357142D01*
X282878571Y-75071428D02*
X283021428Y-75214285D01*
X282878571Y-75357142D01*
X282735714Y-75214285D01*
X282878571Y-75071428D01*
X282878571Y-75357142D01*
X285878571Y-75357142D02*
X284164285Y-75357142D01*
X285021428Y-75357142D02*
X285021428Y-72357142D01*
X284735714Y-72785714D01*
X284450000Y-73071428D01*
X284164285Y-73214285D01*
X288592857Y-72357142D02*
X287164285Y-72357142D01*
X287021428Y-73785714D01*
X287164285Y-73642857D01*
X287450000Y-73500000D01*
X288164285Y-73500000D01*
X288450000Y-73642857D01*
X288592857Y-73785714D01*
X288735714Y-74071428D01*
X288735714Y-74785714D01*
X288592857Y-75071428D01*
X288450000Y-75214285D01*
X288164285Y-75357142D01*
X287450000Y-75357142D01*
X287164285Y-75214285D01*
X287021428Y-75071428D01*
X289878571Y-72642857D02*
X290021428Y-72500000D01*
X290307142Y-72357142D01*
X291021428Y-72357142D01*
X291307142Y-72500000D01*
X291450000Y-72642857D01*
X291592857Y-72928571D01*
X291592857Y-73214285D01*
X291450000Y-73642857D01*
X289735714Y-75357142D01*
X291592857Y-75357142D01*
X294164285Y-73357142D02*
X294164285Y-75357142D01*
X293450000Y-72214285D02*
X292735714Y-74357142D01*
X294592857Y-74357142D01*
X295735714Y-75357142D02*
X295735714Y-73357142D01*
X295735714Y-73642857D02*
X295878571Y-73500000D01*
X296164285Y-73357142D01*
X296592857Y-73357142D01*
X296878571Y-73500000D01*
X297021428Y-73785714D01*
X297021428Y-75357142D01*
X297021428Y-73785714D02*
X297164285Y-73500000D01*
X297450000Y-73357142D01*
X297878571Y-73357142D01*
X298164285Y-73500000D01*
X298307142Y-73785714D01*
X298307142Y-75357142D01*
X299735714Y-75357142D02*
X299735714Y-73357142D01*
X299735714Y-73642857D02*
X299878571Y-73500000D01*
X300164285Y-73357142D01*
X300592857Y-73357142D01*
X300878571Y-73500000D01*
X301021428Y-73785714D01*
X301021428Y-75357142D01*
X301021428Y-73785714D02*
X301164285Y-73500000D01*
X301450000Y-73357142D01*
X301878571Y-73357142D01*
X302164285Y-73500000D01*
X302307142Y-73785714D01*
X302307142Y-75357142D01*
X306878571Y-76500000D02*
X306735714Y-76357142D01*
X306450000Y-75928571D01*
X306307142Y-75642857D01*
X306164285Y-75214285D01*
X306021428Y-74500000D01*
X306021428Y-73928571D01*
X306164285Y-73214285D01*
X306307142Y-72785714D01*
X306450000Y-72500000D01*
X306735714Y-72071428D01*
X306878571Y-71928571D01*
X309307142Y-72357142D02*
X308735714Y-72357142D01*
X308450000Y-72500000D01*
X308307142Y-72642857D01*
X308021428Y-73071428D01*
X307878571Y-73642857D01*
X307878571Y-74785714D01*
X308021428Y-75071428D01*
X308164285Y-75214285D01*
X308450000Y-75357142D01*
X309021428Y-75357142D01*
X309307142Y-75214285D01*
X309450000Y-75071428D01*
X309592857Y-74785714D01*
X309592857Y-74071428D01*
X309450000Y-73785714D01*
X309307142Y-73642857D01*
X309021428Y-73500000D01*
X308450000Y-73500000D01*
X308164285Y-73642857D01*
X308021428Y-73785714D01*
X307878571Y-74071428D01*
X313021428Y-72214285D02*
X310450000Y-76071428D01*
X315307142Y-72357142D02*
X314735714Y-72357142D01*
X314450000Y-72500000D01*
X314307142Y-72642857D01*
X314021428Y-73071428D01*
X313878571Y-73642857D01*
X313878571Y-74785714D01*
X314021428Y-75071428D01*
X314164285Y-75214285D01*
X314450000Y-75357142D01*
X315021428Y-75357142D01*
X315307142Y-75214285D01*
X315450000Y-75071428D01*
X315592857Y-74785714D01*
X315592857Y-74071428D01*
X315450000Y-73785714D01*
X315307142Y-73642857D01*
X315021428Y-73500000D01*
X314450000Y-73500000D01*
X314164285Y-73642857D01*
X314021428Y-73785714D01*
X313878571Y-74071428D01*
X316878571Y-75357142D02*
X316878571Y-73357142D01*
X316878571Y-73642857D02*
X317021428Y-73500000D01*
X317307142Y-73357142D01*
X317735714Y-73357142D01*
X318021428Y-73500000D01*
X318164285Y-73785714D01*
X318164285Y-75357142D01*
X318164285Y-73785714D02*
X318307142Y-73500000D01*
X318592857Y-73357142D01*
X319021428Y-73357142D01*
X319307142Y-73500000D01*
X319450000Y-73785714D01*
X319450000Y-75357142D01*
X320878571Y-75357142D02*
X320878571Y-73357142D01*
X320878571Y-72357142D02*
X320735714Y-72500000D01*
X320878571Y-72642857D01*
X321021428Y-72500000D01*
X320878571Y-72357142D01*
X320878571Y-72642857D01*
X322735714Y-75357142D02*
X322450000Y-75214285D01*
X322307142Y-74928571D01*
X322307142Y-72357142D01*
X323592857Y-76500000D02*
X323735714Y-76357142D01*
X324021428Y-75928571D01*
X324164285Y-75642857D01*
X324307142Y-75214285D01*
X324450000Y-74500000D01*
X324450000Y-73928571D01*
X324307142Y-73214285D01*
X324164285Y-72785714D01*
X324021428Y-72500000D01*
X323735714Y-72071428D01*
X323592857Y-71928571D01*
X249592857Y-59214285D02*
X251878571Y-59214285D01*
X255592857Y-60357142D02*
X255592857Y-57357142D01*
X256592857Y-59500000D01*
X257592857Y-57357142D01*
X257592857Y-60357142D01*
X260307142Y-60357142D02*
X260307142Y-58785714D01*
X260164285Y-58500000D01*
X259878571Y-58357142D01*
X259307142Y-58357142D01*
X259021428Y-58500000D01*
X260307142Y-60214285D02*
X260021428Y-60357142D01*
X259307142Y-60357142D01*
X259021428Y-60214285D01*
X258878571Y-59928571D01*
X258878571Y-59642857D01*
X259021428Y-59357142D01*
X259307142Y-59214285D01*
X260021428Y-59214285D01*
X260307142Y-59071428D01*
X261307142Y-58357142D02*
X262450000Y-58357142D01*
X261735714Y-57357142D02*
X261735714Y-59928571D01*
X261878571Y-60214285D01*
X262164285Y-60357142D01*
X262450000Y-60357142D01*
X264592857Y-60214285D02*
X264307142Y-60357142D01*
X263735714Y-60357142D01*
X263450000Y-60214285D01*
X263307142Y-59928571D01*
X263307142Y-58785714D01*
X263450000Y-58500000D01*
X263735714Y-58357142D01*
X264307142Y-58357142D01*
X264592857Y-58500000D01*
X264735714Y-58785714D01*
X264735714Y-59071428D01*
X263307142Y-59357142D01*
X266021428Y-60357142D02*
X266021428Y-58357142D01*
X266021428Y-58928571D02*
X266164285Y-58642857D01*
X266307142Y-58500000D01*
X266592857Y-58357142D01*
X266878571Y-58357142D01*
X267878571Y-60357142D02*
X267878571Y-58357142D01*
X267878571Y-57357142D02*
X267735714Y-57500000D01*
X267878571Y-57642857D01*
X268021428Y-57500000D01*
X267878571Y-57357142D01*
X267878571Y-57642857D01*
X270592857Y-60357142D02*
X270592857Y-58785714D01*
X270450000Y-58500000D01*
X270164285Y-58357142D01*
X269592857Y-58357142D01*
X269307142Y-58500000D01*
X270592857Y-60214285D02*
X270307142Y-60357142D01*
X269592857Y-60357142D01*
X269307142Y-60214285D01*
X269164285Y-59928571D01*
X269164285Y-59642857D01*
X269307142Y-59357142D01*
X269592857Y-59214285D01*
X270307142Y-59214285D01*
X270592857Y-59071428D01*
X272450000Y-60357142D02*
X272164285Y-60214285D01*
X272021428Y-59928571D01*
X272021428Y-57357142D01*
X273592857Y-60071428D02*
X273735714Y-60214285D01*
X273592857Y-60357142D01*
X273450000Y-60214285D01*
X273592857Y-60071428D01*
X273592857Y-60357142D01*
X273592857Y-58500000D02*
X273735714Y-58642857D01*
X273592857Y-58785714D01*
X273450000Y-58642857D01*
X273592857Y-58500000D01*
X273592857Y-58785714D01*
X278307142Y-58785714D02*
X277307142Y-58785714D01*
X277307142Y-60357142D02*
X277307142Y-57357142D01*
X278735714Y-57357142D01*
X281592857Y-60357142D02*
X280592857Y-58928571D01*
X279878571Y-60357142D02*
X279878571Y-57357142D01*
X281021428Y-57357142D01*
X281307142Y-57500000D01*
X281450000Y-57642857D01*
X281592857Y-57928571D01*
X281592857Y-58357142D01*
X281450000Y-58642857D01*
X281307142Y-58785714D01*
X281021428Y-58928571D01*
X279878571Y-58928571D01*
X284164285Y-58357142D02*
X284164285Y-60357142D01*
X283450000Y-57214285D02*
X282735714Y-59357142D01*
X284592857Y-59357142D01*
X212735714Y-79214285D02*
X215021428Y-79214285D01*
X218735714Y-80357142D02*
X218735714Y-77357142D01*
X219735714Y-79500000D01*
X220735714Y-77357142D01*
X220735714Y-80357142D01*
X222164285Y-80357142D02*
X222164285Y-78357142D01*
X222164285Y-77357142D02*
X222021428Y-77500000D01*
X222164285Y-77642857D01*
X222307142Y-77500000D01*
X222164285Y-77357142D01*
X222164285Y-77642857D01*
X223592857Y-78357142D02*
X223592857Y-80357142D01*
X223592857Y-78642857D02*
X223735714Y-78500000D01*
X224021428Y-78357142D01*
X224450000Y-78357142D01*
X224735714Y-78500000D01*
X224878571Y-78785714D01*
X224878571Y-80357142D01*
X229878571Y-80357142D02*
X229878571Y-77357142D01*
X229878571Y-80214285D02*
X229592857Y-80357142D01*
X229021428Y-80357142D01*
X228735714Y-80214285D01*
X228592857Y-80071428D01*
X228450000Y-79785714D01*
X228450000Y-78928571D01*
X228592857Y-78642857D01*
X228735714Y-78500000D01*
X229021428Y-78357142D01*
X229592857Y-78357142D01*
X229878571Y-78500000D01*
X231307142Y-80357142D02*
X231307142Y-78357142D01*
X231307142Y-78928571D02*
X231450000Y-78642857D01*
X231592857Y-78500000D01*
X231878571Y-78357142D01*
X232164285Y-78357142D01*
X233164285Y-80357142D02*
X233164285Y-78357142D01*
X233164285Y-77357142D02*
X233021428Y-77500000D01*
X233164285Y-77642857D01*
X233307142Y-77500000D01*
X233164285Y-77357142D01*
X233164285Y-77642857D01*
X235021428Y-80357142D02*
X234735714Y-80214285D01*
X234592857Y-79928571D01*
X234592857Y-77357142D01*
X236592857Y-80357142D02*
X236307142Y-80214285D01*
X236164285Y-79928571D01*
X236164285Y-77357142D01*
X239878571Y-77214285D02*
X237307142Y-81071428D01*
X240878571Y-80357142D02*
X240878571Y-78357142D01*
X240878571Y-78928571D02*
X241021428Y-78642857D01*
X241164285Y-78500000D01*
X241450000Y-78357142D01*
X241735714Y-78357142D01*
X242735714Y-80357142D02*
X242735714Y-78357142D01*
X242735714Y-77357142D02*
X242592857Y-77500000D01*
X242735714Y-77642857D01*
X242878571Y-77500000D01*
X242735714Y-77357142D01*
X242735714Y-77642857D01*
X244164285Y-78357142D02*
X244164285Y-80357142D01*
X244164285Y-78642857D02*
X244307142Y-78500000D01*
X244592857Y-78357142D01*
X245021428Y-78357142D01*
X245307142Y-78500000D01*
X245450000Y-78785714D01*
X245450000Y-80357142D01*
X248164285Y-78357142D02*
X248164285Y-80785714D01*
X248021428Y-81071428D01*
X247878571Y-81214285D01*
X247592857Y-81357142D01*
X247164285Y-81357142D01*
X246878571Y-81214285D01*
X248164285Y-80214285D02*
X247878571Y-80357142D01*
X247307142Y-80357142D01*
X247021428Y-80214285D01*
X246878571Y-80071428D01*
X246735714Y-79785714D01*
X246735714Y-78928571D01*
X246878571Y-78642857D01*
X247021428Y-78500000D01*
X247307142Y-78357142D01*
X247878571Y-78357142D01*
X248164285Y-78500000D01*
X251878571Y-78785714D02*
X254164285Y-78785714D01*
X254164285Y-79642857D02*
X251878571Y-79642857D01*
X258450000Y-77357142D02*
X258735714Y-77357142D01*
X259021428Y-77500000D01*
X259164285Y-77642857D01*
X259307142Y-77928571D01*
X259450000Y-78500000D01*
X259450000Y-79214285D01*
X259307142Y-79785714D01*
X259164285Y-80071428D01*
X259021428Y-80214285D01*
X258735714Y-80357142D01*
X258450000Y-80357142D01*
X258164285Y-80214285D01*
X258021428Y-80071428D01*
X257878571Y-79785714D01*
X257735714Y-79214285D01*
X257735714Y-78500000D01*
X257878571Y-77928571D01*
X258021428Y-77642857D01*
X258164285Y-77500000D01*
X258450000Y-77357142D01*
X260735714Y-80071428D02*
X260878571Y-80214285D01*
X260735714Y-80357142D01*
X260592857Y-80214285D01*
X260735714Y-80071428D01*
X260735714Y-80357142D01*
X262021428Y-77642857D02*
X262164285Y-77500000D01*
X262450000Y-77357142D01*
X263164285Y-77357142D01*
X263450000Y-77500000D01*
X263592857Y-77642857D01*
X263735714Y-77928571D01*
X263735714Y-78214285D01*
X263592857Y-78642857D01*
X261878571Y-80357142D01*
X263735714Y-80357142D01*
X266450000Y-77357142D02*
X265021428Y-77357142D01*
X264878571Y-78785714D01*
X265021428Y-78642857D01*
X265307142Y-78500000D01*
X266021428Y-78500000D01*
X266307142Y-78642857D01*
X266450000Y-78785714D01*
X266592857Y-79071428D01*
X266592857Y-79785714D01*
X266450000Y-80071428D01*
X266307142Y-80214285D01*
X266021428Y-80357142D01*
X265307142Y-80357142D01*
X265021428Y-80214285D01*
X264878571Y-80071428D01*
X269164285Y-78357142D02*
X269164285Y-80357142D01*
X268450000Y-77214285D02*
X267735714Y-79357142D01*
X269592857Y-79357142D01*
X272878571Y-77214285D02*
X270307142Y-81071428D01*
X274450000Y-77357142D02*
X274735714Y-77357142D01*
X275021428Y-77500000D01*
X275164285Y-77642857D01*
X275307142Y-77928571D01*
X275450000Y-78500000D01*
X275450000Y-79214285D01*
X275307142Y-79785714D01*
X275164285Y-80071428D01*
X275021428Y-80214285D01*
X274735714Y-80357142D01*
X274450000Y-80357142D01*
X274164285Y-80214285D01*
X274021428Y-80071428D01*
X273878571Y-79785714D01*
X273735714Y-79214285D01*
X273735714Y-78500000D01*
X273878571Y-77928571D01*
X274021428Y-77642857D01*
X274164285Y-77500000D01*
X274450000Y-77357142D01*
X276735714Y-80071428D02*
X276878571Y-80214285D01*
X276735714Y-80357142D01*
X276592857Y-80214285D01*
X276735714Y-80071428D01*
X276735714Y-80357142D01*
X279592857Y-77357142D02*
X278164285Y-77357142D01*
X278021428Y-78785714D01*
X278164285Y-78642857D01*
X278450000Y-78500000D01*
X279164285Y-78500000D01*
X279450000Y-78642857D01*
X279592857Y-78785714D01*
X279735714Y-79071428D01*
X279735714Y-79785714D01*
X279592857Y-80071428D01*
X279450000Y-80214285D01*
X279164285Y-80357142D01*
X278450000Y-80357142D01*
X278164285Y-80214285D01*
X278021428Y-80071428D01*
X281592857Y-77357142D02*
X281878571Y-77357142D01*
X282164285Y-77500000D01*
X282307142Y-77642857D01*
X282450000Y-77928571D01*
X282592857Y-78500000D01*
X282592857Y-79214285D01*
X282450000Y-79785714D01*
X282307142Y-80071428D01*
X282164285Y-80214285D01*
X281878571Y-80357142D01*
X281592857Y-80357142D01*
X281307142Y-80214285D01*
X281164285Y-80071428D01*
X281021428Y-79785714D01*
X280878571Y-79214285D01*
X280878571Y-78500000D01*
X281021428Y-77928571D01*
X281164285Y-77642857D01*
X281307142Y-77500000D01*
X281592857Y-77357142D01*
X284307142Y-78642857D02*
X284021428Y-78500000D01*
X283878571Y-78357142D01*
X283735714Y-78071428D01*
X283735714Y-77928571D01*
X283878571Y-77642857D01*
X284021428Y-77500000D01*
X284307142Y-77357142D01*
X284878571Y-77357142D01*
X285164285Y-77500000D01*
X285307142Y-77642857D01*
X285450000Y-77928571D01*
X285450000Y-78071428D01*
X285307142Y-78357142D01*
X285164285Y-78500000D01*
X284878571Y-78642857D01*
X284307142Y-78642857D01*
X284021428Y-78785714D01*
X283878571Y-78928571D01*
X283735714Y-79214285D01*
X283735714Y-79785714D01*
X283878571Y-80071428D01*
X284021428Y-80214285D01*
X284307142Y-80357142D01*
X284878571Y-80357142D01*
X285164285Y-80214285D01*
X285307142Y-80071428D01*
X285450000Y-79785714D01*
X285450000Y-79214285D01*
X285307142Y-78928571D01*
X285164285Y-78785714D01*
X284878571Y-78642857D01*
X286735714Y-80357142D02*
X286735714Y-78357142D01*
X286735714Y-78642857D02*
X286878571Y-78500000D01*
X287164285Y-78357142D01*
X287592857Y-78357142D01*
X287878571Y-78500000D01*
X288021428Y-78785714D01*
X288021428Y-80357142D01*
X288021428Y-78785714D02*
X288164285Y-78500000D01*
X288450000Y-78357142D01*
X288878571Y-78357142D01*
X289164285Y-78500000D01*
X289307142Y-78785714D01*
X289307142Y-80357142D01*
X290735714Y-80357142D02*
X290735714Y-78357142D01*
X290735714Y-78642857D02*
X290878571Y-78500000D01*
X291164285Y-78357142D01*
X291592857Y-78357142D01*
X291878571Y-78500000D01*
X292021428Y-78785714D01*
X292021428Y-80357142D01*
X292021428Y-78785714D02*
X292164285Y-78500000D01*
X292450000Y-78357142D01*
X292878571Y-78357142D01*
X293164285Y-78500000D01*
X293307142Y-78785714D01*
X293307142Y-80357142D01*
X297878571Y-81500000D02*
X297735714Y-81357142D01*
X297450000Y-80928571D01*
X297307142Y-80642857D01*
X297164285Y-80214285D01*
X297021428Y-79500000D01*
X297021428Y-78928571D01*
X297164285Y-78214285D01*
X297307142Y-77785714D01*
X297450000Y-77500000D01*
X297735714Y-77071428D01*
X297878571Y-76928571D01*
X300592857Y-80357142D02*
X298878571Y-80357142D01*
X299735714Y-80357142D02*
X299735714Y-77357142D01*
X299450000Y-77785714D01*
X299164285Y-78071428D01*
X298878571Y-78214285D01*
X302450000Y-77357142D02*
X302735714Y-77357142D01*
X303021428Y-77500000D01*
X303164285Y-77642857D01*
X303307142Y-77928571D01*
X303450000Y-78500000D01*
X303450000Y-79214285D01*
X303307142Y-79785714D01*
X303164285Y-80071428D01*
X303021428Y-80214285D01*
X302735714Y-80357142D01*
X302450000Y-80357142D01*
X302164285Y-80214285D01*
X302021428Y-80071428D01*
X301878571Y-79785714D01*
X301735714Y-79214285D01*
X301735714Y-78500000D01*
X301878571Y-77928571D01*
X302021428Y-77642857D01*
X302164285Y-77500000D01*
X302450000Y-77357142D01*
X306878571Y-77214285D02*
X304307142Y-81071428D01*
X307735714Y-77642857D02*
X307878571Y-77500000D01*
X308164285Y-77357142D01*
X308878571Y-77357142D01*
X309164285Y-77500000D01*
X309307142Y-77642857D01*
X309450000Y-77928571D01*
X309450000Y-78214285D01*
X309307142Y-78642857D01*
X307592857Y-80357142D01*
X309450000Y-80357142D01*
X311307142Y-77357142D02*
X311592857Y-77357142D01*
X311878571Y-77500000D01*
X312021428Y-77642857D01*
X312164285Y-77928571D01*
X312307142Y-78500000D01*
X312307142Y-79214285D01*
X312164285Y-79785714D01*
X312021428Y-80071428D01*
X311878571Y-80214285D01*
X311592857Y-80357142D01*
X311307142Y-80357142D01*
X311021428Y-80214285D01*
X310878571Y-80071428D01*
X310735714Y-79785714D01*
X310592857Y-79214285D01*
X310592857Y-78500000D01*
X310735714Y-77928571D01*
X310878571Y-77642857D01*
X311021428Y-77500000D01*
X311307142Y-77357142D01*
X313592857Y-80357142D02*
X313592857Y-78357142D01*
X313592857Y-78642857D02*
X313735714Y-78500000D01*
X314021428Y-78357142D01*
X314450000Y-78357142D01*
X314735714Y-78500000D01*
X314878571Y-78785714D01*
X314878571Y-80357142D01*
X314878571Y-78785714D02*
X315021428Y-78500000D01*
X315307142Y-78357142D01*
X315735714Y-78357142D01*
X316021428Y-78500000D01*
X316164285Y-78785714D01*
X316164285Y-80357142D01*
X317592857Y-80357142D02*
X317592857Y-78357142D01*
X317592857Y-77357142D02*
X317450000Y-77500000D01*
X317592857Y-77642857D01*
X317735714Y-77500000D01*
X317592857Y-77357142D01*
X317592857Y-77642857D01*
X319450000Y-80357142D02*
X319164285Y-80214285D01*
X319021428Y-79928571D01*
X319021428Y-77357142D01*
X320307142Y-81500000D02*
X320450000Y-81357142D01*
X320735714Y-80928571D01*
X320878571Y-80642857D01*
X321021428Y-80214285D01*
X321164285Y-79500000D01*
X321164285Y-78928571D01*
X321021428Y-78214285D01*
X320878571Y-77785714D01*
X320735714Y-77500000D01*
X320450000Y-77071428D01*
X320307142Y-76928571D01*
X214949999Y-14214285D02*
X217235714Y-14214285D01*
X220949999Y-15357142D02*
X220949999Y-12357142D01*
X222664285Y-15357142D01*
X222664285Y-12357142D01*
X224521428Y-15357142D02*
X224235714Y-15214285D01*
X224092857Y-15071428D01*
X223949999Y-14785714D01*
X223949999Y-13928571D01*
X224092857Y-13642857D01*
X224235714Y-13500000D01*
X224521428Y-13357142D01*
X224949999Y-13357142D01*
X225235714Y-13500000D01*
X225378571Y-13642857D01*
X225521428Y-13928571D01*
X225521428Y-14785714D01*
X225378571Y-15071428D01*
X225235714Y-15214285D01*
X224949999Y-15357142D01*
X224521428Y-15357142D01*
X229092857Y-12357142D02*
X229092857Y-14785714D01*
X229235714Y-15071428D01*
X229378571Y-15214285D01*
X229664285Y-15357142D01*
X230235714Y-15357142D01*
X230521428Y-15214285D01*
X230664285Y-15071428D01*
X230807142Y-14785714D01*
X230807142Y-12357142D01*
X233664285Y-15357142D02*
X232235714Y-15357142D01*
X232235714Y-12357142D01*
X236949999Y-15357142D02*
X236949999Y-13357142D01*
X236949999Y-13642857D02*
X237092857Y-13500000D01*
X237378571Y-13357142D01*
X237807142Y-13357142D01*
X238092857Y-13500000D01*
X238235714Y-13785714D01*
X238235714Y-15357142D01*
X238235714Y-13785714D02*
X238378571Y-13500000D01*
X238664285Y-13357142D01*
X239092857Y-13357142D01*
X239378571Y-13500000D01*
X239521428Y-13785714D01*
X239521428Y-15357142D01*
X242235714Y-15357142D02*
X242235714Y-13785714D01*
X242092857Y-13500000D01*
X241807142Y-13357142D01*
X241235714Y-13357142D01*
X240949999Y-13500000D01*
X242235714Y-15214285D02*
X241949999Y-15357142D01*
X241235714Y-15357142D01*
X240949999Y-15214285D01*
X240807142Y-14928571D01*
X240807142Y-14642857D01*
X240949999Y-14357142D01*
X241235714Y-14214285D01*
X241949999Y-14214285D01*
X242235714Y-14071428D01*
X243664285Y-15357142D02*
X243664285Y-13357142D01*
X243664285Y-13928571D02*
X243807142Y-13642857D01*
X243949999Y-13500000D01*
X244235714Y-13357142D01*
X244521428Y-13357142D01*
X245521428Y-15357142D02*
X245521428Y-12357142D01*
X245807142Y-14214285D02*
X246664285Y-15357142D01*
X246664285Y-13357142D02*
X245521428Y-14500000D01*
X247950000Y-15357142D02*
X247950000Y-13357142D01*
X247950000Y-12357142D02*
X247807142Y-12500000D01*
X247950000Y-12642857D01*
X248092857Y-12500000D01*
X247950000Y-12357142D01*
X247950000Y-12642857D01*
X249378571Y-13357142D02*
X249378571Y-15357142D01*
X249378571Y-13642857D02*
X249521428Y-13500000D01*
X249807142Y-13357142D01*
X250235714Y-13357142D01*
X250521428Y-13500000D01*
X250664285Y-13785714D01*
X250664285Y-15357142D01*
X253378571Y-13357142D02*
X253378571Y-15785714D01*
X253235714Y-16071428D01*
X253092857Y-16214285D01*
X252807142Y-16357142D01*
X252378571Y-16357142D01*
X252092857Y-16214285D01*
X253378571Y-15214285D02*
X253092857Y-15357142D01*
X252521428Y-15357142D01*
X252235714Y-15214285D01*
X252092857Y-15071428D01*
X251950000Y-14785714D01*
X251950000Y-13928571D01*
X252092857Y-13642857D01*
X252235714Y-13500000D01*
X252521428Y-13357142D01*
X253092857Y-13357142D01*
X253378571Y-13500000D01*
X254664285Y-15214285D02*
X254950000Y-15357142D01*
X255521428Y-15357142D01*
X255807142Y-15214285D01*
X255950000Y-14928571D01*
X255950000Y-14785714D01*
X255807142Y-14500000D01*
X255521428Y-14357142D01*
X255092857Y-14357142D01*
X254807142Y-14214285D01*
X254664285Y-13928571D01*
X254664285Y-13785714D01*
X254807142Y-13500000D01*
X255092857Y-13357142D01*
X255521428Y-13357142D01*
X255807142Y-13500000D01*
X259949999Y-15357142D02*
X259664285Y-15214285D01*
X259521428Y-15071428D01*
X259378571Y-14785714D01*
X259378571Y-13928571D01*
X259521428Y-13642857D01*
X259664285Y-13500000D01*
X259949999Y-13357142D01*
X260378571Y-13357142D01*
X260664285Y-13500000D01*
X260807142Y-13642857D01*
X260949999Y-13928571D01*
X260949999Y-14785714D01*
X260807142Y-15071428D01*
X260664285Y-15214285D01*
X260378571Y-15357142D01*
X259949999Y-15357142D01*
X262235714Y-15357142D02*
X262235714Y-13357142D01*
X262235714Y-13928571D02*
X262378571Y-13642857D01*
X262521428Y-13500000D01*
X262807142Y-13357142D01*
X263092857Y-13357142D01*
X267664285Y-15357142D02*
X267664285Y-12357142D01*
X267664285Y-15214285D02*
X267378571Y-15357142D01*
X266807142Y-15357142D01*
X266521428Y-15214285D01*
X266378571Y-15071428D01*
X266235714Y-14785714D01*
X266235714Y-13928571D01*
X266378571Y-13642857D01*
X266521428Y-13500000D01*
X266807142Y-13357142D01*
X267378571Y-13357142D01*
X267664285Y-13500000D01*
X270378571Y-15357142D02*
X270378571Y-13785714D01*
X270235714Y-13500000D01*
X269950000Y-13357142D01*
X269378571Y-13357142D01*
X269092857Y-13500000D01*
X270378571Y-15214285D02*
X270092857Y-15357142D01*
X269378571Y-15357142D01*
X269092857Y-15214285D01*
X268950000Y-14928571D01*
X268950000Y-14642857D01*
X269092857Y-14357142D01*
X269378571Y-14214285D01*
X270092857Y-14214285D01*
X270378571Y-14071428D01*
X271378571Y-13357142D02*
X272521428Y-13357142D01*
X271807142Y-12357142D02*
X271807142Y-14928571D01*
X271950000Y-15214285D01*
X272235714Y-15357142D01*
X272521428Y-15357142D01*
X274664285Y-15214285D02*
X274378571Y-15357142D01*
X273807142Y-15357142D01*
X273521428Y-15214285D01*
X273378571Y-14928571D01*
X273378571Y-13785714D01*
X273521428Y-13500000D01*
X273807142Y-13357142D01*
X274378571Y-13357142D01*
X274664285Y-13500000D01*
X274807142Y-13785714D01*
X274807142Y-14071428D01*
X273378571Y-14357142D01*
X279664285Y-15214285D02*
X279378571Y-15357142D01*
X278807142Y-15357142D01*
X278521428Y-15214285D01*
X278378571Y-15071428D01*
X278235714Y-14785714D01*
X278235714Y-13928571D01*
X278378571Y-13642857D01*
X278521428Y-13500000D01*
X278807142Y-13357142D01*
X279378571Y-13357142D01*
X279664285Y-13500000D01*
X281378571Y-15357142D02*
X281092857Y-15214285D01*
X280950000Y-15071428D01*
X280807142Y-14785714D01*
X280807142Y-13928571D01*
X280950000Y-13642857D01*
X281092857Y-13500000D01*
X281378571Y-13357142D01*
X281807142Y-13357142D01*
X282092857Y-13500000D01*
X282235714Y-13642857D01*
X282378571Y-13928571D01*
X282378571Y-14785714D01*
X282235714Y-15071428D01*
X282092857Y-15214285D01*
X281807142Y-15357142D01*
X281378571Y-15357142D01*
X284950000Y-15357142D02*
X284950000Y-12357142D01*
X284950000Y-15214285D02*
X284664285Y-15357142D01*
X284092857Y-15357142D01*
X283807142Y-15214285D01*
X283664285Y-15071428D01*
X283521428Y-14785714D01*
X283521428Y-13928571D01*
X283664285Y-13642857D01*
X283807142Y-13500000D01*
X284092857Y-13357142D01*
X284664285Y-13357142D01*
X284950000Y-13500000D01*
X287521428Y-15214285D02*
X287235714Y-15357142D01*
X286664285Y-15357142D01*
X286378571Y-15214285D01*
X286235714Y-14928571D01*
X286235714Y-13785714D01*
X286378571Y-13500000D01*
X286664285Y-13357142D01*
X287235714Y-13357142D01*
X287521428Y-13500000D01*
X287664285Y-13785714D01*
X287664285Y-14071428D01*
X286235714Y-14357142D01*
X288807142Y-15214285D02*
X289092857Y-15357142D01*
X289664285Y-15357142D01*
X289950000Y-15214285D01*
X290092857Y-14928571D01*
X290092857Y-14785714D01*
X289950000Y-14500000D01*
X289664285Y-14357142D01*
X289235714Y-14357142D01*
X288950000Y-14214285D01*
X288807142Y-13928571D01*
X288807142Y-13785714D01*
X288950000Y-13500000D01*
X289235714Y-13357142D01*
X289664285Y-13357142D01*
X289950000Y-13500000D01*
X294950000Y-15357142D02*
X294950000Y-13785714D01*
X294807142Y-13500000D01*
X294521428Y-13357142D01*
X293950000Y-13357142D01*
X293664285Y-13500000D01*
X294950000Y-15214285D02*
X294664285Y-15357142D01*
X293950000Y-15357142D01*
X293664285Y-15214285D01*
X293521428Y-14928571D01*
X293521428Y-14642857D01*
X293664285Y-14357142D01*
X293950000Y-14214285D01*
X294664285Y-14214285D01*
X294950000Y-14071428D01*
X296378571Y-15357142D02*
X296378571Y-13357142D01*
X296378571Y-13928571D02*
X296521428Y-13642857D01*
X296664285Y-13500000D01*
X296950000Y-13357142D01*
X297235714Y-13357142D01*
X299378571Y-15214285D02*
X299092857Y-15357142D01*
X298521428Y-15357142D01*
X298235714Y-15214285D01*
X298092857Y-14928571D01*
X298092857Y-13785714D01*
X298235714Y-13500000D01*
X298521428Y-13357142D01*
X299092857Y-13357142D01*
X299378571Y-13500000D01*
X299521428Y-13785714D01*
X299521428Y-14071428D01*
X298092857Y-14357142D01*
X303092857Y-13357142D02*
X303092857Y-15357142D01*
X303092857Y-13642857D02*
X303235714Y-13500000D01*
X303521428Y-13357142D01*
X303950000Y-13357142D01*
X304235714Y-13500000D01*
X304378571Y-13785714D01*
X304378571Y-15357142D01*
X306950000Y-15214285D02*
X306664285Y-15357142D01*
X306092857Y-15357142D01*
X305807142Y-15214285D01*
X305664285Y-14928571D01*
X305664285Y-13785714D01*
X305807142Y-13500000D01*
X306092857Y-13357142D01*
X306664285Y-13357142D01*
X306950000Y-13500000D01*
X307092857Y-13785714D01*
X307092857Y-14071428D01*
X305664285Y-14357142D01*
X309521428Y-15214285D02*
X309235714Y-15357142D01*
X308664285Y-15357142D01*
X308378571Y-15214285D01*
X308235714Y-14928571D01*
X308235714Y-13785714D01*
X308378571Y-13500000D01*
X308664285Y-13357142D01*
X309235714Y-13357142D01*
X309521428Y-13500000D01*
X309664285Y-13785714D01*
X309664285Y-14071428D01*
X308235714Y-14357142D01*
X312235714Y-15357142D02*
X312235714Y-12357142D01*
X312235714Y-15214285D02*
X311950000Y-15357142D01*
X311378571Y-15357142D01*
X311092857Y-15214285D01*
X310950000Y-15071428D01*
X310807142Y-14785714D01*
X310807142Y-13928571D01*
X310950000Y-13642857D01*
X311092857Y-13500000D01*
X311378571Y-13357142D01*
X311950000Y-13357142D01*
X312235714Y-13500000D01*
X314807142Y-15214285D02*
X314521428Y-15357142D01*
X313950000Y-15357142D01*
X313664285Y-15214285D01*
X313521428Y-14928571D01*
X313521428Y-13785714D01*
X313664285Y-13500000D01*
X313950000Y-13357142D01*
X314521428Y-13357142D01*
X314807142Y-13500000D01*
X314950000Y-13785714D01*
X314950000Y-14071428D01*
X313521428Y-14357142D01*
X317521428Y-15357142D02*
X317521428Y-12357142D01*
X317521428Y-15214285D02*
X317235714Y-15357142D01*
X316664285Y-15357142D01*
X316378571Y-15214285D01*
X316235714Y-15071428D01*
X316092857Y-14785714D01*
X316092857Y-13928571D01*
X316235714Y-13642857D01*
X316378571Y-13500000D01*
X316664285Y-13357142D01*
X317235714Y-13357142D01*
X317521428Y-13500000D01*
X318950000Y-15071428D02*
X319092857Y-15214285D01*
X318950000Y-15357142D01*
X318807142Y-15214285D01*
X318950000Y-15071428D01*
X318950000Y-15357142D01*
X220735714Y-4214285D02*
X223021428Y-4214285D01*
X226735714Y-5357142D02*
X226735714Y-2357142D01*
X227735714Y-3357142D02*
X228878571Y-3357142D01*
X228164285Y-5357142D02*
X228164285Y-2785714D01*
X228307142Y-2500000D01*
X228592857Y-2357142D01*
X228878571Y-2357142D01*
X232164285Y-3357142D02*
X232164285Y-6357142D01*
X232164285Y-3500000D02*
X232450000Y-3357142D01*
X233021428Y-3357142D01*
X233307142Y-3500000D01*
X233450000Y-3642857D01*
X233592857Y-3928571D01*
X233592857Y-4785714D01*
X233450000Y-5071428D01*
X233307142Y-5214285D01*
X233021428Y-5357142D01*
X232450000Y-5357142D01*
X232164285Y-5214285D01*
X235307142Y-5357142D02*
X235021428Y-5214285D01*
X234878571Y-5071428D01*
X234735714Y-4785714D01*
X234735714Y-3928571D01*
X234878571Y-3642857D01*
X235021428Y-3500000D01*
X235307142Y-3357142D01*
X235735714Y-3357142D01*
X236021428Y-3500000D01*
X236164285Y-3642857D01*
X236307142Y-3928571D01*
X236307142Y-4785714D01*
X236164285Y-5071428D01*
X236021428Y-5214285D01*
X235735714Y-5357142D01*
X235307142Y-5357142D01*
X237450000Y-5214285D02*
X237735714Y-5357142D01*
X238307142Y-5357142D01*
X238592857Y-5214285D01*
X238735714Y-4928571D01*
X238735714Y-4785714D01*
X238592857Y-4500000D01*
X238307142Y-4357142D01*
X237878571Y-4357142D01*
X237592857Y-4214285D01*
X237450000Y-3928571D01*
X237450000Y-3785714D01*
X237592857Y-3500000D01*
X237878571Y-3357142D01*
X238307142Y-3357142D01*
X238592857Y-3500000D01*
X239878571Y-5214285D02*
X240164285Y-5357142D01*
X240735714Y-5357142D01*
X241021428Y-5214285D01*
X241164285Y-4928571D01*
X241164285Y-4785714D01*
X241021428Y-4500000D01*
X240735714Y-4357142D01*
X240307142Y-4357142D01*
X240021428Y-4214285D01*
X239878571Y-3928571D01*
X239878571Y-3785714D01*
X240021428Y-3500000D01*
X240307142Y-3357142D01*
X240735714Y-3357142D01*
X241021428Y-3500000D01*
X242450000Y-5357142D02*
X242450000Y-3357142D01*
X242450000Y-2357142D02*
X242307142Y-2500000D01*
X242450000Y-2642857D01*
X242592857Y-2500000D01*
X242450000Y-2357142D01*
X242450000Y-2642857D01*
X243878571Y-5357142D02*
X243878571Y-2357142D01*
X243878571Y-3500000D02*
X244164285Y-3357142D01*
X244735714Y-3357142D01*
X245021428Y-3500000D01*
X245164285Y-3642857D01*
X245307142Y-3928571D01*
X245307142Y-4785714D01*
X245164285Y-5071428D01*
X245021428Y-5214285D01*
X244735714Y-5357142D01*
X244164285Y-5357142D01*
X243878571Y-5214285D01*
X247021428Y-5357142D02*
X246735714Y-5214285D01*
X246592857Y-4928571D01*
X246592857Y-2357142D01*
X249307142Y-5214285D02*
X249021428Y-5357142D01*
X248450000Y-5357142D01*
X248164285Y-5214285D01*
X248021428Y-4928571D01*
X248021428Y-3785714D01*
X248164285Y-3500000D01*
X248450000Y-3357142D01*
X249021428Y-3357142D01*
X249307142Y-3500000D01*
X249450000Y-3785714D01*
X249450000Y-4071428D01*
X248021428Y-4357142D01*
X250878571Y-5214285D02*
X250878571Y-5357142D01*
X250735714Y-5642857D01*
X250592857Y-5785714D01*
X254450000Y-3357142D02*
X254450000Y-6357142D01*
X254450000Y-3500000D02*
X254735714Y-3357142D01*
X255307142Y-3357142D01*
X255592857Y-3500000D01*
X255735714Y-3642857D01*
X255878571Y-3928571D01*
X255878571Y-4785714D01*
X255735714Y-5071428D01*
X255592857Y-5214285D01*
X255307142Y-5357142D01*
X254735714Y-5357142D01*
X254450000Y-5214285D01*
X257592857Y-5357142D02*
X257307142Y-5214285D01*
X257164285Y-4928571D01*
X257164285Y-2357142D01*
X259878571Y-5214285D02*
X259592857Y-5357142D01*
X259021428Y-5357142D01*
X258735714Y-5214285D01*
X258592857Y-4928571D01*
X258592857Y-3785714D01*
X258735714Y-3500000D01*
X259021428Y-3357142D01*
X259592857Y-3357142D01*
X259878571Y-3500000D01*
X260021428Y-3785714D01*
X260021428Y-4071428D01*
X258592857Y-4357142D01*
X262592857Y-5357142D02*
X262592857Y-3785714D01*
X262450000Y-3500000D01*
X262164285Y-3357142D01*
X261592857Y-3357142D01*
X261307142Y-3500000D01*
X262592857Y-5214285D02*
X262307142Y-5357142D01*
X261592857Y-5357142D01*
X261307142Y-5214285D01*
X261164285Y-4928571D01*
X261164285Y-4642857D01*
X261307142Y-4357142D01*
X261592857Y-4214285D01*
X262307142Y-4214285D01*
X262592857Y-4071428D01*
X263878571Y-5214285D02*
X264164285Y-5357142D01*
X264735714Y-5357142D01*
X265021428Y-5214285D01*
X265164285Y-4928571D01*
X265164285Y-4785714D01*
X265021428Y-4500000D01*
X264735714Y-4357142D01*
X264307142Y-4357142D01*
X264021428Y-4214285D01*
X263878571Y-3928571D01*
X263878571Y-3785714D01*
X264021428Y-3500000D01*
X264307142Y-3357142D01*
X264735714Y-3357142D01*
X265021428Y-3500000D01*
X267592857Y-5214285D02*
X267307142Y-5357142D01*
X266735714Y-5357142D01*
X266450000Y-5214285D01*
X266307142Y-4928571D01*
X266307142Y-3785714D01*
X266450000Y-3500000D01*
X266735714Y-3357142D01*
X267307142Y-3357142D01*
X267592857Y-3500000D01*
X267735714Y-3785714D01*
X267735714Y-4071428D01*
X266307142Y-4357142D01*
X272592857Y-5357142D02*
X272592857Y-3785714D01*
X272450000Y-3500000D01*
X272164285Y-3357142D01*
X271592857Y-3357142D01*
X271307142Y-3500000D01*
X272592857Y-5214285D02*
X272307142Y-5357142D01*
X271592857Y-5357142D01*
X271307142Y-5214285D01*
X271164285Y-4928571D01*
X271164285Y-4642857D01*
X271307142Y-4357142D01*
X271592857Y-4214285D01*
X272307142Y-4214285D01*
X272592857Y-4071428D01*
X275307142Y-5357142D02*
X275307142Y-2357142D01*
X275307142Y-5214285D02*
X275021428Y-5357142D01*
X274450000Y-5357142D01*
X274164285Y-5214285D01*
X274021428Y-5071428D01*
X273878571Y-4785714D01*
X273878571Y-3928571D01*
X274021428Y-3642857D01*
X274164285Y-3500000D01*
X274450000Y-3357142D01*
X275021428Y-3357142D01*
X275307142Y-3500000D01*
X278021428Y-5357142D02*
X278021428Y-2357142D01*
X278021428Y-5214285D02*
X277735714Y-5357142D01*
X277164285Y-5357142D01*
X276878571Y-5214285D01*
X276735714Y-5071428D01*
X276592857Y-4785714D01*
X276592857Y-3928571D01*
X276735714Y-3642857D01*
X276878571Y-3500000D01*
X277164285Y-3357142D01*
X277735714Y-3357142D01*
X278021428Y-3500000D01*
X281592857Y-5214285D02*
X281878571Y-5357142D01*
X282450000Y-5357142D01*
X282735714Y-5214285D01*
X282878571Y-4928571D01*
X282878571Y-4785714D01*
X282735714Y-4500000D01*
X282450000Y-4357142D01*
X282021428Y-4357142D01*
X281735714Y-4214285D01*
X281592857Y-3928571D01*
X281592857Y-3785714D01*
X281735714Y-3500000D01*
X282021428Y-3357142D01*
X282450000Y-3357142D01*
X282735714Y-3500000D01*
X285307142Y-5214285D02*
X285021428Y-5357142D01*
X284450000Y-5357142D01*
X284164285Y-5214285D01*
X284021428Y-4928571D01*
X284021428Y-3785714D01*
X284164285Y-3500000D01*
X284450000Y-3357142D01*
X285021428Y-3357142D01*
X285307142Y-3500000D01*
X285450000Y-3785714D01*
X285450000Y-4071428D01*
X284021428Y-4357142D01*
X286735714Y-5357142D02*
X286735714Y-3357142D01*
X286735714Y-3928571D02*
X286878571Y-3642857D01*
X287021428Y-3500000D01*
X287307142Y-3357142D01*
X287592857Y-3357142D01*
X288592857Y-5357142D02*
X288592857Y-3357142D01*
X288592857Y-2357142D02*
X288450000Y-2500000D01*
X288592857Y-2642857D01*
X288735714Y-2500000D01*
X288592857Y-2357142D01*
X288592857Y-2642857D01*
X291307142Y-5357142D02*
X291307142Y-3785714D01*
X291164285Y-3500000D01*
X290878571Y-3357142D01*
X290307142Y-3357142D01*
X290021428Y-3500000D01*
X291307142Y-5214285D02*
X291021428Y-5357142D01*
X290307142Y-5357142D01*
X290021428Y-5214285D01*
X289878571Y-4928571D01*
X289878571Y-4642857D01*
X290021428Y-4357142D01*
X290307142Y-4214285D01*
X291021428Y-4214285D01*
X291307142Y-4071428D01*
X293164285Y-5357142D02*
X292878571Y-5214285D01*
X292735714Y-4928571D01*
X292735714Y-2357142D01*
X296592857Y-3357142D02*
X296592857Y-5357142D01*
X296592857Y-3642857D02*
X296735714Y-3500000D01*
X297021428Y-3357142D01*
X297450000Y-3357142D01*
X297735714Y-3500000D01*
X297878571Y-3785714D01*
X297878571Y-5357142D01*
X300592857Y-3357142D02*
X300592857Y-5357142D01*
X299307142Y-3357142D02*
X299307142Y-4928571D01*
X299450000Y-5214285D01*
X299735714Y-5357142D01*
X300164285Y-5357142D01*
X300450000Y-5214285D01*
X300592857Y-5071428D01*
X302021428Y-5357142D02*
X302021428Y-3357142D01*
X302021428Y-3642857D02*
X302164285Y-3500000D01*
X302450000Y-3357142D01*
X302878571Y-3357142D01*
X303164285Y-3500000D01*
X303307142Y-3785714D01*
X303307142Y-5357142D01*
X303307142Y-3785714D02*
X303450000Y-3500000D01*
X303735714Y-3357142D01*
X304164285Y-3357142D01*
X304450000Y-3500000D01*
X304592857Y-3785714D01*
X304592857Y-5357142D01*
X306021428Y-5357142D02*
X306021428Y-2357142D01*
X306021428Y-3500000D02*
X306307142Y-3357142D01*
X306878571Y-3357142D01*
X307164285Y-3500000D01*
X307307142Y-3642857D01*
X307450000Y-3928571D01*
X307450000Y-4785714D01*
X307307142Y-5071428D01*
X307164285Y-5214285D01*
X306878571Y-5357142D01*
X306307142Y-5357142D01*
X306021428Y-5214285D01*
X309878571Y-5214285D02*
X309592857Y-5357142D01*
X309021428Y-5357142D01*
X308735714Y-5214285D01*
X308592857Y-4928571D01*
X308592857Y-3785714D01*
X308735714Y-3500000D01*
X309021428Y-3357142D01*
X309592857Y-3357142D01*
X309878571Y-3500000D01*
X310021428Y-3785714D01*
X310021428Y-4071428D01*
X308592857Y-4357142D01*
X311307142Y-5357142D02*
X311307142Y-3357142D01*
X311307142Y-3928571D02*
X311450000Y-3642857D01*
X311592857Y-3500000D01*
X311878571Y-3357142D01*
X312164285Y-3357142D01*
X313164285Y-5071428D02*
X313307142Y-5214285D01*
X313164285Y-5357142D01*
X313021428Y-5214285D01*
X313164285Y-5071428D01*
X313164285Y-5357142D01*
D11*
X246473809Y14857142D02*
X247188095Y14619047D01*
X247426190Y14380952D01*
X247664285Y13904761D01*
X247664285Y13190476D01*
X247426190Y12714285D01*
X247188095Y12476190D01*
X246711904Y12238095D01*
X244807142Y12238095D01*
X244807142Y17238095D01*
X246473809Y17238095D01*
X246950000Y17000000D01*
X247188095Y16761904D01*
X247426190Y16285714D01*
X247426190Y15809523D01*
X247188095Y15333333D01*
X246950000Y15095238D01*
X246473809Y14857142D01*
X244807142Y14857142D01*
X250521428Y12238095D02*
X250045238Y12476190D01*
X249807142Y12714285D01*
X249569047Y13190476D01*
X249569047Y14619047D01*
X249807142Y15095238D01*
X250045238Y15333333D01*
X250521428Y15571428D01*
X251235714Y15571428D01*
X251711904Y15333333D01*
X251950000Y15095238D01*
X252188095Y14619047D01*
X252188095Y13190476D01*
X251950000Y12714285D01*
X251711904Y12476190D01*
X251235714Y12238095D01*
X250521428Y12238095D01*
X256473809Y12238095D02*
X256473809Y14857142D01*
X256235714Y15333333D01*
X255759523Y15571428D01*
X254807142Y15571428D01*
X254330952Y15333333D01*
X256473809Y12476190D02*
X255997619Y12238095D01*
X254807142Y12238095D01*
X254330952Y12476190D01*
X254092857Y12952380D01*
X254092857Y13428571D01*
X254330952Y13904761D01*
X254807142Y14142857D01*
X255997619Y14142857D01*
X256473809Y14380952D01*
X258854761Y12238095D02*
X258854761Y15571428D01*
X258854761Y14619047D02*
X259092857Y15095238D01*
X259330952Y15333333D01*
X259807142Y15571428D01*
X260283333Y15571428D01*
X264092857Y12238095D02*
X264092857Y17238095D01*
X264092857Y12476190D02*
X263616666Y12238095D01*
X262664285Y12238095D01*
X262188095Y12476190D01*
X261950000Y12714285D01*
X261711904Y13190476D01*
X261711904Y14619047D01*
X261950000Y15095238D01*
X262188095Y15333333D01*
X262664285Y15571428D01*
X263616666Y15571428D01*
X264092857Y15333333D01*
X271711904Y10333333D02*
X271473809Y10571428D01*
X270997619Y11285714D01*
X270759523Y11761904D01*
X270521428Y12476190D01*
X270283333Y13666666D01*
X270283333Y14619047D01*
X270521428Y15809523D01*
X270759523Y16523809D01*
X270997619Y17000000D01*
X271473809Y17714285D01*
X271711904Y17952380D01*
X273378571Y15571428D02*
X276950000Y15571428D01*
X274807142Y17714285D02*
X273378571Y11285714D01*
X276473809Y13428571D02*
X272902380Y13428571D01*
X275045238Y11285714D02*
X276473809Y17714285D01*
X280997619Y17238095D02*
X278616666Y17238095D01*
X278378571Y14857142D01*
X278616666Y15095238D01*
X279092857Y15333333D01*
X280283333Y15333333D01*
X280759523Y15095238D01*
X280997619Y14857142D01*
X281235714Y14380952D01*
X281235714Y13190476D01*
X280997619Y12714285D01*
X280759523Y12476190D01*
X280283333Y12238095D01*
X279092857Y12238095D01*
X278616666Y12476190D01*
X278378571Y12714285D01*
X284330952Y17238095D02*
X284807142Y17238095D01*
X285283333Y17000000D01*
X285521428Y16761904D01*
X285759523Y16285714D01*
X285997619Y15333333D01*
X285997619Y14142857D01*
X285759523Y13190476D01*
X285521428Y12714285D01*
X285283333Y12476190D01*
X284807142Y12238095D01*
X284330952Y12238095D01*
X283854761Y12476190D01*
X283616666Y12714285D01*
X283378571Y13190476D01*
X283140476Y14142857D01*
X283140476Y15333333D01*
X283378571Y16285714D01*
X283616666Y16761904D01*
X283854761Y17000000D01*
X284330952Y17238095D01*
X287664285Y10333333D02*
X287902380Y10571428D01*
X288378571Y11285714D01*
X288616666Y11761904D01*
X288854761Y12476190D01*
X289092857Y13666666D01*
X289092857Y14619047D01*
X288854761Y15809523D01*
X288616666Y16523809D01*
X288378571Y17000000D01*
X287902380Y17714285D01*
X287664285Y17952380D01*
G04 #@! TD*
M02*
